<?xml version="1.0" encoding="UTF-8"?> <svg xmlns="http://www.w3.org/2000/svg" xmlns:xlink="http://www.w3.org/1999/xlink" width="123px" height="23px" viewBox="0 0 123 23" version="1.1"><!-- Generator: Sketch 64 (93537) - https://sketch.com --><title>adstream-logo</title><desc>Created with Sketch.</desc><g id="Pages" stroke="none" stroke-width="1" fill="none" fill-rule="evenodd"><g id="Together---About" transform="translate(-149.000000, -5836.000000)" fill="#00122C" fill-rule="nonzero"><g id="Group-14" transform="translate(132.500000, 5826.625000)"><g id="Group" transform="translate(16.905000, 9.560000)"><g id="Group-2"><g id="adstream-logo" transform="translate(0.149380, 0.000000)"><path d="M27.8640873,8.00653646 C26.7804646,7.26648415 25.4931206,6.88258434 24.1811538,6.90824611 C22.1968929,6.85878567 20.2900147,7.67850256 18.9606138,9.15241934 C17.5938796,10.6729625 16.867261,12.6626383 16.9324377,14.7061074 C16.8676422,16.7495153 17.5942105,18.7390535 18.9606138,20.2597955 C20.3040934,21.7084472 22.2061126,22.5087358 24.1811538,22.4563761 C25.5330088,22.4993446 26.8570864,22.0666226 27.9226628,21.2336129 L27.9226628,22.1232281 L31.7849838,22.1232281 L31.7849838,0 L27.8640873,1.21910226 L27.8640873,8.00653646 Z M24.4154557,18.9345252 C22.3177212,18.9345252 20.9082486,17.2321752 20.9082486,14.6987855 C20.9082486,12.1653958 22.3177212,10.4667068 24.4154557,10.4667068 C26.5131902,10.4667068 27.9226628,12.1287861 27.9226628,14.6987855 C27.9226628,17.2687848 26.546139,18.9345252 24.4154557,18.9345252 Z" id="Shape"></path><path d="M41.3474315,12.9817916 L39.1105802,12.4472903 C38.0635435,12.1837007 37.9427315,11.7150968 37.9427315,11.4039145 C37.9427315,10.8144987 38.6492983,10.3678607 39.586506,10.3678607 C40.845879,10.3678607 41.859967,10.9170058 42.6873457,12.0482448 L42.9033428,12.3411223 L45.4660204,9.59539646 L45.2683281,9.38672131 C43.8413838,7.80040812 41.8043466,6.89979519 39.6707083,6.91166827 C36.3758373,6.91166827 34.1792567,8.74239096 34.1792567,11.458829 C34.1792567,13.9409652 35.7168632,15.5591129 38.7444835,16.2620187 L40.6262209,16.7233007 C41.9661351,17.0893974 42.1455225,17.481121 42.1455225,17.821591 C42.1455225,18.8246961 40.9703518,18.9711348 40.267446,18.9711348 C38.7488566,18.9890822 37.3179707,18.2613277 36.4380738,17.0235 L36.2257377,16.7452665 L33.7033309,19.3372316 L33.8680744,19.5459068 C35.3837151,21.4569319 37.4485009,22.4234274 40.0075173,22.4234274 C43.6172315,22.4234274 45.9492681,20.5709777 45.9492681,17.700779 C45.9419462,15.2772184 44.3970177,13.6810365 41.3474315,12.9817916 Z" id="Path"></path><path d="M51.839765,2.14898807 L47.9518173,3.37175129 L47.9518173,16.79652 C47.9518173,20.7064335 49.3649507,22.1598377 53.1686966,22.1598377 C53.9850923,22.1598377 54.5854907,22.126889 54.9625704,22.1012623 L55.244465,22.0829574 L55.244465,18.5098529 L53.8642804,18.5867332 C52.180235,18.5867332 51.839765,18.2023316 51.839765,16.3022893 L51.839765,10.8474474 L55.2408043,10.8474474 L55.2408043,7.27434288 L51.839765,7.27434288 L51.839765,2.14898807 Z" id="Path"></path><path d="M65.4365992,7.07298969 C63.7488931,7.07298969 62.3979962,7.51230581 61.4095346,8.37263323 L61.4095346,7.27434288 L57.5472139,7.27434288 L57.5472139,22.126889 L61.4644492,22.126889 L61.4644492,16.2437139 C61.4644492,12.2898687 62.5627396,10.8181597 65.5537504,10.8181597 C65.707858,10.8117811 65.8622276,10.819132 66.0150323,10.8401255 L66.3811288,10.9133448 L66.3811288,7.13522611 L66.1138785,7.10227742 C65.8889477,7.07843504 65.6627485,7.06865342 65.4365992,7.07298969 Z" id="Path"></path><path d="M80.7394446,14.52672 C80.7394446,11.0195129 78.9528923,6.92655096 73.9227223,6.92655096 C71.9635172,6.86332691 70.0851038,7.70928863 68.8339773,9.21831677 C67.5705453,10.7956803 66.9076489,12.7700998 66.9632227,14.7903097 C66.9632227,17.0308219 67.6588065,18.8905935 69.0243477,20.3220319 C70.3898884,21.7534703 72.1910846,22.4490542 74.4169531,22.4490542 C76.8344145,22.4993407 79.125497,21.3715493 80.5600569,19.4250948 L80.7284615,19.2090977 L78.0266673,16.68303 L77.828975,16.9759074 C77.1088696,18.1661303 75.8077249,18.8809221 74.4169531,18.8503229 C72.5352158,18.8503229 71.2538769,17.7520326 71.0012704,15.9947681 L80.7028346,15.9947681 L80.7394446,14.52672 Z M71.2209285,12.7401677 C71.6309565,11.3636439 72.62674,10.5435871 73.9446885,10.5435871 C75.7092746,10.5435871 76.4561123,11.6199116 76.5879069,12.7401677 L71.2209285,12.7401677 Z" id="Shape"></path><path d="M93.3331735,8.17128 C92.2712562,7.33177876 90.9485397,6.89130514 89.5953254,6.92655096 C87.6127845,6.8718589 85.7050139,7.68470016 84.3711246,9.15241934 C83.00439,10.6729625 82.2777716,12.6626383 82.3429485,14.7061074 C82.3429485,16.9576026 83.0055835,18.7771035 84.3711246,20.2634565 C85.7160134,21.7122827 87.6191998,22.5125012 89.5953254,22.4600371 C90.9014954,22.4751283 92.182497,22.1003875 93.2745981,21.3837126 L93.2745981,22.1378719 L97.1954946,22.1378719 L97.1954946,7.27434288 L93.3331735,7.27434288 L93.3331735,8.17128 Z M89.8003396,18.9931007 C87.6879611,18.9931007 86.3224204,17.3090555 86.3224204,14.7024465 C86.3224204,12.0958374 87.6550123,10.558231 89.8003396,10.558231 C91.9456665,10.558231 93.3368346,12.1837007 93.3368346,14.7024465 C93.3331735,16.8404516 92.2385443,18.9931007 89.8003396,18.9931007 Z" id="Shape"></path><path d="M11.0529235,8.17128 C9.9908564,7.33205581 8.6682433,6.89161656 7.31507538,6.92655096 C5.33506488,6.87401008 3.43040153,7.68666644 2.09819637,9.15241934 C0.732350844,10.6720384 0.00579561909,12.6602292 0.0700202366,14.7024465 C0.0700202366,16.9539416 0.732655397,18.7734426 2.09819637,20.2597955 C3.44195505,21.7080484 5.34378518,22.5082574 7.31873634,22.4563761 C8.62490624,22.4714673 9.90590795,22.0967265 10.998009,21.3800516 L10.998009,22.134211 L14.9225663,22.134211 L14.9225663,7.27434288 L11.0529235,7.27434288 L11.0529235,8.17128 Z M7.52375058,18.9931007 C5.41137215,18.9931007 4.0458312,17.3090555 4.0458312,14.7024465 C4.0458312,12.0958374 5.37842346,10.558231 7.52375058,10.558231 C9.66907765,10.558231 11.0529235,12.1837007 11.0529235,14.7024465 C11.0529235,16.8404516 9.95463316,18.9931007 7.52375058,18.9931007 Z" id="Shape"></path><path d="M115.613823,6.92655096 C113.967899,6.86165234 112.367599,7.47582885 111.187713,8.62524 C110.239522,7.48301808 108.925235,6.92655096 107.182615,6.92655096 C105.94804,6.88138012 104.74044,7.2947812 103.792558,8.08707773 L103.792558,7.27434288 L99.9302373,7.27434288 L99.9302373,22.126889 L103.851134,22.126889 L103.851134,13.7066632 C103.851134,11.6821481 104.810307,10.5179603 106.48703,10.5179603 C107.951418,10.5179603 108.800762,11.5320484 108.800762,13.2966348 L108.800762,22.1195671 L112.692371,22.1195671 L112.692371,13.6993413 C112.692371,11.7041139 113.688154,10.5106384 115.353895,10.5106384 C116.818282,10.5106384 117.667626,11.5247265 117.667626,13.2893129 L117.667626,22.1122452 L121.588522,22.1122452 L121.588522,13.5455807 C121.588522,9.21465581 119.523737,6.92655096 115.613823,6.92655096 Z" id="Path"></path></g></g></g></g></g></g></svg> 