<?xml version="1.0" encoding="UTF-8"?> <svg xmlns="http://www.w3.org/2000/svg" xmlns:xlink="http://www.w3.org/1999/xlink" width="83px" height="34px" viewBox="0 0 83 34" version="1.1"><!-- Generator: Sketch 64 (93537) - https://sketch.com --><title>also-logo</title><desc>Created with Sketch.</desc><defs><polygon id="path-1" points="0 0.0878582927 20.7473876 0.0878582927 20.7473876 18.8448095 0 18.8448095"></polygon><polygon id="path-3" points="0.159464634 0.196897073 15.5079866 0.196897073 15.5079866 19.5512195 0.159464634 19.5512195"></polygon><polygon id="path-5" points="0.0495631707 0.196897073 20.7962583 0.196897073 20.7962583 19.5512195 0.0495631707 19.5512195"></polygon><polygon id="path-7" points="0.18537 0.149885366 8.67463171 0.149885366 8.67463171 14.1827324 0.18537 14.1827324"></polygon></defs><g id="Pages" stroke="none" stroke-width="1" fill="none" fill-rule="evenodd"><g id="Together---About" transform="translate(-427.000000, -5831.000000)"><g id="Group-14" transform="translate(132.500000, 5826.625000)"><g id="Group" transform="translate(295.000000, 4.600000)"><g id="Group-2"><g id="also-logo" transform="translate(0.157317, 0.000000)"><g id="Group-3" transform="translate(0.000000, 13.709911)"><g id="Fill-1-Clipped"><g><mask id="mask-2" fill="white"><use xlink:href="#path-1"></use></mask><g id="path-1"></g><path d="M11.7163534,12.0540193 L10.9204559,8.74579 C10.7224998,7.9490778 10.5974534,7.12792659 10.4728144,6.33202902 L10.224351,6.33202902 L8.97999732,12.0540193 L11.7163534,12.0540193 Z M7.21387049,18.8448095 L-0.000122195122,18.8448095 L6.51776561,0.0878582927 L14.0555754,0.0878582927 L20.7473876,18.8448095 L13.5325802,18.8448095 L12.9110144,16.5068095 L7.76171195,16.5068095 L7.21387049,18.8448095 Z" id="Fill-1" fill="#121214" fill-rule="nonzero" mask="url(#mask-2)"></path></g></g></g><polygon id="Fill-4" fill="#121214" fill-rule="nonzero" points="22.1633846 13.7976068 28.9794285 13.7976068 28.9794285 26.5344117 34.7018261 26.5344117 34.7018261 32.554558 22.1633846 32.554558"></polygon><g id="Group-8" transform="translate(35.436585, 13.302594)"><g id="Fill-6-Clipped"><g><mask id="mask-4" fill="white"><use xlink:href="#path-3"></use></mask><g id="path-3"></g><path d="M2.24940854,12.5357532 L2.59725732,12.8090629 C3.81676463,13.7544459 5.2831061,14.5259044 6.85168415,14.5259044 C7.52294268,14.5259044 8.59255732,14.2525946 8.59255732,13.4065971 C8.59255732,12.5597849 7.69645976,12.4856532 7.07530122,12.3614215 L5.70630854,12.1121434 C3.04489878,11.6400629 0.806284146,10.0731141 0.806284146,7.13717268 C0.806284146,2.68438244 4.86112561,0.196897073 8.94081341,0.196897073 C11.0800427,0.196897073 13.0457549,0.719077561 14.8864207,1.83838488 L13.0457549,6.63983854 C11.8763476,5.84353366 10.5570476,5.22237512 9.08989146,5.22237512 C8.49317195,5.22237512 7.62192073,5.4459922 7.62192073,6.21704341 C7.62192073,6.91314829 8.46791829,7.01294098 8.9905061,7.13717268 L10.5330159,7.48624341 C13.4188573,8.13143366 15.5079866,9.67516537 15.5079866,12.8595702 C15.5079866,17.3372068 11.4282988,19.5513824 7.37305,19.5513824 C5.01020366,19.5513824 2.27425488,18.9041556 0.159464634,17.834541 L2.24940854,12.5357532 Z" id="Fill-6" fill="#121214" fill-rule="nonzero" mask="url(#mask-4)"></path></g></g></g><g id="Group-11" transform="translate(52.336585, 13.302594)"><g id="Fill-9-Clipped"><g><mask id="mask-6" fill="white"><use xlink:href="#path-5"></use></mask><g id="path-5"></g><path d="M6.91611439,10.0234215 C6.91611439,12.1622434 8.35842415,13.6298068 10.4231144,13.6298068 C12.4878046,13.6298068 13.9305217,12.1622434 13.9305217,10.0234215 C13.9305217,8.03286293 12.5875973,6.36612146 10.4231144,6.36612146 C8.2594461,6.36612146 6.91611439,8.03286293 6.91611439,10.0234215 M20.7962583,9.9240361 C20.7962583,15.9433678 16.14429,19.5513824 10.4231144,19.5513824 C4.70153146,19.5513824 0.0495631707,15.9433678 0.0495631707,9.9240361 C0.0495631707,4.02730683 4.72678512,0.196897073 10.4231144,0.196897073 C16.1194437,0.196897073 20.7962583,4.02730683 20.7962583,9.9240361" id="Fill-9" fill="#121214" fill-rule="nonzero" mask="url(#mask-6)"></path></g></g></g><g id="Group-14" transform="translate(73.724390, 0.061131)"><g id="Fill-12-Clipped"><g><mask id="mask-8" fill="white"><use xlink:href="#path-7"></use></mask><g id="path-7"></g><polygon id="Fill-12" fill="#121214" fill-rule="nonzero" mask="url(#mask-8)" points="0.18537 0.149844634 8.67467244 0.149844634 4.54855049 14.1827324"></polygon></g></g></g></g></g></g></g></g></g></svg> 