<?xml version="1.0" encoding="UTF-8"?> <svg xmlns="http://www.w3.org/2000/svg" xmlns:xlink="http://www.w3.org/1999/xlink" width="91px" height="29px" viewBox="0 0 91 29" version="1.1"><!-- Generator: Sketch 64 (93537) - https://sketch.com --><title>amazon-logo</title><desc>Created with Sketch.</desc><g id="Pages" stroke="none" stroke-width="1" fill="none" fill-rule="evenodd"><g id="Together---About" transform="translate(-681.000000, -5837.000000)" fill="#121214" fill-rule="nonzero"><g id="Group-14" transform="translate(132.500000, 5826.625000)"><g id="Group" transform="translate(548.300000, 11.150000)"><g id="Group-2"><g id="amazon-logo" transform="translate(0.090000, 0.000000)"><path d="M56.3098655,21.3506007 C51.0451775,25.231093 43.4143322,27.3014759 36.8443201,27.3014759 C27.6320985,27.3014759 19.3387371,23.8942164 13.0644885,18.2272809 C12.571541,17.7816527 13.0132202,17.1743422 13.6047606,17.5213757 C20.3758985,21.4610218 28.7481365,23.8311181 37.3964232,23.8311181 C43.2289845,23.8311181 49.6452016,22.6243781 55.5448088,20.1202024 C56.4360586,19.7416152 57.181397,20.7038529 56.3098655,21.3506007" id="path8"></path><path d="M58.4985572,18.8464241 C57.8281447,17.9867222 54.0501888,18.4402341 52.3544477,18.6413573 C51.8378357,18.7044556 51.7589673,18.2548855 52.2243075,17.9315094 C55.2332654,15.8138037 60.1706379,16.4250605 60.7464012,17.1349048 C61.3221634,17.8486955 60.5965455,22.7978994 57.7689918,25.1601056 C57.3351974,25.5229146 56.9211208,25.3296814 57.1143573,24.8485622 C57.7492746,23.2632395 59.1729111,19.7100697 58.4985572,18.8464241" id="path10"></path><path d="M52.4727553,2.98137128 L52.4727553,0.922819191 C52.4727553,0.611275949 52.7093703,0.402266026 52.9933092,0.402266026 L62.20947,0.402266026 C62.5052404,0.402266026 62.7418557,0.615220052 62.7418557,0.922819191 L62.7418557,2.68560279 C62.7379148,2.98137128 62.4894663,3.36784278 62.0477823,3.97909861 L57.2720998,10.7975615 C59.0467153,10.754185 60.9199199,11.018402 62.5289035,11.9254277 C62.8917124,12.1304936 62.9903026,12.4302061 63.0179071,12.7259776 L63.0179071,14.9225562 C63.0179071,15.2222678 62.6866454,15.573244 62.3396101,15.3918409 C59.5041701,13.9051076 55.7380443,13.7434209 52.6028928,15.4076164 C52.283463,15.581135 51.9482586,15.2340997 51.9482586,14.9343854 L51.9482586,12.8482288 C51.9482586,12.5130244 51.9521996,11.9412014 52.287404,11.4324793 L57.8202585,3.49798171 L53.0051392,3.49798171 C52.7093703,3.49798171 52.4727553,3.2889735 52.4727553,2.98137128" id="path12"></path><path d="M18.8536742,15.8256346 L16.0497843,15.8256346 C15.7816218,15.8059191 15.5686677,15.6047959 15.5489486,15.3484599 L15.5489486,0.95831426 C15.5489486,0.670432346 15.7895083,0.441702476 16.0892198,0.441702476 L18.7038175,0.441702476 C18.9759281,0.453525258 19.1928223,0.662542701 19.2125423,0.922819191 L19.2125423,2.80391269 L19.2638088,2.80391269 C19.9460485,0.985916692 21.2277132,0.138045433 22.9550053,0.138045433 C24.709901,0.138045433 25.8062189,0.985916692 26.5949362,2.80391269 C27.2732332,0.985916692 28.8151748,0.138045433 30.4675394,0.138045433 C31.6427284,0.138045433 32.9283377,0.623106615 33.7131122,1.71153678 C34.6004187,2.92221787 34.4190129,4.68105746 34.4190129,6.22300201 L34.4150719,15.3050834 C34.4150719,15.5929641 34.1745123,15.8256346 33.8748007,15.8256346 L31.0748517,15.8256346 C30.7948593,15.8059191 30.5700751,15.581135 30.5700751,15.3050834 L30.5700751,7.67818482 C30.5700751,7.07087304 30.6252816,5.55653534 30.4912022,4.98076995 C30.2821926,4.01459377 29.655163,3.74248353 28.8427812,3.74248353 C28.1644842,3.74248353 27.4546399,4.19599637 27.1667575,4.92161809 C26.878875,5.64723817 26.9064805,6.86186037 26.9064805,7.67818482 L26.9064805,15.3050834 C26.9064805,15.5929641 26.6659218,15.8256346 26.3662084,15.8256346 L23.5662639,15.8256346 C23.2823251,15.8059191 23.0614837,15.581135 23.0614837,15.3050834 L23.0575428,7.67818482 C23.0575428,6.07314566 23.3217597,3.71093546 21.3302516,3.71093546 C19.3150762,3.71093546 19.3939481,6.01398934 19.3939481,7.67818482 L19.3939481,15.3050834 C19.3939481,15.5929641 19.1533885,15.8256346 18.853677,15.8256346" id="path14"></path><path d="M70.6763536,0.138045433 C74.8368384,0.138045433 77.0886244,3.71093546 77.0886244,8.25394866 C77.0886244,12.6431602 74.6002187,16.1253471 70.6763536,16.1253471 C66.5907959,16.1253471 64.3666118,12.5524572 64.3666118,8.1001483 C64.3666118,3.62023253 66.6184005,0.138045433 70.6763536,0.138045433 M70.7000135,3.07601975 C68.6335751,3.07601975 68.5034021,5.89173835 68.5034021,7.64663688 C68.5034021,9.40547656 68.4758304,13.1597704 70.6763536,13.1597704 C72.8492695,13.1597704 72.9518039,10.1310982 72.9518039,8.28549523 C72.9518039,7.07087304 72.9005367,5.61963275 72.5337814,4.46810353 C72.2182943,3.46643527 71.5912666,3.07601975 70.7000135,3.07601975" id="path16"></path><path d="M82.4834527,15.8256346 L79.6913938,15.8256346 C79.4113975,15.8059191 79.1866138,15.581135 79.1866138,15.3050834 L79.1826729,0.910988525 C79.2063343,0.64676803 79.4390076,0.441702476 79.7229448,0.441702476 L82.3217705,0.441702476 C82.5662704,0.453525258 82.7673932,0.619164056 82.8226062,0.843948563 L82.8226062,3.04446869 L82.8738701,3.04446869 C83.6586463,1.07661962 84.7589035,0.138045433 86.6952052,0.138045433 C87.9532098,0.138045433 89.1796661,0.591558631 89.9683832,1.83378778 C90.7018895,2.98531528 90.7018895,4.92161809 90.7018895,6.31370184 L90.7018895,15.3721245 C90.6703423,15.6245114 90.437669,15.8256346 90.1616209,15.8256346 L87.3498419,15.8256346 C87.0935066,15.8059191 86.8805528,15.6166269 86.8529509,15.3721245 L86.8529509,7.5559341 C86.8529509,5.98244282 87.0343548,3.67938594 85.0980521,3.67938594 C84.4158135,3.67938594 83.7887819,4.1368445 83.4772385,4.83091362 C83.0828813,5.71033575 83.0316142,6.58581208 83.0316142,7.5559341 L83.0316142,15.3050834 C83.0276732,15.5929641 82.783169,15.8256346 82.4834571,15.8256346" id="path18"></path><path d="M43.6036263,1.96665927e-05 C44.9681084,1.96665927e-05 46.7506088,0.362830482 47.8272085,1.39604953 C49.1916879,2.66982803 49.0615512,4.36951412 49.0615512,6.21905801 L49.0615512,10.5885519 C49.0615512,11.9017685 49.6057661,12.4775289 50.1184318,13.1873778 C50.2958958,13.4397647 50.3353314,13.7434209 50.10659,13.9327131 C49.5347706,14.4098896 48.5173237,15.2971961 47.9573352,15.7940873 L47.9533942,15.7861873 C47.7680574,15.9518294 47.4998905,15.9636595 47.2908818,15.853241 C46.3601934,15.0802984 46.1906202,14.721433 45.6818982,13.9839823 C44.1438984,15.5535285 43.0515232,16.0228141 41.0600124,16.0228141 C38.6978034,16.0228141 36.8640375,14.56763 36.8640375,11.6533225 C36.8640375,9.37787103 38.0944384,7.82804128 39.8532778,7.07087304 C41.3755012,6.40046089 43.5010915,6.28215543 45.1258515,6.09680708 L45.1258515,5.73399712 C45.1258515,5.06752879 45.1771189,4.27881119 44.7827598,3.70305043 C44.4436117,3.18643846 43.7889739,2.97348471 43.2092681,2.97348471 C42.1405548,2.97348471 41.1901526,3.52164312 40.9574794,4.65739604 C40.9101566,4.90978733 40.7248098,5.15823325 40.4684737,5.17006392 L37.751344,4.87823645 C37.5226144,4.8269726 37.2662829,4.64162128 37.3333239,4.29064485 C37.9564108,0.993806342 40.9377639,1.96665927e-05 43.6036263,1.96665927e-05 Z M45.1258515,8.34465171 C43.0949042,8.34465171 40.9535375,8.77844577 40.9535375,11.1682587 C40.9535375,12.3789396 41.5845117,13.1992078 42.6611114,13.1992078 C43.4458841,13.1992078 44.1557293,12.7141476 44.601354,11.9254277 C45.1534561,10.9553046 45.1258515,10.0443362 45.1258515,8.95196333 L45.1258515,8.95196333 Z" id="path28"></path><path d="M6.84545367,1.96665927e-05 C8.20993227,1.96665927e-05 9.99243337,0.362830482 11.0690331,1.39604953 C12.4335152,2.66982803 12.3033749,4.36951412 12.3033749,6.21905801 L12.3033749,10.5885519 C12.3033749,11.9017685 12.8475925,12.4775289 13.3602591,13.1873778 C13.5416632,13.4397647 13.5810987,13.7434209 13.3523682,13.9327131 C12.7805488,14.4098896 11.7631046,15.2971961 11.2031125,15.7940873 L11.1952306,15.7861873 C11.0098811,15.9518294 10.7417142,15.9636595 10.5327046,15.853241 C9.60202067,15.0802984 9.43638761,14.721433 8.92372168,13.9839823 C7.38572245,15.5535285 6.29729525,16.0228141 4.30183758,16.0228141 C1.94357146,16.0228141 0.10586276,14.56763 0.10586276,11.6533225 C0.10586276,9.37787103 1.34020518,7.82804128 3.09510068,7.07087304 C4.61732492,6.40046089 6.74291851,6.28215543 8.36767816,6.09680708 L8.36767816,5.73399712 C8.36767816,5.06752879 8.418945,4.27881119 8.02852951,3.70305043 C7.68543511,3.18643846 7.03080196,2.97348471 6.45503659,2.97348471 C5.38632683,2.97348471 4.43197669,3.52164312 4.19930553,4.65739604 C4.15198142,4.90978733 3.96663301,5.15823325 3.71424471,5.17006392 L0.993169877,4.87823645 C0.764441355,4.8269726 0.512051488,4.64162128 0.575148957,4.29064485 C1.2021796,0.993806342 4.17958676,1.96665927e-05 6.84545367,1.96665927e-05 Z M8.36767816,8.34465171 C6.34067245,8.34465171 4.19930553,8.77844577 4.19930553,11.1682587 C4.19930553,12.3789396 4.82633467,13.1992078 5.90293417,13.1992078 C6.69165178,13.1992078 7.39755319,12.7141476 7.84318099,11.9254277 C8.39528051,10.9553046 8.36767816,10.0443362 8.36767816,8.95196333 L8.36767816,8.95196333 Z" id="path30"></path></g></g></g></g></g></g></svg> 