<?xml version="1.0" encoding="UTF-8"?> <svg xmlns="http://www.w3.org/2000/svg" xmlns:xlink="http://www.w3.org/1999/xlink" width="101px" height="35px" viewBox="0 0 101 35" version="1.1"><!-- Generator: Sketch 64 (93537) - https://sketch.com --><title>brring-logo</title><desc>Created with Sketch.</desc><g id="Pages" stroke="none" stroke-width="1" fill="none" fill-rule="evenodd"><g id="Together---About" transform="translate(-936.000000, -5830.000000)" fill="#000000" fill-rule="nonzero"><g id="Group-14" transform="translate(132.500000, 5826.625000)"><g id="Group" transform="translate(803.800000, 4.000000)"><g id="brring-logo" transform="translate(0.100000, 0.100000)"><path d="M23.1274535,23.0340387 C20.2107092,25.943087 16.1200943,27.3652006 12.0202328,26.8954946 C14.1106644,31.4292616 18.9467759,34.051057 23.9026044,33.3372708 C28.8584331,32.6234846 32.7514674,28.7444335 33.4678266,23.8064054 C34.1841858,18.8683774 31.5529395,14.0496364 27.0028291,11.9667133 C27.4742284,16.0518487 26.0469883,20.1277709 23.1274535,23.0340387 L23.1274535,23.0340387 Z" id="Path"></path><path d="M3.94105996,23.0340387 C6.1065237,25.1962546 8.94704782,26.5583179 11.9939591,26.8954946 C9.98497528,22.6095608 10.8847429,17.5289478 14.2446093,14.1870099 C17.6044759,10.845072 22.7049721,9.95743919 27.0028291,11.9667133 C26.3192146,6.09586027 21.8812901,1.3512623 16.0519118,0.25905566 C10.2225333,-0.833150964 4.3581211,1.98117595 1.58102694,7.20362216 C-1.19606719,12.4260684 -0.239649766,18.8414388 3.94105996,23.0340387 Z" id="Path"></path><circle id="Oval" cx="18.5689608" cy="21.3192906" r="1.17931034"></circle><circle id="Oval" cx="21.0321238" cy="21.3192906" r="1.17931034"></circle><circle id="Oval" cx="16.0992302" cy="21.3192906" r="1.17931034"></circle><circle id="Oval" cx="21.0321238" cy="18.6555411" r="1.17931034"></circle><circle id="Oval" cx="18.5689608" cy="18.6555411" r="1.17931034"></circle><circle id="Oval" cx="16.0992302" cy="18.6555411" r="1.17931034"></circle><circle id="Oval" cx="21.0321238" cy="15.9917904" r="1.17931034"></circle><circle id="Oval" cx="18.5689608" cy="15.9917904" r="1.17931034"></circle><circle id="Oval" cx="16.0992302" cy="15.9917904" r="1.17931034"></circle><path d="M46.3187774,23.1183202 L46.3187774,24.7663086 L43.4000315,24.7663086 L43.4000315,9.44612 L46.3187774,9.44612 L46.3187774,15.9160004 C47.0484639,14.7563049 48.3254153,14.0238655 49.6631738,14.0238655 C52.2170765,14.0238655 54.2237142,15.9160004 54.2237142,19.4561237 L54.2237142,19.6392336 C54.2237142,23.1183202 52.2778837,25.0714916 49.6631738,25.0714916 C48.3254153,25.1325283 46.9876567,24.3390524 46.3187774,23.1183202 L46.3187774,23.1183202 Z M51.3657756,19.5781969 L51.3657756,19.3950871 C51.3657756,17.2588058 50.3320531,16.2211834 48.8118729,16.2211834 C47.2916928,16.2211834 46.2579702,17.3198424 46.2579702,19.4561237 L46.2579702,19.6392336 C46.2579702,21.7755147 47.2916928,22.8131371 48.8726801,22.8131371 C50.4536676,22.8131371 51.3657756,21.6534415 51.3657756,19.5781969 Z" id="Shape"></path><path d="M56.0479306,14.268012 L58.9666765,14.268012 L58.9666765,16.2822201 C59.5139412,14.8783781 60.9125071,14.0238655 62.3718801,14.0849023 L62.3718801,16.8315495 C60.2436278,16.8315495 58.9666765,17.5029523 58.9666765,19.5171603 L58.9666765,24.8273451 L56.0479306,24.8273451 L56.0479306,14.268012 Z" id="Path"></path><path d="M64.0744819,14.268012 L66.9932277,14.268012 L66.9932277,16.2822201 C67.5404926,14.8783781 68.9390584,14.0238655 70.3984312,14.0849023 L70.3984312,16.8315495 C68.270179,16.8315495 66.9932277,17.5029523 66.9932277,19.5171603 L66.9932277,24.8273451 L64.0744819,24.8273451 L64.0744819,14.268012 Z" id="Path"></path><path d="M71.9794187,11.2161816 C71.9186116,10.3006325 72.6482979,9.50715657 73.560406,9.50715657 C74.4725143,9.44612 75.2630079,10.1785593 75.2630079,11.0941084 C75.3238151,12.0096575 74.5941286,12.8031334 73.6820205,12.8031334 L73.6212133,12.8031334 C72.7699124,12.8641701 71.9794187,12.1317307 71.9794187,11.2161816 Z M72.2226476,14.268012 L75.1413935,14.268012 L75.1413935,24.8273451 L72.2226476,24.8273451 L72.2226476,14.268012 Z" id="Shape"></path><path d="M77.5736817,14.268012 L80.4924276,14.268012 L80.4924276,15.9160004 C81.1613069,14.6952682 82.4990655,13.9017924 83.8976315,14.0238655 C85.9650766,14.0238655 87.424449,15.3056343 87.424449,18.1133184 L87.424449,24.8273451 L84.5057034,24.8273451 L84.5057034,18.479538 C84.5057034,17.0146594 83.9584383,16.3432567 82.6814871,16.3432567 C81.5261502,16.2822201 80.5532349,17.1367325 80.4924276,18.2964281 L80.4924276,18.6626478 L80.4924276,24.7663086 L77.5736817,24.7663086 L77.5736817,14.268012 Z" id="Path"></path><path d="M89.1878585,25.010455 L92.0457966,25.010455 C92.2282186,25.9260042 92.897098,26.5363702 94.4172779,26.5363702 C96.1806867,26.5363702 97.0927949,25.6208211 97.0927949,23.9728327 L97.0927949,22.3858809 C96.3631086,23.6066131 95.0861574,24.3390524 93.6875918,24.3390524 C91.1336884,24.3390524 89.1270509,22.4469175 89.1270509,19.2730138 L89.1270509,19.1509406 C89.1270509,16.0991102 91.1336884,14.0238655 93.7483986,14.0238655 C95.1469642,13.9017924 96.4239154,14.6342316 97.0927949,15.8549638 L97.0927949,14.3290486 L100.011541,14.3290486 L100.011541,24.0338693 C100.011541,27.1467363 97.9440962,28.7947248 94.4780855,28.7947248 C90.9512673,28.6726515 89.4918941,27.2077729 89.1878585,25.010455 L89.1878585,25.010455 Z M97.1536025,19.2730138 L97.1536025,19.1509406 C97.1536025,17.380879 96.1806867,16.2822201 94.5996999,16.2822201 C93.0187123,16.2822201 92.0457966,17.4419156 92.0457966,19.2119773 L92.0457966,19.3950871 C91.9849898,21.1651488 93.0795191,22.2638077 94.5388923,22.2638077 C95.9982655,22.2638077 97.1536025,21.0430755 97.1536025,19.2730138 L97.1536025,19.2730138 Z" id="Shape"></path></g></g></g></g></g></svg> 