<?xml version="1.0" encoding="UTF-8"?> <svg xmlns="http://www.w3.org/2000/svg" xmlns:xlink="http://www.w3.org/1999/xlink" width="125px" height="26px" viewBox="0 0 125 26" version="1.1"><!-- Generator: Sketch 64 (93537) - https://sketch.com --><title>capdax_icon_text.f206117a</title><desc>Created with Sketch.</desc><g id="Pages" stroke="none" stroke-width="1" fill="none" fill-rule="evenodd"><g id="Together---About" transform="translate(-1174.000000, -6075.000000)" fill="#121214" fill-rule="nonzero"><g id="Group-14" transform="translate(132.500000, 5826.625000)"><g id="Group" transform="translate(1041.400000, 248.700000)"><g id="capdax_icon_text.f206117a" transform="translate(0.064000, 0.000000)"><path d="M4.8504,17.9632 C5.1342,18.634 5.547,19.1758 6.0372,19.666 C6.5274,20.1562 7.1208,20.5432 7.74,20.827 C8.4108,21.1108 9.1074,21.2398 9.8298,21.2398 C10.3974,21.2398 10.9134,21.1366 11.4294,21.0076 C11.9196,20.827 12.4098,20.5948 12.8226,20.311 C13.287,20.0014 13.8288,19.8208 14.4222,19.8208 C14.8866,19.8208 15.2478,19.8982 15.609,20.0272 C15.9186,20.1562 16.2282,20.3884 16.512,20.6464 L17.6214,21.7558 C17.0538,22.3492 16.512,22.8652 15.867,23.3296 C15.2478,23.794 14.6028,24.2068 13.9578,24.5164 C13.287,24.826 12.642,25.1098 11.9454,25.2904 C11.2488,25.471 10.5522,25.5742 9.8556,25.5742 C8.9526,25.5742 8.1012,25.471 7.2756,25.213 C6.45,24.9808 5.676,24.6454 4.9278,24.2326 C4.2054,23.8198 3.5346,23.3296 2.9412,22.7362 C2.3478,22.1428 1.8318,21.472 1.3932,20.7754 C0.9804,20.053 0.6192,19.279 0.4128,18.4792 C0.1806,17.6536 0.0516,16.8022 0.0516,15.8992 C0.0516,14.9962 0.1548,14.1448 0.4128,13.3192 C0.6708,12.4936 0.9804,11.7196 1.3932,11.023 C1.806,10.3264 2.3478,9.6556 2.9412,9.0622 C3.5346,8.4688 4.2054,7.9786 4.9278,7.5658 C5.6502,7.153 6.4242,6.8434 7.2756,6.5854 C8.1012,6.3532 8.9526,6.2242 9.8556,6.2242 C10.5522,6.2242 11.2488,6.3274 11.9454,6.508 C12.642,6.6886 13.3128,6.9208 13.9578,7.282 C14.6286,7.5916 15.2478,8.0044 15.867,8.4688 C16.4862,8.9332 17.0538,9.4492 17.6214,10.0426 L16.5378,11.152 C16.254,11.4358 15.9702,11.6422 15.6348,11.7712 C15.2994,11.9002 14.9124,12.0034 14.4738,12.0034 C13.8804,12.0034 13.3644,11.8228 12.8742,11.5132 C12.4098,11.2294 11.9712,10.9972 11.481,10.8166 C10.9908,10.636 10.4748,10.5844 9.9072,10.5844 C9.1848,10.5844 8.4882,10.7134 7.8174,10.9972 C7.1466,11.281 6.6048,11.668 6.1146,12.1582 C5.6244,12.6484 5.2374,13.216 4.9278,13.861 C4.5408,14.4544 4.386,15.151 4.386,15.8992 C4.386,16.6216 4.515,17.3182 4.8504,17.9632 Z" id="path4"></path><path d="M25.8258,9.6814 C25.8258,8.959 25.6968,8.2624 25.3614,7.6174 C25.0776,6.9466 24.6648,6.4048 24.1746,5.9146 C23.6844,5.4244 23.091,5.0374 22.4718,4.7536 C21.801,4.4698 21.1044,4.3408 20.382,4.3408 C19.8144,4.3408 19.2984,4.444 18.7824,4.573 C18.2922,4.7536 17.802,4.9858 17.3892,5.2696 C16.9248,5.5792 16.383,5.7598 15.7896,5.7598 C15.3252,5.7598 14.964,5.6824 14.6028,5.5534 C14.2932,5.4244 13.9836,5.1922 13.6998,4.9342 L12.5904,3.8248 C13.158,3.2314 13.6998,2.7154 14.3448,2.251 C14.964,1.7866 15.609,1.3738 16.254,1.0642 C16.9248,0.7546 17.5698,0.4708 18.2664,0.2902 C18.963,0.1096 19.6596,0.0064 20.3562,0.0064 C21.2592,0.0064 22.1106,0.1096 22.9362,0.3676 C23.7618,0.5998 24.5358,0.9352 25.284,1.348 C26.0064,1.7608 26.6772,2.251 27.2706,2.8444 C27.864,3.4378 28.38,4.1086 28.8186,4.8052 C29.2314,5.5276 29.5926,6.3016 29.799,7.1014 C30.0312,7.927 30.1602,8.7784 30.1602,9.6814 C30.1602,10.5844 30.057,11.4358 29.799,12.2614 C29.541,13.087 29.2314,13.861 28.8186,14.5576 C28.4058,15.2542 27.864,15.925 27.2706,16.5184 C26.6772,17.1118 26.0064,17.602 25.284,18.0148 C24.5616,18.4276 23.7876,18.7372 22.9362,18.9952 C22.1106,19.2274 21.2592,19.3564 20.3562,19.3564 C19.6596,19.3564 18.963,19.2532 18.2664,19.0726 C17.5698,18.892 16.899,18.6598 16.254,18.2986 C15.5832,17.989 14.964,17.5762 14.3448,17.1118 C13.7256,16.6474 13.158,16.1314 12.5904,15.538 L13.6998,14.4286 C13.9836,14.1448 14.2674,13.9384 14.6028,13.8094 C14.9382,13.6804 15.3252,13.5772 15.7638,13.5772 C16.3572,13.5772 16.8732,13.7578 17.3634,14.0674 C17.8278,14.3512 18.2664,14.5834 18.7566,14.764 C19.2468,14.9446 19.7628,14.9962 20.3304,14.9962 C21.0528,14.9962 21.7494,14.8672 22.4202,14.5834 C23.091,14.2996 23.6328,13.9126 24.123,13.4224 C24.6132,12.9322 25.0002,12.3646 25.3098,11.7196 C25.6968,11.1004 25.8258,10.4038 25.8258,9.6814 Z" id="path4_2_"></path><path d="M58.5918,14.0416 L61.4556,14.0416 L60.2946,11.2294 C60.243,11.1004 60.1914,10.9714 60.1656,10.8682 C60.1398,10.7392 60.114,10.636 60.0882,10.5586 C60.0624,10.4554 60.0366,10.3522 60.0366,10.2748 C60.0108,10.378 60.0108,10.4554 59.985,10.5844 C59.9592,10.6876 59.9334,10.7908 59.9076,10.894 C59.8818,11.023 59.8302,11.1262 59.7786,11.2294 L58.5918,14.0416 Z M58.7208,6.0436 L61.3782,6.0436 L67.2606,19.5112 L65.274,19.5112 C65.0676,19.5112 64.887,19.4854 64.6806,19.4338 C64.4742,19.3822 64.3194,19.3048 64.1388,19.2016 C63.9582,19.0984 63.8292,18.9694 63.7002,18.8404 C63.5712,18.6856 63.4422,18.5308 63.3906,18.3502 L62.7198,16.8538 L57.3792,16.8538 L56.7342,18.3502 C56.6568,18.5308 56.5536,18.6598 56.4246,18.8146 C56.2956,18.9694 56.115,19.0984 55.986,19.1758 C55.8054,19.279 55.6506,19.3822 55.4442,19.4338 C55.2378,19.4854 55.0572,19.537 54.8508,19.537 L52.8642,19.537 L58.7208,6.0436 Z M75.1038,12.3388 C75.3102,12.3388 75.465,12.2872 75.6456,12.184 C75.8262,12.0808 75.9552,11.9518 76.11,11.8228 C76.239,11.668 76.368,11.5132 76.4196,11.3068 C76.497,11.1004 76.5486,10.9456 76.5486,10.7392 C76.5486,10.5328 76.497,10.3522 76.4196,10.1716 C76.3422,9.9652 76.2132,9.8104 76.11,9.6556 C75.981,9.5008 75.8004,9.3718 75.6456,9.2944 C75.465,9.1912 75.3102,9.1396 75.1038,9.1396 L72.756,9.1396 L72.756,12.3388 L75.1038,12.3388 Z M72.756,19.5112 L69.6858,19.5112 L69.6858,6.0436 L75.1038,6.0436 C75.723,6.0436 76.3164,6.1726 76.884,6.4048 C77.4258,6.6628 77.916,6.9982 78.3288,7.411 C78.7416,7.8238 79.077,8.3398 79.2834,8.9074 C79.5414,9.475 79.6188,10.0684 79.6188,10.6876 C79.6188,11.3068 79.4898,11.9002 79.2834,12.4678 C79.0254,13.0354 78.7158,13.5256 78.3288,13.9642 C77.916,14.377 77.4258,14.7382 76.884,14.9704 C76.3422,15.2284 75.7488,15.3316 75.1296,15.3316 L72.7818,15.3316 L72.756,19.5112 Z M88.0296,16.441 C88.5198,16.441 88.9842,16.3378 89.4486,16.1314 C89.8872,15.925 90.3,15.6928 90.6354,15.3574 C90.9708,15.022 91.2546,14.635 91.461,14.1964 C91.6674,13.7578 91.7706,13.2676 91.7706,12.7774 C91.7706,12.2872 91.6674,11.8228 91.461,11.3584 C91.2546,10.9198 90.9966,10.507 90.6354,10.1974 C90.3,9.8878 89.8872,9.604 89.4486,9.3976 C89.01,9.1912 88.5198,9.088 88.0296,9.088 L85.527,9.088 L85.527,16.3894 L88.0296,16.441 Z M82.4568,19.5112 L82.4568,6.0436 L88.0296,6.0436 C88.6488,6.0436 89.2422,6.121 89.8356,6.3016 C90.4032,6.4564 90.945,6.6886 91.4352,6.9724 C91.9254,7.282 92.3898,7.6174 92.8284,8.0302 C93.2412,8.443 93.6024,8.9074 93.8862,9.3976 C94.1958,9.8878 94.4022,10.4296 94.5828,10.9972 C94.7634,11.5648 94.8408,12.1582 94.8408,12.7774 C94.8408,13.3966 94.7634,13.99 94.5828,14.5576 C94.4022,15.1252 94.1958,15.667 93.8862,16.1572 C93.5766,16.6474 93.2412,17.086 92.8284,17.5246 C92.4156,17.9374 91.9512,18.2986 91.4352,18.5566 C90.945,18.8662 90.4032,19.0726 89.8356,19.2274 C89.268,19.3822 88.6488,19.4854 88.0296,19.4854 L82.4568,19.5112 Z M101.3682,14.0416 L104.2578,14.0416 L103.0968,11.2294 C103.0452,11.1004 102.9936,10.9714 102.9678,10.8682 C102.942,10.7392 102.9162,10.636 102.8904,10.5586 C102.8646,10.4554 102.8388,10.3522 102.8388,10.2748 C102.8388,10.378 102.813,10.4554 102.7872,10.5844 C102.7614,10.6876 102.7356,10.7908 102.7098,10.894 C102.684,11.023 102.6324,11.1262 102.5808,11.2294 L101.3682,14.0416 Z M101.4972,6.0436 L104.1546,6.0436 L110.037,19.5112 L108.0504,19.5112 C107.844,19.5112 107.6634,19.4854 107.457,19.4338 C107.2506,19.3822 107.0958,19.3048 106.9152,19.2016 C106.7346,19.0984 106.6056,18.9694 106.4766,18.8404 C106.3476,18.6856 106.2186,18.5308 106.167,18.3502 L105.4962,16.8538 L100.1556,16.8538 L99.5106,18.3502 C99.4332,18.5308 99.33,18.6598 99.201,18.8146 C99.072,18.9694 98.8914,19.0984 98.7624,19.1758 C98.5818,19.279 98.427,19.3822 98.2206,19.4338 C98.0142,19.4854 97.8336,19.537 97.6272,19.537 L95.6406,19.537 L101.4972,6.0436 Z M119.9442,12.2614 C119.8668,12.3646 119.8152,12.4678 119.7894,12.571 C119.7636,12.6226 119.7636,12.6742 119.7636,12.7258 C119.7636,12.7774 119.7894,12.829 119.7894,12.8806 C119.8152,12.9322 119.8152,12.9838 119.841,13.0354 C119.8668,13.087 119.8926,13.1386 119.9184,13.1902 C120.2796,13.6804 120.6666,14.1964 121.0794,14.764 C121.4664,15.3058 121.905,15.8734 122.3178,16.4152 C122.7306,16.957 123.1434,17.4988 123.5304,18.0406 C123.9174,18.5824 124.3044,19.0726 124.6398,19.5628 L122.1372,19.5628 C121.6728,19.5628 121.26,19.4596 120.9246,19.279 C120.5892,19.0726 120.2796,18.8404 120.0474,18.505 L117.906,15.5638 C117.8544,15.4864 117.8028,15.409 117.777,15.3316 C117.7512,15.2542 117.7254,15.1768 117.6996,15.1252 C117.6738,15.0478 117.648,14.9962 117.6222,14.9188 C117.5964,14.9962 117.5706,15.0478 117.5448,15.1252 C117.519,15.1768 117.4932,15.2542 117.4674,15.3316 C117.4416,15.409 117.39,15.4864 117.3384,15.538 L115.197,18.4792 C114.939,18.8146 114.6552,19.0726 114.294,19.279 C113.9586,19.4596 113.5458,19.5628 113.0814,19.5628 L110.553,19.5628 L115.2228,13.216 C115.3002,13.1128 115.3518,13.0096 115.3776,12.9322 C115.4034,12.8548 115.4034,12.8032 115.4034,12.7516 L115.4034,12.7 C115.4034,12.5968 115.3776,12.5194 115.3518,12.442 C115.3002,12.3646 115.2744,12.2872 115.2228,12.2098 L110.6562,6.0436 L113.1846,6.0436 C113.6232,6.0436 114.0618,6.1468 114.3972,6.3274 C114.7584,6.508 115.0422,6.766 115.2744,7.1014 L117.3384,9.8878 C117.39,9.9652 117.4158,10.0168 117.4674,10.0942 C117.4932,10.1716 117.519,10.2232 117.5448,10.2748 C117.5706,10.3522 117.5964,10.4038 117.6222,10.4812 C117.648,10.4296 117.648,10.378 117.6738,10.3006 C117.6996,10.249 117.7254,10.1716 117.7512,10.12 C117.777,10.0426 117.8286,9.9652 117.8802,9.9136 L119.9184,7.153 C120.3828,6.4306 121.0794,6.0952 122.034,6.0952 L124.5624,6.0952 L119.9442,12.2614 Z M42.1572,12.7774 C42.1572,13.2934 42.2604,13.7836 42.4668,14.248 C42.6732,14.7124 42.957,15.1252 43.3182,15.4606 C43.6794,15.796 44.0922,16.0798 44.5308,16.2862 C44.9952,16.4926 45.4854,16.5958 46.0272,16.5958 C46.4142,16.5958 46.8012,16.5184 47.1624,16.4152 C47.4978,16.2862 47.859,16.1056 48.1428,15.925 C48.4524,15.6928 48.8652,15.5896 49.278,15.5896 C49.5876,15.5896 49.8714,15.6412 50.1294,15.7444 C50.3616,15.8476 50.568,16.0024 50.7744,16.183 L51.5742,16.9828 C51.1872,17.3956 50.7744,17.7826 50.3358,18.0922 C49.8972,18.4018 49.4328,18.7114 48.9684,18.9436 C48.504,19.1758 48.0396,19.3564 47.5236,19.4854 C47.0076,19.6144 46.5432,19.6918 46.0272,19.6918 C45.3822,19.6918 44.7888,19.6144 44.1954,19.4338 C43.602,19.2532 43.0602,19.0468 42.5442,18.7372 C42.0282,18.4276 41.5638,18.0922 41.1252,17.6794 C40.7124,17.2666 40.3254,16.7764 40.0416,16.2862 C39.732,15.7702 39.4998,15.2284 39.345,14.6608 C39.1644,14.0674 39.087,13.474 39.087,12.829 C39.087,12.184 39.1644,11.5906 39.345,10.9972 C39.5256,10.4038 39.732,9.862 40.0416,9.3718 C40.3512,8.8816 40.7124,8.4172 41.1252,7.9786 C41.538,7.5658 42.0282,7.2046 42.5442,6.9208 C43.0602,6.6112 43.602,6.4048 44.1954,6.2242 C44.7888,6.0436 45.3822,5.9662 46.0272,5.9662 C46.5174,5.9662 47.0076,6.0436 47.5236,6.1726 C48.0138,6.3016 48.4782,6.4822 48.9684,6.7144 C49.4328,6.9466 49.8972,7.2304 50.3358,7.5658 C50.7744,7.8754 51.1872,8.2624 51.5742,8.6752 L50.7744,9.475 C50.568,9.6814 50.3874,9.8104 50.1294,9.9136 C49.8714,10.0168 49.6134,10.0942 49.3038,10.0942 C48.891,10.0942 48.504,9.9652 48.1686,9.7588 C47.859,9.5524 47.5236,9.3976 47.1882,9.2686 C46.8528,9.1396 46.4658,9.088 46.0788,9.088 C45.5628,9.088 45.0726,9.1912 44.5824,9.3976 C44.118,9.604 43.7052,9.862 43.3698,10.2232 C43.0344,10.5586 42.7506,10.9714 42.5184,11.4358 C42.2346,11.7712 42.1572,12.2614 42.1572,12.7774 Z" id="path4_1_"></path></g></g></g></g></g></svg> 