<?xml version="1.0" encoding="UTF-8"?> <svg xmlns="http://www.w3.org/2000/svg" xmlns:xlink="http://www.w3.org/1999/xlink" width="132px" height="25px" viewBox="0 0 132 25" version="1.1"><!-- Generator: Sketch 64 (93537) - https://sketch.com --><title>classtag-logo</title><desc>Created with Sketch.</desc><g id="Pages" stroke="none" stroke-width="1" fill="none" fill-rule="evenodd"><g id="Together---About" transform="translate(-662.000000, -5955.000000)" fill="#121214" fill-rule="nonzero"><g id="Group-14" transform="translate(132.500000, 5826.625000)"><g id="Group" transform="translate(529.400000, 129.200000)"><g id="classtag-logo" transform="translate(0.188688, 0.000000)"><path d="M39.3701837,13.4833622 C39.1626856,14.4791074 38.6752699,15.2570204 37.8973568,15.8481852 C37.1194438,16.4394319 36.1652802,16.7401812 35.065868,16.7401812 C33.5515414,16.7401812 32.3899618,16.3045171 31.4979657,15.4021871 C30.6267194,14.5101911 30.1807214,13.28628 30.1807214,11.7616195 C30.1807214,10.236959 30.6163855,9.04413161 31.5082996,8.1210436 C32.4002957,7.19793923 33.5412075,6.7519412 34.9932846,6.7519412 C36.0719471,6.7519412 36.9846109,7.00087337 37.7002746,7.49872957 C38.4263542,7.99658572 38.9137698,8.70188268 39.2041852,9.64571228 L39.2871845,9.92579379 L41.8800914,9.92579379 L41.8075081,9.45904594 C41.5690082,7.92397778 40.811845,6.6689665 39.5568501,5.71474561 C38.322605,4.77089137 36.8082785,4.29377682 35.065868,4.29377682 C32.8566276,4.29377682 31.0519677,4.98869883 29.6828898,6.35780946 C28.313812,7.72691191 27.6188982,9.54204522 27.6188982,11.7512856 C27.6188982,13.9604439 28.313812,15.7651859 29.6828898,17.1446797 C31.0519677,18.5241734 32.8566276,19.2190872 35.065868,19.2190872 C36.8705279,19.2190872 38.4263542,18.69009 39.6916829,17.6632611 C40.9674275,16.6156824 41.7245908,15.2570204 41.9215911,13.5974452 L41.9735066,13.1514471 L39.4323512,13.1514471 L39.3701837,13.4833622 Z" id="Path"></path><polygon id="Path" points="46.2468207 0 43.736749 0 43.736749 18.7629193 46.2468207 18.7629193"></polygon><path d="M62.7480919,16.314769 C62.644343,16.3458527 62.5510098,16.3770184 62.4472604,16.3873524 C62.3435934,16.4081022 62.2398445,16.4081022 62.1360956,16.4081022 C61.9909287,16.4081022 61.9286792,16.3770184 61.9079293,16.3562687 C61.8975954,16.3355188 61.8145961,16.1799362 61.8145961,15.4850224 L61.8145961,9.65596415 C61.8145961,8.70171862 61.7523466,7.99642171 61.6279301,7.51930714 C61.493097,7.03182588 61.2752649,6.58582784 60.9745158,6.20206281 C60.4766841,5.57974878 59.8025202,5.13375074 58.9623576,4.85371023 C58.1533607,4.59440312 57.0850322,4.45957031 55.7989539,4.45957031 C53.755712,4.45957031 52.158468,4.87445182 51.0590558,5.69383995 C49.9285597,6.53396967 49.3062296,7.79935584 49.2024803,9.45888192 L49.1713965,9.88413013 L51.6813863,9.88413013 L51.7021363,9.51071545 C51.7539695,8.61871938 52.1169686,7.96530518 52.7911324,7.52968203 C53.4964623,7.0629424 54.5854585,6.83476001 56.0063699,6.83476001 C57.1265321,6.83476001 57.9666947,7.00070935 58.5267753,7.3429911 C59.0246071,7.64377325 59.2631068,8.05865476 59.2631068,8.64988509 C59.2631068,9.58329879 57.7073627,9.96712937 56.4005345,10.122712 L55.0314564,10.2886285 C53.4964623,10.5064606 52.4281338,10.6931269 51.7850533,10.8798753 C51.1213052,11.0665416 50.5715584,11.3154574 50.1774755,11.6162888 C49.6692282,12.0000373 49.2751458,12.4563693 49.0158138,12.9853666 C48.7564823,13.503948 48.6320653,14.0951947 48.6320653,14.738193 C48.6320653,16.1281027 49.1195632,17.217099 50.0841423,17.9742623 C51.0175563,18.7210917 52.3451345,19.0945063 54.0253774,19.0945063 C55.332206,19.0945063 56.4731178,18.8974241 57.4066136,18.5032596 C58.1222769,18.2025103 58.786025,17.7668461 59.3876056,17.2067651 C59.491355,17.6423472 59.6469376,17.9846782 59.8543535,18.233594 C60.1966026,18.6380924 60.7359337,18.8455085 61.4308475,18.8455085 C61.6694296,18.8455085 61.9183454,18.8247587 62.1880107,18.7833411 C62.4472604,18.7418415 62.7065924,18.679592 62.9970077,18.5862588 L63.287423,18.5032596 L63.2666735,16.1591864 L62.7480919,16.314769 Z M51.1628051,14.7796926 C51.1628051,14.2196116 51.3494711,13.835863 51.7436357,13.5661974 C52.0547192,13.3587812 52.9052156,13.0268662 55.1870391,12.6637854 C56.6287004,12.4460354 57.6866128,12.259287 58.3296933,12.1037044 C58.6926918,12.0207871 59.0038571,11.927372 59.2631068,11.8340388 L59.2631068,13.0164503 C59.2631068,14.1055286 58.8171911,14.966441 57.9044448,15.6613548 C56.9606156,16.3666025 55.7159546,16.7192674 54.18096,16.7192674 C53.2267965,16.7192674 52.4592172,16.5326011 51.919886,16.1488525 C51.411721,15.8065215 51.1628051,15.3501896 51.1628051,14.7796926 Z" id="Shape"></path><path d="M73.0356541,10.6312055 L69.6440846,10.1126242 C68.2853403,9.91554192 67.6941759,9.65621022 67.4348439,9.46954388 C67.1133448,9.2413779 66.9577621,8.93021268 66.9577621,8.49454853 C66.9577621,7.95521732 67.2170941,7.56107741 67.7667591,7.23954548 C68.3786735,6.88689702 69.2499199,6.71057275 70.3804978,6.71057275 C71.6561604,6.71057275 72.64149,6.91801355 73.3156538,7.32252012 C73.9587343,7.70628511 74.3217329,8.26638254 74.435816,9.05462955 L74.4877316,9.39696054 L76.9665554,9.39696054 L76.9562215,8.99238009 C76.9250559,7.52996088 76.333891,6.36829923 75.1826454,5.53853616 C74.072817,4.73989787 72.5378229,4.32501636 70.618998,4.32501636 C68.7210049,4.32501636 67.206678,4.69840645 66.0969319,5.43481993 C64.9352702,6.20234989 64.3544396,7.270662 64.3544396,8.59829759 C64.3544396,9.77029317 64.7381881,10.6830391 65.4849356,11.3261194 C66.211015,11.9484499 67.3311768,12.3632821 68.9284208,12.6018641 L72.7659888,13.172361 C73.5542358,13.286444 74.1246508,13.4835262 74.4462317,13.7531918 C74.736647,13.9916917 74.8714801,14.3132729 74.8714801,14.748855 C74.8714801,15.4023512 74.5706487,15.8586831 73.9276505,16.211348 C73.2223206,16.5950966 72.1436583,16.7921788 70.7330807,16.7921788 C69.4159187,16.7921788 68.3994235,16.5640129 67.7045097,16.1075989 C67.0407615,15.6720168 66.657013,15.0392704 66.5532641,14.17844 L66.5117642,13.8257752 L63.9810249,13.8257752 L64.0121905,14.2510234 C64.1262737,15.8483492 64.7693537,17.0929281 65.9205997,17.9641744 C67.0510953,18.8146708 68.6069217,19.250335 70.5567481,19.250335 C72.7555727,19.250335 74.4669817,18.8561705 75.6389772,18.0886733 C76.8628883,17.2796765 77.4851365,16.097265 77.4851365,14.5725225 C77.4851365,13.4316107 77.1118042,12.5292807 76.3857247,11.8966163 C75.670061,11.2742858 74.5810644,10.8593715 73.0356541,10.6312055 Z" id="Path"></path><path d="M90.4818214,11.8862004 C89.7764915,11.2742858 88.6774897,10.8697875 87.1323255,10.6312055 L83.7401812,10.1126242 C82.3820116,9.91554192 81.7905189,9.65621022 81.531187,9.46954388 C81.2096879,9.2413779 81.0541052,8.93021268 81.0541052,8.49454853 C81.0541052,7.95521732 81.3134372,7.56107741 81.8631022,7.23954548 C82.4746884,6.88689702 83.3465089,6.71057275 84.4766768,6.71057275 C85.7528317,6.71057275 86.7378326,6.91801355 87.4119969,7.32252012 C88.0549951,7.70628511 88.4183219,8.26638254 88.5323228,9.05462955 L88.5839924,9.39696054 L91.0624884,9.39696054 L91.0526464,8.99238009 C91.0214808,7.52996088 90.4301518,6.36829923 89.2786603,5.53853616 C88.168996,4.73989787 86.6344938,4.32501636 84.7153406,4.32501636 C82.8175116,4.32501636 81.3030211,4.69840645 80.193275,5.43481993 C79.0316133,6.20234989 78.4507822,7.270662 78.4507822,8.59829759 C78.4507822,9.77029317 78.8345312,10.6830391 79.5812783,11.3261194 C80.3073581,11.9484499 81.4275199,12.3632821 83.0250098,12.6018641 L86.8624955,13.172361 C87.6506607,13.286444 88.2206656,13.4835262 88.5421647,13.7531918 C88.8333183,13.9916917 88.9678228,14.3132729 88.9678228,14.748855 C88.9678228,15.4023512 88.6668277,15.8586831 88.0238295,16.211348 C87.3184996,16.5950966 86.2400013,16.7921788 84.8293415,16.7921788 C83.5121795,16.7921788 82.4960125,16.5640129 81.8008528,16.1075989 C81.1371046,15.6720168 80.7533561,15.0392704 80.6496067,14.17844 L80.6081073,13.8257752 L78.0773675,13.8257752 L78.1085336,14.2510234 C78.2226163,15.8483492 78.8656968,17.0929281 80.0169424,17.9641744 C81.1474384,18.8146708 82.7035107,19.250335 84.6530094,19.250335 C86.8518339,19.250335 88.5634884,18.8561705 89.7354844,18.0886733 C90.9591491,17.2796765 91.5816438,16.097265 91.5816438,14.5725225 C91.5709817,13.4108608 91.208475,12.5085309 90.4818214,11.8862004 Z" id="Path"></path><path d="M96.611629,0.922669719 L94.0708018,0.922669719 L94.0708018,4.78105305 L91.8408116,4.78105305 L91.8408116,7.02140994 L94.0708018,7.02140994 L94.0708018,15.080442 C94.0708018,16.4702696 94.2881415,17.4349311 94.7343036,18.0365117 C95.2009697,18.6587602 95.9792929,18.9803413 97.0266255,18.9803413 C97.3579661,18.9803413 97.7106313,18.9595915 98.0846201,18.907758 C98.4471268,18.8558424 98.8416192,18.7832591 99.2566156,18.67951 L99.5674527,18.6069267 L99.5674527,16.2836033 L99.069621,16.4081022 C98.7997915,16.4806855 98.5512857,16.5221852 98.3437875,16.5532689 C98.1362893,16.5844346 97.9492951,16.5947685 97.7729625,16.5947685 C97.1299643,16.5947685 96.9019625,16.4599357 96.8191272,16.3873524 C96.7986232,16.3666025 96.600967,16.1280207 96.600967,14.8626099 L96.600967,7.02140994 L99.5879562,7.02140994 L99.5879562,4.78105305 L96.600967,4.78105305 L96.600967,0.922669719 L96.611629,0.922669719 Z" id="Path"></path><path d="M114.690214,16.314769 C114.586055,16.3458527 114.492558,16.3770184 114.389219,16.3873524 C114.28506,16.4081022 114.181721,16.4081022 114.077562,16.4081022 C113.932395,16.4081022 113.870884,16.3770184 113.84956,16.3562687 C113.839718,16.3355188 113.756062,16.1799362 113.756062,15.4850224 L113.756062,9.65596415 C113.756062,8.70171862 113.694551,7.99642171 113.569888,7.51930714 C113.434563,7.03182588 113.217224,6.58582784 112.916228,6.20206281 C112.418396,5.57974878 111.744233,5.13375074 110.904398,4.85371023 C110.094909,4.59440312 109.027073,4.45957031 107.741076,4.45957031 C105.69726,4.45957031 104.100426,4.87445182 103.000604,5.69383995 C101.870436,6.53396967 101.247942,7.79935584 101.144603,9.45888192 L101.113437,9.88413013 L103.623099,9.88413013 L103.643603,9.51071545 C103.696092,8.61871938 104.058599,7.96530518 104.732763,7.52968203 C105.438092,7.0629424 106.527253,6.83476001 107.948575,6.83476001 C109.06808,6.83476001 109.908735,7.00070935 110.468898,7.3429911 C110.966729,7.64377325 111.204573,8.05865476 111.204573,8.64988509 C111.204573,9.58329879 109.649567,9.96712937 108.342247,10.122712 L106.973415,10.2886285 C105.438092,10.5064606 104.370256,10.6931269 103.727258,10.8798753 C103.062936,11.0665416 102.513434,11.3154574 102.118942,11.6162888 C101.611269,12.0000373 101.216776,12.4563693 100.957608,12.9853666 C100.698441,13.5143639 100.573778,14.0951947 100.573778,14.738193 C100.573778,16.1281027 101.060947,17.217099 102.026265,17.9742623 C102.959597,18.7210917 104.286601,19.0945063 105.96709,19.0945063 C107.27441,19.0945063 108.41524,18.8974241 109.348572,18.5032596 C110.063743,18.2025103 110.728066,17.7668461 111.329236,17.2067651 C111.433396,17.6423472 111.588404,17.9846782 111.795902,18.233594 C112.138725,18.6380924 112.677564,18.8455085 113.373052,18.8455085 C113.610896,18.8455085 113.860222,18.8247587 114.130051,18.7833411 C114.389219,18.7418415 114.648387,18.679592 114.93872,18.5862588 L115.229054,18.5032596 L115.20855,16.1591864 L114.690214,16.314769 Z M103.114605,14.7796926 C103.114605,14.2196116 103.3016,13.835863 103.696092,13.5661974 C104.006929,13.3587812 104.857426,13.0268662 107.139085,12.6637854 C108.580911,12.4460354 109.638905,12.259287 110.281904,12.1037044 C110.64523,12.0207871 110.956067,11.927372 111.215235,11.8340388 L111.215235,13.0164503 C111.215235,14.1055286 110.769073,14.966441 109.856245,15.6613548 C108.913072,16.3666025 107.668083,16.7192674 106.13276,16.7192674 C105.178925,16.7192674 104.411264,16.5326011 103.872425,16.1488525 C103.353269,15.8065215 103.114605,15.3501896 103.114605,14.7796926 Z" id="Shape"></path><path d="M128.47367,4.78110224 L128.47367,6.40951179 C127.934011,5.88053911 127.353344,5.45528267 126.730849,5.14412563 C125.818021,4.68775269 124.770689,4.45957031 123.619197,4.45957031 C121.440876,4.45957031 119.657048,5.14412563 118.30872,6.48211155 C116.95055,7.82009748 116.265724,9.60404862 116.265724,11.7718714 C116.265724,13.9396121 116.95055,15.7131883 118.30872,17.0615984 C119.66771,18.4099264 121.451538,19.0945063 123.629859,19.0945063 C124.801854,19.0945063 125.849187,18.8662583 126.741511,18.4202603 C127.353344,18.109095 127.934011,17.6838468 128.483512,17.1341817 L128.483512,17.5386801 C128.483512,18.8455085 128.130847,19.7686703 127.436179,20.3080016 C126.710346,20.8680825 125.434191,21.1481641 123.650362,21.1481641 C122.457863,21.1481641 121.524532,20.9718317 120.891375,20.6087508 C120.300046,20.2769178 119.958043,19.7894201 119.844042,19.12559 L119.792373,18.793675 L117.230222,18.793675 L117.27205,19.2293391 C117.395892,20.5776671 118.049552,21.6355797 119.221548,22.392743 C120.352536,23.1188226 121.866534,23.4922373 123.723356,23.4922373 C124.905193,23.4922373 125.97385,23.3574045 126.89652,23.0980728 C127.829851,22.8387411 128.650002,22.4239088 129.313504,21.8845775 C129.925337,21.3970799 130.360837,20.816249 130.630667,20.1627528 C130.889834,19.5197546 131.014497,18.6070087 131.014497,17.3726816 L131.014497,4.78110224 L128.47367,4.78110224 Z M128.47367,11.7614554 C128.47367,13.2550322 128.03735,14.4477776 127.16635,15.3190238 C126.284687,16.200686 125.133196,16.6259342 123.6397,16.6259342 C122.156868,16.6259342 121.016038,16.200686 120.134376,15.30869 C119.252714,14.4271098 118.827875,13.2653661 118.827875,11.7511216 C118.827875,10.2471289 119.252714,9.09588312 120.134376,8.20388705 C121.016038,7.31187457 122.16753,6.88661818 123.6397,6.88661818 C125.133196,6.88661818 126.295349,7.31187457 127.16635,8.20388705 C128.03735,9.08546723 128.47367,10.2782946 128.47367,11.7614554 Z" id="Shape"></path><path d="M21.7690081,19.2087533 C22.1527567,20.0799996 21.7585922,21.0964946 20.8873459,21.4802432 C20.0161817,21.8639917 18.9996867,21.4698272 18.6159381,20.598581 C18.2321896,19.7273347 18.6263541,18.7109218 19.4975183,18.3271732 C20.3791804,17.9433426 21.3955934,18.3375071 21.7690081,19.2087533 Z" id="Path"></path><path d="M3.36948123,17.7259206 C4.30294413,17.8919191 4.9356249,18.7839152 4.76967556,19.7174109 C4.60372627,20.6508246 3.71175479,21.283571 2.77829188,21.1175725 C1.84482897,20.9516559 1.2121482,20.0596599 1.37809752,19.1261642 C1.53367194,18.1926684 2.42564341,17.5703379 3.36948123,17.7259206 Z" id="Path"></path><path d="M20.4805511,0.518220522 C21.4139648,0.684172307 22.0466292,1.57616593 21.8807127,2.50964524 C21.7147962,3.44312454 20.8228,4.07581352 19.8893044,3.9098642 C18.9558907,3.74391487 18.3231443,2.85191879 18.4891428,1.91843949 C18.6550593,0.984960179 19.5470554,0.352267918 20.4805511,0.518220522 Z" id="Path"></path><path d="M19.1129496,10.7240466 L19.1129496,10.7137127 C18.946951,10.1847154 18.4491194,9.80096683 17.8579547,9.80096683 C17.1318751,9.80096683 16.5407104,10.3921316 16.5407104,11.1182111 C16.5407104,11.2530439 16.5614602,11.3878767 16.6029599,11.5123756 C17.1318751,13.0888696 16.8622096,14.8936116 15.7420475,16.2731054 C14.5804678,17.7147665 12.7757258,18.337097 11.0747329,18.0778473 C11.0228994,18.0674314 10.96065,18.0674314 10.9088164,18.0674314 C10.1828189,18.0674314 9.59157214,18.6586782 9.59157214,19.3846757 C9.59157214,20.0380899 10.0790698,20.587837 10.7014003,20.6811702 C13.2943072,21.0649187 16.0117131,20.1210892 17.7853713,17.9325986 C19.4862822,15.8271073 19.8907806,13.1096194 19.1129496,10.7240466 Z" id="Path"></path><path d="M12.4545548,15.4643546 C12.4545548,15.4539387 12.4649707,15.4539387 12.4545548,15.4643546 C12.8902189,15.1013558 13.0561354,14.4997751 12.8383033,13.950028 C12.5686378,13.275864 11.8011406,12.9542829 11.1269766,13.2240305 C11.0024777,13.275864 10.8883947,13.3484474 10.7847276,13.4210307 C9.51931688,14.4997751 7.75613192,14.9353573 6.04478055,14.4167759 C4.27119609,13.8774447 3.01620944,12.4461174 2.61171104,10.7657923 C2.60133613,10.7139587 2.58059451,10.6621252 2.5598529,10.5998758 C2.29017909,9.92571179 1.52266551,9.60413063 0.848499868,9.87387826 C0.236562344,10.122794 -0.0849638594,10.7762082 0.0706135925,11.3985387 C0.692922171,13.9396941 2.59096122,16.1074349 5.28763365,16.9267656 C7.8702231,17.7254285 10.5358118,17.0823482 12.4545548,15.4643546 Z" id="Path"></path><path d="M4.43609561,10.8175438 L4.43609561,10.8278777 C4.60204495,11.356875 5.09989292,11.7406236 5.69108225,11.7406236 C6.41711262,11.7406236 7.00830199,11.1493769 7.00830199,10.4233793 C7.00830199,10.2885465 6.98756035,10.1537137 6.94606893,10.0292148 C6.41711262,8.45272085 6.68677824,6.64797066 7.80693207,5.26849332 C8.97891947,3.83715782 10.7732455,3.21483555 12.4846543,3.47413445 C12.5364879,3.48450936 12.5987373,3.48450936 12.6505708,3.48450936 C13.3765684,3.48450936 13.9678151,2.89330361 13.9678151,2.16726506 C13.9678151,1.51382626 13.4803175,0.964111942 12.857987,0.87076237 C10.26508,0.486999839 7.54764138,1.4308516 5.77405694,3.61934216 C4.07308045,5.71449135 3.65820713,8.43197103 4.43609561,10.8175438 Z" id="Path"></path><path d="M11.0960569,6.07786737 C11.0960569,6.0882423 11.085641,6.0882423 11.0960569,6.07786737 C10.6603928,6.44089076 10.4944763,7.0424632 10.7123083,7.59217752 C10.9819739,8.26638254 11.7494711,8.5878817 12.4236351,8.31821607 C12.548134,8.26638254 12.662217,8.19375819 12.7658841,8.12115025 C14.0312948,7.0424632 15.7944551,6.6068401 17.5058639,7.12543789 C19.2794402,7.66478551 20.534353,9.0961292 20.9388514,10.7763722 C20.9492673,10.8282058 20.9700171,10.8801213 20.990767,10.9423708 C21.2604325,11.6165348 22.0279297,11.9380339 22.7020937,11.6683683 C23.3140083,11.4194525 23.6355895,10.7660383 23.4800068,10.1437079 C22.8576764,7.60255246 20.9596013,5.43480351 18.2629452,4.61541538 C15.6803721,3.81676888 13.0147998,4.45983276 11.0960569,6.07786737 Z" id="Path"></path><path d="M3.64820129,0.456071952 C4.58166422,0.622024559 5.214345,1.51401489 5.04839566,2.4474942 C4.88244632,3.38097351 3.99047485,4.01367069 3.05701195,3.84771317 C2.12354904,3.68176384 1.49086827,2.78977596 1.65681759,1.85628846 C1.82276692,0.912442437 2.71473839,0.290120166 3.64820129,0.456071952 Z" id="Path"></path></g></g></g></g></g></svg> 