<?xml version="1.0" encoding="UTF-8"?> <svg xmlns="http://www.w3.org/2000/svg" xmlns:xlink="http://www.w3.org/1999/xlink" width="153px" height="22px" viewBox="0 0 153 22" version="1.1"><!-- Generator: Sketch 64 (93537) - https://sketch.com --><title>conductor-logo</title><desc>Created with Sketch.</desc><g id="Pages" stroke="none" stroke-width="1" fill="none" fill-rule="evenodd"><g id="Together---About" transform="translate(-910.000000, -5957.000000)" fill="#121214" fill-rule="nonzero"><g id="Group-14" transform="translate(132.500000, 5826.625000)"><g id="Group-2" transform="translate(777.400000, 130.400000)"><g id="Group-3"><g id="conductor-logo" transform="translate(0.102000, 0.000000)"><g id="Group" transform="translate(26.199714, 0.370442)"><path d="M11.1190714,8.83385716 C11.0416501,8.93857429 10.9518292,9.03352776 10.8515714,9.11664284 C10.7427289,9.18740939 10.614393,9.22216701 10.4847143,9.216 C10.3065211,9.20821579 10.1342194,9.14989831 9.98792856,9.04785716 C9.81214284,8.93321428 9.60578572,8.81092856 9.36121428,8.67335716 C9.08610602,8.52092004 8.79687338,8.39550059 8.49757144,8.29885716 C8.08638628,8.17529228 7.65803412,8.11852274 7.22885716,8.13071428 C6.63399088,8.11661108 6.04359689,8.23677974 5.50157144,8.48228572 C5.01284881,8.71270919 4.58781451,9.05903344 4.26342856,9.49114284 C3.90200035,9.96281669 3.64181114,10.5040103 3.49914286,11.0808572 C3.32602631,11.7703346 3.24380557,12.4794885 3.25457143,13.1902857 C3.24141419,13.9177468 3.33147734,14.6433986 3.52207143,15.3455714 C3.67350496,15.921573 3.93285342,16.4636113 4.28635716,16.9429286 C4.61009028,17.3607764 5.02597369,17.6981913 5.50157144,17.9288572 C6.00274022,18.1572836 6.54820166,18.2721176 7.09892856,18.2651428 C7.58441808,18.2819265 8.06886109,18.2093896 8.52814284,18.0511428 C8.8488066,17.9357864 9.15422304,17.781795 9.43764284,17.5925714 C9.68221428,17.4167857 9.89621428,17.2639286 10.072,17.1263572 C10.223151,16.9902344 10.4188824,16.9141167 10.6222857,16.9123572 C10.8473785,16.9008054 11.0620428,17.0081376 11.1878572,17.1951428 L12.0515,18.311 C11.7160671,18.7201082 11.3250377,19.0802669 10.8897857,19.381 C10.4735608,19.6698743 10.0246038,19.9084629 9.55228572,20.0917857 C9.07863006,20.2759541 8.58671601,20.4091808 8.08485716,20.4892143 C7.57891258,20.5655594 7.06795797,20.603881 6.55628572,20.6038572 C5.69775808,20.6135787 4.84661528,20.4443913 4.05707143,20.1070714 C3.28316691,19.7743139 2.58983807,19.2790791 2.02407143,18.6549286 C1.42221711,17.973234 0.957686693,17.1817157 0.656,16.3238572 C0.310829278,15.3158245 0.142752878,14.2556503 0.159214286,13.1902857 C0.147571893,12.1863882 0.299884273,11.1873222 0.610142856,10.2325 C0.887043401,9.37035311 1.33404913,8.57249982 1.92471428,7.88614284 C2.5231434,7.22561831 3.25874667,6.70391383 4.08,6.35757144 C5.0177135,5.97233883 6.02417014,5.78249044 7.03778572,5.79964284 C7.9825581,5.7830049 8.92097438,5.95717081 9.79685716,6.31171428 C10.5892869,6.64840857 11.3084118,7.13647888 11.9139286,7.74857144 L11.1190714,8.83385716 Z" id="Path"></path><path d="M20.4357143,5.792 C21.4233436,5.77577675 22.4046583,5.95230954 23.3247143,6.31171428 C24.1537764,6.63932209 24.9020835,7.14253906 25.5182143,7.78678572 C26.1447019,8.4570154 26.623762,9.25110961 26.9245,10.1178572 C27.2656008,11.1005185 27.4336868,12.1348946 27.4212857,13.175 C27.4336868,14.2151054 27.2656008,15.2494815 26.9245,16.2321428 C26.623762,17.0988904 26.1447019,17.8929846 25.5182143,18.5632143 C24.9070302,19.2170017 24.1576526,19.7261607 23.3247143,20.0535714 C21.4584621,20.7467951 19.4053236,20.7467951 17.5390714,20.0535714 C16.7049384,19.7242212 15.9534667,19.2154123 15.3379286,18.5632143 C14.7090575,17.8934152 14.2274122,17.0993514 13.924,16.2321428 C13.5854972,15.2490223 13.419999,14.2146584 13.4348572,13.175 C13.419999,12.1353416 13.5854972,11.1009777 13.924,10.1178572 C14.2274122,9.25064857 14.7090575,8.45658479 15.3379286,7.78678572 C15.9581283,7.14383813 16.7086136,6.64090877 17.5390714,6.31171428 C18.4618342,5.95246371 19.445616,5.77595407 20.4357143,5.792 M20.4357143,18.2345714 C21.5606648,18.3172025 22.6518531,17.8290393 23.34,16.9352857 C24.0392279,15.8222003 24.3707671,14.5174331 24.2877143,13.2055714 C24.3703771,11.8889249 24.0389902,10.5794119 23.34,9.46057144 C22.6560899,8.55995325 21.5637067,8.06550608 20.4357143,8.146 C19.3006016,8.06181527 18.1996771,8.55622525 17.5085,9.46057144 C16.8002999,10.5759849 16.4632102,11.8868891 16.5455,13.2055714 C16.4633049,14.5194315 16.800514,15.8254478 17.5085,16.9352857 C18.2039009,17.8327696 19.3036336,18.3209016 20.4357143,18.2345714" id="Shape"></path><path d="M33.1687143,7.91671428 C33.4696261,7.60435791 33.794132,7.31562432 34.1393572,7.05307144 C34.4705023,6.79449837 34.8263439,6.56921736 35.2017143,6.3805 C35.580923,6.17618269 35.9839632,6.01958746 36.4016428,5.91428572 C36.8542632,5.80329929 37.3189917,5.74938053 37.785,5.75378572 C38.4979342,5.74160719 39.205691,5.87691366 39.8638572,6.15121428 C40.4525219,6.40047442 40.9756466,6.78235541 41.3924286,7.26707144 C41.8172818,7.77237432 42.1322318,8.36062792 42.3172143,8.99435716 C42.5263165,9.73222582 42.6216743,10.4976671 42.6,11.2642857 L42.6,20.4357143 L39.5887143,20.4357143 L39.5887143,11.2642857 C39.6450758,10.444255 39.4065432,9.63107581 38.9161428,8.97142856 C38.3886517,8.41792668 37.6368134,8.13633931 36.8755,8.20714284 C36.2195399,8.20186453 35.5728567,8.36222093 34.9953572,8.67335716 C34.3906035,9.00988436 33.8414819,9.43783831 33.3674286,9.94207144 L33.3674286,20.4357143 L30.3714286,20.4357143 L30.3714286,6.01364284 L32.1980714,6.01364284 C32.5578185,6.00316172 32.8761339,6.24508136 32.9623572,6.5945 L33.1687143,7.91671428 Z" id="Path"></path><path d="M58.3672144,0.105714286 L58.3672144,20.4357143 L56.5329284,20.4357143 C56.1731815,20.4461954 55.854866,20.2042758 55.7686428,19.8548572 L55.5011428,18.2880714 C54.9211677,18.972444 54.2252367,19.5493682 53.4452144,19.9924286 C52.6285138,20.439307 51.7085809,20.6633595 50.7778572,20.6420714 C50.0168933,20.6528232 49.2636882,20.4880595 48.5767144,20.1605714 C47.9093417,19.8235084 47.3287169,19.3370393 46.88,18.739 C46.3772785,18.0487322 46.0067221,17.2713412 45.7870716,16.4461428 C45.5196093,15.4157045 45.3910899,14.354137 45.4049284,13.2896428 C45.3930818,12.2824549 45.5374633,11.2795191 45.8329284,10.3165714 C46.0915885,9.45458488 46.5089047,8.64846519 47.0634284,7.93964284 C48.1575676,6.55738705 49.8329864,5.7634702 51.5956428,5.792 C53.0060492,5.73733254 54.3713195,6.29458576 55.3406428,7.32057144 L55.3406428,0.105714286 L58.3672144,0.105714286 Z M55.3100716,9.55228572 C54.9519109,9.05951862 54.4728518,8.66732206 53.9190716,8.4135 C53.3973358,8.19128544 52.835275,8.0793937 52.2682144,8.08485716 C51.1801601,8.03608626 50.1374917,8.52456934 49.4785716,9.39178572 C48.7426093,10.5248002 48.3915068,11.8648849 48.4773572,13.2132143 C48.4613701,13.9839369 48.5383541,14.7537764 48.7066428,15.5060714 C48.8254749,16.0518078 49.0458503,16.570338 49.3562856,17.0346428 C49.6151571,17.4062607 49.9687729,17.7018202 50.3804284,17.8906428 C50.8214396,18.0707761 51.2952484,18.1566865 51.7714284,18.1428572 C52.4690406,18.1606395 53.1584227,17.9889543 53.7662144,17.6460714 C54.3597477,17.2714463 54.8781473,16.7893346 55.2947856,16.2245 L55.3100716,9.55228572 Z" id="Shape"></path><path d="M74.1879284,6.01364284 L74.1879284,20.4357143 L72.3536428,20.4357143 C71.9938955,20.4461954 71.6755804,20.2042758 71.5893572,19.8548572 L71.3677144,18.5173572 C71.0736925,18.8334915 70.7541627,19.1249028 70.4123572,19.3886428 C70.0832582,19.6522682 69.727151,19.8802792 69.35,20.0688572 C68.5473528,20.4659693 67.6621666,20.6676242 66.7667144,20.6573572 C66.0543148,20.6719559 65.3465783,20.5392553 64.6878572,20.2675714 C64.1001387,20.0166443 63.5773671,19.6350211 63.1592856,19.1517143 C62.7289158,18.6316974 62.4113843,18.0278677 62.2268572,17.3785714 C62.014814,16.6565646 61.911773,15.9069416 61.9211428,15.1545 L61.9211428,5.98307144 L64.9782856,5.98307144 L64.9782856,15.1545 C64.9297816,15.9618224 65.1679816,16.7603338 65.6508572,17.4091428 C66.1676372,17.9824651 66.9221995,18.2820292 67.6915,18.2192857 C68.3414462,18.2227431 68.982134,18.0651969 69.5563572,17.7607143 C70.165129,17.4334669 70.7152695,17.0073017 71.1842856,16.4996428 L71.1842856,6.01364284 L74.1879284,6.01364284 Z" id="Path"></path><path d="M88.0444284,8.83385716 C87.967007,8.93857429 87.8771865,9.03352776 87.7769284,9.11664284 C87.6680858,9.18740939 87.53975,9.22216701 87.4100716,9.216 C87.229703,9.20720563 87.0552142,9.1490427 86.9056428,9.04785716 C86.7375,8.93321428 86.5311428,8.81092856 86.2865716,8.67335716 C86.0114631,8.52092004 85.7222305,8.39550059 85.4229284,8.29885716 C85.0117432,8.17529228 84.5833914,8.11852274 84.1542144,8.13071428 C83.5592777,8.11581744 82.9687083,8.23602184 82.4269284,8.48228572 C81.9382059,8.71270919 81.5131715,9.05903344 81.1887856,9.49114284 C80.8273576,9.96281669 80.5671682,10.5040103 80.4245,11.0808572 C80.2487217,11.7699782 80.1639297,12.4791486 80.1722856,13.1902857 C80.1615145,13.9181165 80.2541534,14.6437892 80.4474284,15.3455714 C80.5959906,15.9226225 80.8555914,16.4651888 81.2117144,16.9429286 C81.5354476,17.3607764 81.9513309,17.6981913 82.4269284,17.9288572 C82.9280976,18.1572836 83.4735587,18.2721176 84.0242856,18.2651428 C84.5072823,18.2820335 84.989239,18.2094808 85.4458572,18.0511428 C85.7689018,17.9357284 86.0768413,17.7817586 86.363,17.5925714 C86.6075716,17.4167857 86.8215716,17.2639286 86.9897144,17.1263572 C87.1439455,16.9903185 87.3419982,16.9143531 87.5476428,16.9123572 C87.7727357,16.9008054 87.9874,17.0081376 88.1132144,17.1951428 L88.9768572,18.311 C88.6414242,18.7201082 88.2503948,19.0802669 87.8151428,19.381 C87.3989179,19.6698743 86.9499609,19.9084629 86.4776428,20.0917857 C86.0039872,20.2759541 85.5120731,20.4091808 85.0102144,20.4892143 C84.5042696,20.5655594 83.9933151,20.603881 83.4816428,20.6038572 C82.623115,20.6135787 81.7719724,20.4443913 80.9824284,20.1070714 C80.2085239,19.7743139 79.5151952,19.2790791 78.9494284,18.6549286 C78.3450325,17.9750788 77.8801937,17.1830351 77.5813572,16.3238572 C77.2325158,15.3167401 77.0643362,14.2559149 77.0845716,13.1902857 C77.0729292,12.1863882 77.2252415,11.1873222 77.5355,10.2325 C77.8092882,9.36900101 78.2566278,8.57055139 78.8500716,7.88614284 C79.4462936,7.22652396 80.1792059,6.70487829 80.9977144,6.35757144 C81.9378609,5.97152237 82.9469801,5.78166234 83.9631428,5.79964284 C84.9054383,5.78298435 85.8413609,5.95716999 86.7145716,6.31171428 C87.5092572,6.64840412 88.2308879,7.13641353 88.8392856,7.74857144 L88.0444284,8.83385716 Z" id="Path"></path></g><g id="Group" transform="translate(126.885428, 5.948442)"><path d="M7.15371428,0.214 C8.13892341,0.197000577 9.11788683,0.373577531 10.0350714,0.733714284 C10.8650474,1.05958212 11.6137074,1.56303638 12.2285714,2.20878572 C12.8497956,2.88297917 13.3281583,3.67591725 13.6348572,4.53985716 C13.9733599,5.52297774 14.1388581,6.55734165 14.124,7.597 C14.1388581,8.63665835 13.9733599,9.67102226 13.6348572,10.6541428 C13.3318825,11.5289425 12.8533301,12.3325985 12.2285714,13.0157857 C11.616037,13.6715065 10.8637172,14.1808898 10.0274286,14.5061428 C8.16371078,15.1988347 6.11314638,15.1988347 4.24942857,14.5061428 C3.41255552,14.1777779 2.6583875,13.6689102 2.04064286,13.0157857 C1.41415524,12.345556 0.935095123,11.5514618 0.634357144,10.6847143 C0.293256395,9.70205294 0.125170279,8.66767684 0.137571428,7.62757144 C0.125170279,6.587466 0.293256395,5.55308994 0.634357144,4.57042856 C0.935095123,3.70368105 1.41415524,2.90958685 2.04064286,2.23935714 C2.66244808,1.59477141 3.41579201,1.09167322 4.24942857,0.764285716 C5.17176411,0.403519634 6.15584687,0.22695597 7.14607144,0.244571428 M7.14607144,12.6871428 C8.26889387,12.7699517 9.35787405,12.2814909 10.0427143,11.3878572 C10.7446204,10.2756567 11.0788496,8.97082594 10.9980714,7.65814284 C11.0784571,6.34067906 10.7443816,5.03110336 10.0427143,3.91314286 C9.36213102,3.0126366 8.27194637,2.51788263 7.14607144,2.59857143 C6.00908011,2.51597758 4.90658892,3.00980177 4.21121428,3.91314286 C3.50954693,5.03110336 3.17547151,6.34067906 3.25585714,7.65814284 C3.175079,8.97082594 3.50930819,10.2756567 4.21121428,11.3878572 C4.91077771,12.2843505 6.01209464,12.7719126 7.14607144,12.6871428" id="Shape"></path><path d="M19.8714286,3.103 C20.2552832,2.27531265 20.813161,1.54016524 21.507,0.947714284 C22.1563061,0.428812164 22.9690709,0.157890558 23.7998572,0.183428572 C24.0961202,0.182791274 24.3913289,0.218729721 24.6787857,0.290428572 C24.9484672,0.353957641 25.206412,0.459714993 25.4430714,0.603785716 L25.2290714,2.89664286 C25.2104869,3.02330261 25.1483242,3.13951994 25.0532857,3.22528572 C24.9609544,3.2937851 24.8468686,3.32638101 24.7322857,3.317 C24.5290539,3.31074973 24.3268792,3.28515799 24.1285,3.24057143 C23.8535475,3.19101278 23.5748086,3.1654404 23.2954286,3.16414286 C22.9154302,3.15710994 22.5373222,3.21926468 22.1795714,3.34757143 C21.8560345,3.47002301 21.5580175,3.65142464 21.3006428,3.88257143 C21.0321539,4.13496518 20.8028845,4.42606001 20.6204286,4.74621428 C20.4069679,5.11585173 20.2229697,5.50173683 20.0701428,5.90028572 L20.0701428,14.8577143 L17.013,14.8577143 L17.013,0.435642856 L18.7785,0.435642856 C19.0117434,0.411591416 19.2456866,0.474157617 19.4357857,0.611428572 C19.5824748,0.784127227 19.673112,0.997391217 19.6956428,1.22285714 L19.8714286,3.103 Z" id="Path"></path></g><g id="Group" transform="translate(0.014000, 0.170442)"><path d="M124.945428,18.0600714 C124.875922,17.8924569 124.714118,17.7815911 124.532714,17.7772857 C124.438833,17.7809748 124.348256,17.812943 124.272857,17.869 C124.188786,17.9301428 124.081786,17.9912857 123.9595,18.0677143 C123.819651,18.1429979 123.673966,18.2068949 123.523857,18.2587857 C123.326845,18.3243201 123.119998,18.3553472 122.912428,18.3505 C122.530999,18.3685946 122.160372,18.2209012 121.895928,17.9454286 C121.624432,17.6128411 121.490442,17.1889969 121.521428,16.7607857 L121.521428,8.59821428 L125.511,8.59821428 L125.511,6.41235716 L121.521428,6.41235716 L121.521428,1.68907143 L121.521428,1.68907143 L121.521428,1.52857143 L118.647714,1.52857143 L118.647714,6.40471428 L116.278428,6.40471428 L116.278428,8.59057144 L118.464286,8.59057144 L118.464286,16.9977143 C118.399999,18.0327319 118.745969,19.0514206 119.427286,19.8332143 C120.165295,20.5407527 121.166017,20.9066677 122.186357,20.8420714 C122.857503,20.8448833 123.524258,20.7337575 124.158214,20.5134286 C124.770371,20.306208 125.336294,19.9817111 125.824357,19.5580714 L124.945428,18.0600714 Z" id="Path"></path><path d="M6.54228572,3.27114286 C6.54228572,5.07774518 5.07774518,6.54228572 3.27114286,6.54228572 C1.46454054,6.54228572 0,5.07774518 0,3.27114286 C0,1.46454054 1.46454054,0 3.27114286,0 C5.07774518,0 6.54228572,1.46454054 6.54228572,3.27114286" id="Path"></path><path d="M13.8794286,3.27114286 C13.8794286,5.07774518 12.414888,6.54228572 10.6082857,6.54228572 C8.80168338,6.54228572 7.33714284,5.07774518 7.33714284,3.27114286 C7.33714284,1.46454054 8.80168338,0 10.6082857,0 C11.4758467,0 12.3078747,0.344637276 12.921333,0.958095561 C13.5347913,1.57155385 13.8794286,2.40358183 13.8794286,3.27114286" id="Path"></path><path d="M6.54228572,10.4783572 C6.54228572,12.2849595 5.07774518,13.7495 3.27114286,13.7495 C1.46454054,13.7495 0,12.2849595 0,10.4783572 C0,8.67175482 1.46454054,7.20721428 3.27114286,7.20721428 C4.13870388,7.20721428 4.97073187,7.55185156 5.58419017,8.16530983 C6.19764844,8.77876813 6.54228572,9.61079611 6.54228572,10.4783572" id="Path"></path><path d="M13.8794286,10.4783572 C13.8794286,12.2849595 12.414888,13.7495 10.6082857,13.7495 C8.80168338,13.7495 7.33714284,12.2849595 7.33714284,10.4783572 C7.33714284,8.67175482 8.80168338,7.20721428 10.6082857,7.20721428 C11.4758467,7.20721428 12.3078747,7.55185156 12.921333,8.16530983 C13.5347913,8.77876813 13.8794286,9.61079611 13.8794286,10.4783572" id="Path"></path><path d="M21.2777322,10.7 C21.2777322,12.5066023 19.8131737,13.9711428 18.0065714,13.9711428 C16.1999691,13.9711428 14.7354286,12.5066023 14.7354286,10.7 C14.7354286,8.8933977 16.1999691,7.42883927 18.0065714,7.42883927 C18.8747549,7.42682155 19.7079661,7.77080511 20.3218662,8.3847052 C20.9357663,8.99860528 21.2797499,9.83181655 21.2777322,10.7" id="Path"></path><path d="M13.8794286,17.6779286 C13.8794286,19.4845309 12.414888,20.9490714 10.6082857,20.9490714 C8.80168338,20.9490714 7.33714284,19.4845309 7.33714284,17.6779286 C7.33714284,15.8713263 8.80168338,14.4067857 10.6082857,14.4067857 C11.4758467,14.4067857 12.3078747,14.751423 12.921333,15.3648813 C13.5347913,15.9783396 13.8794286,16.8103676 13.8794286,17.6779286" id="Path"></path><path d="M21.2777322,17.6779286 C21.2777322,19.4845309 19.8131737,20.9490714 18.0065714,20.9490714 C16.1999691,20.9490714 14.7354286,19.4845309 14.7354286,17.6779286 C14.7354286,15.8713263 16.1999691,14.4067678 18.0065714,14.4067678 C18.8747549,14.4047501 19.7079661,14.7487337 20.3218662,15.3626338 C20.9357663,15.9765339 21.2797499,16.8097451 21.2777322,17.6779286" id="Path"></path></g></g></g></g></g></g></g></svg> 