<?xml version="1.0" encoding="UTF-8"?> <svg xmlns="http://www.w3.org/2000/svg" xmlns:xlink="http://www.w3.org/1999/xlink" width="72px" height="29px" viewBox="0 0 72 29" version="1.1"><!-- Generator: Sketch 64 (93537) - https://sketch.com --><title>den-logo</title><desc>Created with Sketch.</desc><g id="Pages" stroke="none" stroke-width="1" fill="none" fill-rule="evenodd"><g id="Together---About" transform="translate(-174.000000, -5953.000000)" fill="#121214" fill-rule="nonzero"><g id="Group-14" transform="translate(132.500000, 5826.625000)"><g id="Group" transform="translate(42.200000, 126.800000)"><g id="den-logo" transform="translate(0.000000, 0.100000)"><path d="M17.5280792,0.0162447365 L16.21731,0.0162447365 C16.1269361,0.0174016407 16.0409185,0.0552756147 15.9790561,0.121167625 C15.9171936,0.187059635 15.8848157,0.275293053 15.8893749,0.365558975 L15.8893749,12.9086496 C14.228339,10.7980684 11.7793852,9.44894702 9.01754582,9.44894702 C4.12594926,9.44894702 0.140725325,13.6800615 0.140725325,18.8809025 C0.140725325,24.0817436 4.12861934,28.3128581 9.02021593,28.3128581 C11.7820553,28.3128581 14.228339,26.9637367 15.8896176,24.8531556 L15.8896176,27.9630769 C15.8850584,28.0533428 15.9174363,28.1415762 15.9792988,28.2074684 C16.0411613,28.2733603 16.1271789,28.3112342 16.2175527,28.3123727 L17.5283219,28.3123727 C17.7254895,28.3135851 17.8889559,28.1599416 17.8999492,27.9630769 L17.8999492,0.364102564 C17.8882068,0.167718617 17.724809,0.0148797749 17.5280792,0.0162447365 Z M9.00589455,26.3044684 C5.22311165,26.3044684 2.14547404,22.9743863 2.14547404,18.8811453 C2.14547404,14.7879043 5.22311165,11.457094 9.00589455,11.457094 C12.7886775,11.457094 15.8660723,14.7871761 15.8660723,18.8804171 C15.8660723,22.9736581 12.7886775,26.3042256 9.00589455,26.3042256 L9.00589455,26.3044684 Z M35.2055014,18.8806598 L36.3648039,18.8806598 C36.5929681,18.8809671 36.8108225,18.7856576 36.9654516,18.6178815 C37.1200806,18.4501053 37.1973356,18.2252141 37.1784518,17.9978325 C36.7611903,13.1776 33.3959117,9.44870425 28.7822467,9.44870425 C23.8906501,9.44870425 19.9110091,13.6800615 19.9110091,18.8809025 C19.9110091,24.0817436 23.8918638,28.3128581 28.7822467,28.3128581 C32.0091664,28.3128581 34.838486,26.4709846 36.3910194,23.7251658 C36.4869351,23.5582006 36.4298657,23.3451124 36.2633407,23.2484342 L35.1285544,22.5930496 C34.9614432,22.4970902 34.7482048,22.5541417 34.6513373,22.7207282 C33.4473715,24.8667487 31.2753783,26.3037402 28.7907424,26.3037402 C25.0079595,26.3037402 21.9385749,22.9736581 21.9385749,18.8804171 L35.2055014,18.8804171 L35.2055014,18.8806598 Z M28.7817612,11.457094 C31.9227527,11.457094 34.1381954,13.7456 34.9486877,16.8715419 L22.1788826,16.8715419 C22.9908313,13.7519111 25.6417407,11.457094 28.7817612,11.457094 Z M47.4075492,9.53560343 C45.0474013,9.50012853 42.7802744,10.4547638 41.1563937,12.1678222 L41.1563937,9.93053331 C41.1555934,9.71256252 40.97895,9.53613587 40.7609783,9.53560343 L39.5407492,9.53560343 C39.3227775,9.53613587 39.1461341,9.71256252 39.1453339,9.93053331 L39.1453339,28.0048273 C39.1460009,28.222893 39.3226834,28.3994669 39.5407492,28.4 L40.7609783,28.4 C40.97895,28.3994674 41.1555934,28.2230408 41.1563937,28.0050701 L41.1563937,17.3958496 C41.1563937,13.9473128 43.9551287,11.5444786 47.4075492,11.5444786 C50.8599697,11.5444786 53.6589475,13.9475556 53.6589475,17.3958496 L53.6589475,28.0050701 C53.6596146,28.2230017 53.8361883,28.3994669 54.0541202,28.4 L55.274592,28.4 C55.4925239,28.3994669 55.6690976,28.2230017 55.6697647,28.0050701 L55.6697647,17.3958496 C55.6697647,12.8377709 51.9707253,9.53584613 47.4075492,9.53584613 L47.4075492,9.53560343 Z" id="Shape"></path><path d="M64.2213202,13.1585527 C62.9590544,13.1661014 61.7907943,12.4923336 61.165286,11.3959248 L57.6342191,5.28701197 C57.0043304,4.19591372 57.0046979,2.85158203 57.635183,1.76082812 C58.2656676,0.670074212 59.4303908,-0.00122858011 60.6902534,-3.36233394e-06 L67.752144,-3.36233394e-06 C69.0119634,-0.00114173215 70.1766071,0.670195367 70.8070326,1.76093337 C71.4374586,2.85167135 71.4378028,4.1959513 70.8079357,5.28701197 L67.2771114,11.3959248 C66.6516832,12.4922951 65.4835128,13.1660648 64.2213202,13.1585527 Z M60.7567628,2.00887386 C60.194328,2.00835439 59.6743882,2.30809161 59.392988,2.79506967 C59.1115888,3.28204775 59.1115303,3.88219783 59.3928346,4.36923077 L62.8571495,10.3633299 C63.1388185,10.8502473 63.658681,11.1500983 64.2211987,11.1500983 C64.7837164,11.1500983 65.3035789,10.8502473 65.5852484,10.3633299 L69.0498059,4.36923077 C69.3310454,3.88221031 69.3309102,3.28210093 69.0494514,2.79520708 C68.7679927,2.30831322 68.2480262,2.00870287 67.6856346,2.00936069 L60.7567628,2.00936069 L60.7567628,2.00887386 Z" id="Shape_15_copy"></path></g></g></g></g></g></svg> 