<?xml version="1.0" encoding="UTF-8"?> <svg xmlns="http://www.w3.org/2000/svg" xmlns:xlink="http://www.w3.org/1999/xlink" width="122px" height="27px" viewBox="0 0 122 27" version="1.1"><!-- Generator: Sketch 64 (93537) - https://sketch.com --><title>edgefolio-logo</title><desc>Created with Sketch.</desc><g id="Pages" stroke="none" stroke-width="1" fill="none" fill-rule="evenodd"><g id="Together---About" transform="translate(-408.000000, -5954.000000)" fill="#121214" fill-rule="nonzero"><g id="Group-14" transform="translate(132.500000, 5826.625000)"><g id="Group-2" transform="translate(275.400000, 128.000000)"><g id="Group-3"><g id="edgefolio-logo" transform="translate(0.144898, 0.000000)"><g id="Group" transform="translate(26.943645, 4.226829)"><path d="M0.0439896238,17.2738908 L0.0439896238,0.0847859521 L10.293572,0.0847859521 L10.293572,3.21483358 L3.58515434,3.21483358 L3.58515434,7.1769784 L8.95188848,7.1769784 L8.95188848,9.9765778 L3.58515434,9.9765778 L3.58515434,14.1997022 L10.645489,14.1997022 L10.645489,17.2738908 L0.0439896238,17.2738908 Z M16.5722797,17.2738908 C13.7789386,17.2738908 11.6132607,15.3856578 11.6132607,11.4631605 L11.6132607,11.2828157 C11.6132607,7.40540455 13.7907471,5.12855261 16.6720674,5.12855261 C18.5196316,5.12855261 19.6633618,5.9626469 20.3012114,7.15743058 L20.3012114,0.0563577212 L23.4684643,0.0563577212 L23.4684643,17.2738908 L20.3012114,17.2738908 L20.3012114,15.2278562 C19.7073515,16.4226398 18.2658801,17.2738908 16.5722797,17.2738908 Z M17.5518599,14.8897099 C19.2234656,14.8897099 20.3891907,13.7400124 20.3891907,11.350445 L20.3891907,11.1701003 C20.3891907,8.82561907 19.3774293,7.63083539 17.6398392,7.63083539 C15.8582594,7.63083539 14.8684929,8.87070526 14.8684929,11.2151865 L14.8684929,11.3955312 C14.8684929,13.7400124 15.9682334,14.8897099 17.5518599,14.8897099 Z M30.8587211,21.539921 C27.1415978,21.539921 25.4479974,19.7085444 25.14007,17.2738908 L28.3073229,17.2738908 C28.5052762,18.3108729 29.2311051,19.1503536 30.8587211,19.1503536 C32.7942645,19.1503536 33.7620362,18.1133716 33.7620362,16.2648383 L33.7620362,14.4839343 C33.1241867,15.6336318 31.7605084,16.6706139 30.0669079,16.6706139 C27.2735668,16.6706139 25.0520907,14.5290205 25.0520907,11.0348418 L25.0520907,10.8770402 C25.0520907,7.49557687 27.2515719,5.12855261 30.1108975,5.12855261 C31.9804565,5.12855261 33.1021919,5.9626469 33.7620362,7.15743058 L33.7620362,5.39906966 L36.9292892,5.39906966 L36.9292892,16.2648383 C36.9072944,19.759017 34.6418287,21.539921 30.8587211,21.539921 Z M31.0126848,14.2134172 C32.6842905,14.2134172 33.8500155,12.9960904 33.8500155,10.9897556 L33.8500155,10.831954 C33.8500155,8.82561907 32.8162594,7.60829232 31.0786693,7.60829232 C29.2970894,7.60829232 28.3073229,8.91579145 28.3073229,10.8544971 L28.3073229,11.0348418 C28.3073229,12.9960904 29.4290584,14.2134172 31.0126848,14.2134172 Z M44.2205693,17.2738908 C40.745389,17.2738908 38.2159857,14.9235245 38.2159857,11.1588287 L38.2159857,10.978484 C38.2159857,7.25887447 40.7893787,4.84676401 44.1325901,4.84676401 C47.1018897,4.84676401 49.7412671,6.62766798 49.7412671,10.8432255 L49.7412671,11.744949 L41.449223,11.744949 C41.5372023,13.7061977 42.5709585,14.8333522 44.3085486,14.8333522 C45.782201,14.8333522 46.5080298,14.1796026 46.7059831,13.1877067 L49.7192723,13.1877067 C49.3453606,15.7350757 47.3658274,17.2738908 44.2205693,17.2738908 Z M41.4932127,10.0204028 L46.6399986,10.0204028 C46.5300246,8.23949882 45.6502321,7.38286143 44.1325901,7.38286143 C42.7029273,7.38286143 41.7351556,8.35221421 41.4932127,10.0204028 Z M52.0837146,17.1891049 L52.0837146,7.72100777 L50.5660726,7.72100777 L50.5660726,5.39906966 L52.0837146,5.39906966 L52.0837146,4.04648437 C52.0837146,1.29622758 53.6453464,0.0847859521 56.1967447,0.0847859521 C56.8785836,0.0847859521 57.3404746,0.152415218 57.8463555,0.310216835 L57.8463555,2.76741347 C57.5384279,2.65469803 57.1425214,2.56452567 56.6806303,2.56452567 C55.6688687,2.56452567 55.2509674,3.05458847 55.2509674,3.95631201 L55.2509674,5.39906966 L57.7583759,5.39906966 L57.7583759,7.72100777 L55.2509674,7.72100777 L55.2509674,17.1891049 L52.0837146,17.1891049 Z M64.0928819,14.6755505 C65.8744616,14.6755505 66.9082179,13.3229653 66.9082179,11.0911995 L66.9082179,10.9333979 C66.9082179,8.67908905 65.8744616,7.32650373 64.0928819,7.32650373 C62.3332969,7.32650373 61.277546,8.63400286 61.277546,10.8883117 L61.277546,11.0686564 C61.277546,13.3229653 62.2893071,14.6755505 64.0928819,14.6755505 Z M64.0818844,17.2738908 C60.6506939,17.2738908 58.0223136,14.810809 58.0223136,11.1362857 L58.0223136,10.955941 C58.0223136,7.25887447 60.6396963,4.84676401 64.0928819,4.84676401 C67.5460676,4.84676401 70.1414551,7.21378828 70.1414551,10.8883117 L70.1414551,11.0686564 C70.1414551,14.7882659 67.53507,17.2738908 64.0818844,17.2738908 Z M71.8130611,17.1891049 L71.8130611,0.0563577212 L74.9803139,0.0563577212 L74.9803139,17.1891049 L71.8130611,17.1891049 Z M77.3007666,17.2003764 L77.3007666,5.41034122 L80.4680194,5.41034122 L80.4680194,17.2003764 L77.3007666,17.2003764 Z M78.8294061,3.61816569 C77.8176445,3.61816569 77.0258313,2.85170068 77.0258313,1.83726171 C77.0258313,0.82282272 77.8176445,0.0563577212 78.8294061,0.0563577212 C79.8631619,0.0563577212 80.6549751,0.82282272 80.6549751,1.83726171 C80.6549751,2.85170068 79.8631619,3.61816569 78.8294061,3.61816569 Z M88.3311644,14.6755505 C90.1127441,14.6755505 91.1465004,13.3229653 91.1465004,11.0911995 L91.1465004,10.9333979 C91.1465004,8.67908905 90.1127441,7.32650373 88.3311644,7.32650373 C86.5715799,7.32650373 85.5158285,8.63400286 85.5158285,10.8883117 L85.5158285,11.0686564 C85.5158285,13.3229653 86.5275901,14.6755505 88.3311644,14.6755505 Z M88.3311644,17.2738908 C84.8999739,17.2738908 82.2605972,14.810809 82.2605972,11.1362857 L82.2605972,10.955941 C82.2605972,7.25887447 84.8779793,4.84676401 88.3311644,4.84676401 C91.7843506,4.84676401 94.3797381,7.21378828 94.3797381,10.8883117 L94.3797381,11.0686564 C94.3797381,14.7882659 91.7843506,17.2738908 88.3311644,17.2738908 Z" id="Edgefolio"></path></g><g id="Group-2"><path d="M-6.04096063e-18,1.81541685 C-6.04096063e-18,1.81541685 2.47823489,3.47463571 2.47823489,5.39920318 C2.47823489,8.41727523 2.47823489,13.1617722 2.47823489,13.1617722 C2.47823489,13.1617722 -6.04096063e-18,11.4211954 -6.04096063e-18,10.0686812 C-6.04096063e-18,7.77225342 -6.04096063e-18,1.81541685 -6.04096063e-18,1.81541685 Z M4.5058816,0.453854213 C4.5058816,0.453854213 8.33588097,3.20815753 8.33588097,6.40293951 C8.33588097,11.4129391 8.33588097,19.2888041 8.33588097,19.2888041 C8.33588097,19.2888041 4.5058816,16.3994465 4.5058816,14.1542731 C4.5058816,10.3422029 4.5058816,0.453854213 4.5058816,0.453854213 Z M10.8141159,0 C10.8141159,0 16.2211738,3.74983463 16.2211738,8.09935705 C16.2211738,14.9201999 16.2211738,25.642763 16.2211738,25.642763 C16.2211738,25.642763 10.8141159,21.7090594 10.8141159,18.6523776 C10.8141159,13.4624506 10.8141159,0 10.8141159,0 Z" id="Combined-Shape"></path></g></g></g></g></g></g></g></svg> 