<?xml version="1.0" encoding="UTF-8"?> <svg xmlns="http://www.w3.org/2000/svg" xmlns:xlink="http://www.w3.org/1999/xlink" width="141px" height="23px" viewBox="0 0 141 23" version="1.1"><!-- Generator: Sketch 64 (93537) - https://sketch.com --><title>edited-logo</title><desc>Created with Sketch.</desc><g id="Pages" stroke="none" stroke-width="1" fill="none" fill-rule="evenodd"><g id="Together---About" transform="translate(-140.000000, -6076.000000)" fill="#121214" fill-rule="nonzero"><g id="Group-14" transform="translate(132.500000, 5826.625000)"><g id="Group" transform="translate(7.800000, 250.200000)"><g id="Group-2"><g id="edited-logo"><polygon id="Fill-1" points="83.0377151 18.9350953 84.5356351 18.9350953 84.5356351 2.79306223 83.0377151 2.79306223"></polygon><polygon id="Fill-2" points="47.6692421 4.17625578 55.0903293 4.17625578 55.0903293 2.79293767 46.8296594 2.79293767 45.5665487 4.05604847 45.5665487 18.9343478 55.0903293 18.9343478 55.0903293 17.5510297 47.0650913 17.5510297 47.0650913 11.2784513 54.4450715 11.2784513 54.4450715 9.94122304 47.0650913 9.94122304 47.0650913 4.78040638"></polygon><path d="M68.210675,2.7928131 L64.5334531,2.7928131 L63.275948,4.05031839 L63.275948,18.9348461 L68.0724055,18.9348461 C71.6468595,18.9348461 75.1976459,17.020872 75.1976459,10.8404733 C75.1976459,5.25986533 71.7851294,2.7928131 68.210675,2.7928131 M67.8419561,17.5509051 L64.7751135,17.5509051 L64.7751135,4.77405348 L65.3730354,4.1761312 L67.9802261,4.1761312 C71.4618775,4.1761312 73.5838788,6.59771642 73.5838788,10.8404733 C73.5838788,15.4525716 71.485545,17.5509051 67.8419561,17.5509051" id="Fill-3"></path><polygon id="Fill-5" points="112.733089 4.17625578 120.116183 4.17625578 120.116183 2.79293767 111.893506 2.79293767 110.592402 4.09341863 110.592402 18.9343478 120.116183 18.9343478 120.116183 17.5510297 112.092191 17.5510297 112.092191 11.2784513 119.470925 11.2784513 119.470925 9.94122304 112.092191 9.94122304 112.092191 4.81715372"></polygon><polygon id="Fill-6" points="93.0474324 2.7928131 91.7998923 4.03973019 91.7998923 4.1761312 96.8735122 4.1761312 96.8735122 18.9348461 98.3720547 18.9348461 98.3720547 4.1761312 103.445051 4.1761312 103.445051 2.7928131"></polygon><path d="M133.237401,2.7928131 L129.596303,2.7928131 L128.302051,4.08768853 L128.302051,18.9348461 L133.098509,18.9348461 C136.673586,18.9348461 140.224995,17.020872 140.224995,10.8404733 C140.224995,5.25986533 136.811232,2.7928131 133.237401,2.7928131 M132.868059,17.5509051 L129.801217,17.5509051 L129.801217,4.81142362 L130.436509,4.1761312 L133.006952,4.1761312 C136.489226,4.1761312 138.60936,6.59771642 138.60936,10.8404733 C138.60936,15.4525716 136.512271,17.5509051 132.868059,17.5509051" id="Fill-7"></path><g id="Group-19" transform="translate(0.076248, 0.118232)"><path d="M32.8900851,0.537507214 L32.246073,0.089065506 L29.7117545,-3.57202191e-15 L29.0004761,0.332594267 L28.8422759,0.252248461 L27.4633177,0.0105882071 L26.8031118,1.10802472 L23.0885196,2.63521787 L19.7719194,3.35895296 L13.207854,2.91736245 L12.0512481,2.81085755 L8.35098117,3.69839842 L5.70704359,5.78863506 L3.97929733,8.13361149 L4.56725423,9.82647892 L4.56912274,9.83146161 L3.76317334,11.8438438 L0.374324259,13.8331811 L-1.78601095e-14,14.0524192 L-1.78601095e-14,14.4865357 L-1.78601095e-14,15.8835561 L-1.78601095e-14,16.1931055 L0.21612399,16.4135894 L3.14656598,19.4075607 L3.36954116,19.6355184 L3.68843306,19.6355184 L6.29811465,19.6355184 L6.47064015,19.6355184 L6.62634905,19.5601554 L7.22489417,19.2730281 L7.65465083,19.0668695 L7.65465083,18.5897773 L7.65465083,17.5203684 L7.65465083,17.0781551 L7.2703612,16.8607854 L6.81257695,16.6016857 L8.29118894,15.8206497 L10.3434326,18.0254882 L10.6903521,18.8239635 L12.7924225,20.618976 L18.3387745,20.6893565 L19.4897749,20.4022292 L19.9120575,20.9285254 L24.7732902,21.282296 L27.7847009,20.4395993 L27.7847009,19.5838231 L29.0982614,19.5838231 L30.3109224,18.8326833 L30.3109224,16.6994709 L28.8634522,15.8486773 L27.055983,15.2414125 L26.1167468,13.1966429 L25.9548096,10.9095903 L29.1555622,8.59575559 L29.8811658,7.55499712 L31.559708,6.26385871 L35.2718088,4.96649192 L36.116374,2.86878126 L36.1437789,1.38020392 L32.8900851,0.537507214 Z M6.89728262,17.5203684 L6.89728262,18.5897773 L6.29811465,18.8775274 L3.68843306,18.8775274 L0.757991056,15.8835561 L0.757991056,14.4865357 L4.37043815,12.3664029 L4.94842967,10.9232926 L5.67154195,13.0054323 L7.7536817,15.2420354 L7.7567959,15.2457724 L5.23244278,16.5786408 L6.89728262,17.5203684 Z M26.5041507,15.8555286 L28.5476745,16.5425163 L29.5535542,17.1329646 L29.5535542,18.4104007 L28.8827602,18.8252092 L27.7847009,18.8252092 L27.7847009,18.0211283 L26.9220734,17.1983623 L24.9844315,16.6141425 L24.5858167,16.6185024 L24.5334985,16.5668069 L24.5714915,14.5014837 L24.9875457,12.4716622 L25.198687,11.6806608 L25.2460225,11.6264741 L25.3699669,13.3878535 L26.5041507,15.8555286 Z M34.6969315,4.36483263 L31.1941035,5.58870478 L29.3262192,7.02558678 L28.6074669,8.05700271 L25.2310745,10.4985187 L24.512322,11.3125649 L24.2494854,12.297891 L23.814746,14.4180237 L23.7699019,16.873865 L24.2743988,17.3802304 L24.876681,17.3733791 L26.5303098,17.8716477 L27.0267098,18.3456257 L27.0267098,19.864722 L24.6960586,20.516831 L20.2975928,20.1973163 L20.0310192,19.864722 L19.9998773,18.6016112 L17.6866655,14.3700654 L17.6692261,14.2342872 L17.6866655,12.9437717 L15.2009283,13.2794801 L14.0299971,11.1120118 L13.3623172,11.4720109 L14.3987159,13.3884764 L15.0888178,14.4597537 L16.4590564,17.0656983 L18.291439,17.343483 L18.6452097,17.5228597 L19.2555887,18.7093618 L19.2555887,19.679117 L18.249709,19.9307425 L13.0764356,19.864722 L11.3156792,18.3618195 L10.9868218,17.6038284 L6.33548479,12.6055718 L4.82635391,8.26191565 L6.25763032,6.3199139 L8.68980377,4.39659725 L12.1066804,3.57694546 L13.1474389,3.67286216 L19.8292204,4.12254954 L23.314609,3.36144431 L27.3231796,1.71342103 L27.8444931,0.847056559 L28.5999928,0.979097732 L28.9431753,1.15411457 L29.838813,0.757991056 L32.0081497,0.847056559 L32.5680791,1.23695172 L34.1432306,1.6449091 L34.1432306,2.77597874 L35.1864804,3.14905733 L34.6969315,4.36483263 Z M16.9535879,14.6086115 L18.0061803,16.5337967 L16.9517194,16.3737278 L15.6811346,13.9801703 L16.9168406,13.8126274 L16.9106122,14.2778857 L16.9535879,14.6086115 Z M35.3608744,2.71494085 L34.589181,2.46206954 L34.589181,1.76013371 L35.3751996,1.96442382 L35.3608744,2.71494085 Z" id="Fill-9"></path><polygon id="Fill-10" points="31.0847958 2.67458108 32.1784953 1.7135456 31.0847958 1.84184976"></polygon><polygon id="Fill-11" points="27.8447422 2.11284557 28.3996888 2.70516232 28.5099307 2.13775899 28.6830791 1.89111606 29.1115901 1.70613384 28.03097 1.41153255"></polygon></g></g></g></g></g></g></g></svg> 