<?xml version="1.0" encoding="UTF-8"?> <svg xmlns="http://www.w3.org/2000/svg" xmlns:xlink="http://www.w3.org/1999/xlink" width="148px" height="23px" viewBox="0 0 148 23" version="1.1"><!-- Generator: Sketch 64 (93537) - https://sketch.com --><title>globalpayments-logo</title><desc>Created with Sketch.</desc><g id="Pages" stroke="none" stroke-width="1" fill="none" fill-rule="evenodd"><g id="Together---About" transform="translate(-654.000000, -6076.000000)" fill="#121214" fill-rule="nonzero"><g id="Group-14" transform="translate(132.500000, 5826.625000)"><g id="Group" transform="translate(521.400000, 250.200000)"><g id="Group-2"><g id="globalpayments-logo" transform="translate(0.077551, 0.000000)"><path d="M5.52834395,10.9328215 C6.73710413,10.9328215 7.54294429,10.150485 7.54294429,8.94172483 C7.54294429,7.73296465 6.7136005,6.90362085 5.45699355,6.90362085 C4.31958378,6.90362085 3.51374366,7.70946101 3.51374366,8.9887322 C3.51374366,10.2218355 4.27173702,10.9328215 5.52834395,10.9328215 M2.89677232,18.3759302 C2.89677232,19.1817703 3.79830595,19.7508949 5.31513211,19.7508949 C7.37673973,19.7508949 8.5384926,19.0869162 8.5384926,18.2097257 C8.5384926,17.5230827 7.99371108,17.2620241 6.87980501,17.2141774 L4.15337925,17.0723159 C3.29969237,17.475236 2.89677232,17.8546524 2.89677232,18.3759302 M0.621952803,14.5599414 C0.621952803,13.6827509 1.2615884,12.829064 2.47034858,12.2129321 C1.33293883,11.5254497 0.740310572,10.4115437 0.740310572,8.96522852 C0.740310572,6.42935038 2.63655311,4.6514656 5.45699355,4.6514656 C6.61454931,4.6514656 7.76622913,5.02500606 8.65181386,5.78048122 C9.23772677,6.27993419 9.69772717,6.9338399 9.94955223,7.66161425 C10.1199538,8.15519129 10.1745159,8.6831845 10.1745159,9.20278347 C10.1745159,11.5968002 8.42013484,13.1606337 5.52834395,13.1606337 C5.00706615,13.1606337 4.55629932,13.1136263 4.17688293,13.0187722 C3.63210143,13.2319841 3.37104281,13.5165464 3.37104281,13.848116 C3.37104281,14.6782993 4.50929198,14.6069488 6.64225006,14.7731533 C9.84210686,15.0098688 11.1935679,15.6260007 11.1935679,17.9965138 C11.1935679,20.4383773 9.17896763,21.8368456 5.36213943,21.8368456 C1.87772032,21.8368456 0.0998355575,20.7464432 0.0998355575,18.7310035 C0.0998355575,17.5700901 0.787317908,16.9304545 2.25713672,16.456184 C1.14323063,15.9105631 0.621952803,15.4127889 0.621952803,14.5599414" id="Shape"></path><path d="M11.230922,4.00847235 C11.230922,4.86467748 10.5375637,5.55803577 9.68135856,5.55803577 C8.82599284,5.55803577 8.13179517,4.86467748 8.13179517,4.00847235 C8.13179517,3.15310664 8.82599284,2.45890895 9.68135856,2.45890895 C10.5375637,2.45890895 11.230922,3.15310664 11.230922,4.00847235" id="Path"></path><polygon id="Path" points="12.6952006 17.3707286 15.6432324 17.3707286 15.6432324 0.0862973759 12.6952006 0.0862973759"></polygon><path d="M22.6089648,15.0885222 C24.2021779,15.0885222 24.9626895,13.7807108 24.9626895,11.1415845 C24.9626895,8.50245806 24.2021779,7.21898975 22.6089648,7.21898975 C21.0400948,7.21898975 20.2552401,8.50245806 20.2552401,11.1415845 C20.2552401,13.7807108 21.0400948,15.0885222 22.6089648,15.0885222 M22.6089648,4.67471747 C25.9372524,4.67471747 27.9350643,7.05278523 27.9350643,11.1415845 C27.9350643,15.231223 25.9137487,17.6092908 22.6089648,17.6092908 C19.3041808,17.6092908 17.2837046,15.2077194 17.2837046,11.1415845 C17.2837046,7.05278523 19.2806773,4.67471747 22.6089648,4.67471747" id="Shape"></path><path d="M34.6624024,15.1364529 C36.3026228,15.1364529 37.3015288,13.7337874 37.3015288,11.1425078 C37.3015288,8.52688508 36.2791191,7.09987651 34.685906,7.09987651 C33.8775477,7.09987651 33.2118901,7.45662865 32.4513786,8.14662925 L32.4513786,14.0661965 C33.1883864,14.7797008 33.854044,15.1364529 34.6624024,15.1364529 M29.5746972,14.4707954 L29.5746972,0.0865492027 L32.4748822,0.0865492027 L32.4748822,6.10180995 C33.3310873,5.10290396 34.2342998,4.67480138 35.4942644,4.67480138 C38.1812375,4.67480138 40.2495605,7.12421962 40.2495605,11.1425078 C40.2495605,15.0172557 38.2290843,17.6093748 35.3994103,17.6093748 C34.0680953,17.6093748 33.0456856,17.1334255 32.023276,16.0396654 L31.7143706,17.3709804 L29.4319963,17.3709804 C29.5268504,16.0396654 29.5746972,15.0651025 29.5746972,14.4707954" id="Shape"></path><path d="M44.0292025,13.947419 C44.0292025,14.7792811 44.5051518,15.278734 45.3605174,15.278734 C46.2880733,15.278734 47.1912857,14.8506316 48.0953372,13.9709227 L48.0953372,11.3082926 C45.337014,11.6885484 44.0292025,12.4734031 44.0292025,13.947419 L44.0292025,13.947419 Z M48.1658485,16.2776401 C47.0250811,17.109502 45.78862,17.5132615 44.4573051,17.5132615 C42.3654784,17.5132615 41.1290175,16.253297 41.1290175,14.1849739 C41.1290175,11.4031467 43.4348955,9.92913082 48.1901915,9.33482372 L48.1901915,8.36026085 C48.1901915,7.45704837 47.5715414,6.93325228 46.430774,6.93325228 C45.2891672,6.93325228 44.3624511,7.4327053 43.6967935,8.36026085 L41.6989815,7.10029622 C42.7457343,5.48357946 44.3381079,4.6752211 46.4786209,4.6752211 C49.4023092,4.6752211 51.0433695,6.07788655 51.0433695,8.36026085 L51.0433695,15.6833329 C51.0433695,16.1114356 51.1147198,16.6813995 51.2330775,17.3714001 L48.4277465,17.3714001 L48.1658485,16.2776401 Z" id="Shape"></path><polygon id="Path" points="53.5387034 17.3707286 56.4867352 17.3707286 56.4867352 0.0862973759 53.5387034 0.0862973759"></polygon><path d="M60.7556733,14.0425249 C61.9921345,15.6122344 63.109398,16.3962497 64.4885598,16.3962497 C66.5333792,16.3962497 67.7454969,14.5654816 67.7454969,11.1658436 C67.7454969,7.76620557 66.5333792,5.93543753 64.4885598,5.93543753 C63.109398,5.93543753 61.9921345,6.69594914 60.7556733,8.26481915 L60.7556733,14.0425249 Z M59.2816576,4.93653154 L60.3754177,4.93653154 L60.7556733,6.55324831 L60.8748705,6.55324831 C62.0391418,5.31678737 63.2756026,4.69897659 64.6069175,4.69897659 C67.3173944,4.69897659 69.219513,7.05270128 69.219513,11.1423399 C69.219513,15.2311391 67.3173944,17.5848638 64.6069175,17.5848638 C63.2756026,17.5848638 62.0391418,16.9905567 60.8748705,15.7540958 L60.7556733,15.7540958 L60.7556733,21.8885538 L59.2816576,21.8885538 L59.2816576,4.93653154 Z" id="Shape"></path><path d="M77.7547031,10.3811568 C73.5702101,11.3087123 71.644588,12.0927276 71.644588,14.2088974 C71.644588,15.5880591 72.4294427,16.4199211 73.7129113,16.4199211 C75.0677297,16.4199211 76.3041909,15.6829132 77.7547031,14.2088974 L77.7547031,10.3811568 Z M77.7547031,15.73076 C76.3998842,16.9907246 75.0442262,17.6093748 73.5232027,17.6093748 C71.4783834,17.6093748 70.1705723,16.2058699 70.1705723,14.2802477 C70.1705723,11.4035664 72.5713044,10.1192587 77.7782065,9.19254256 L77.7782065,7.97958531 C77.7782065,6.76746748 76.7557968,5.93560544 75.0442262,5.93560544 C73.6894074,5.93560544 72.6905016,6.60126292 71.9534933,7.93257798 L70.8118864,7.26608107 C71.7872887,5.55451022 73.0951002,4.72264813 75.2347738,4.72264813 C77.5884985,4.72264813 79.2287187,6.12531363 79.2287187,7.97958531 L79.2287187,15.7072563 C79.2287187,16.0161617 79.3000691,16.5869651 79.4427702,17.3709804 L77.992258,17.3709804 C77.8739003,16.800177 77.7782065,16.2537166 77.7547031,15.73076 L77.7547031,15.73076 Z" id="Shape"></path><path d="M80.5356907,4.9367834 L82.0097064,4.9367834 L85.6712425,15.5167927 L89.3092752,4.9367834 L90.7119406,4.9367834 L86.0279947,18.3464667 C85.1717897,20.8185491 84.1728839,21.8409588 82.0340498,21.8409588 C81.6529547,21.8409588 81.2248521,21.8174552 80.7497422,21.7461047 L80.7497422,20.5574905 C81.1299979,20.6288409 81.48675,20.6523446 81.7956553,20.6523446 C83.5785768,20.6523446 84.3869349,19.6534386 84.8628844,17.2997139 L80.5356907,4.9367834 Z" id="Path"></path><path d="M92.1850333,4.9367834 L93.5398518,4.9367834 L93.5398518,6.86240551 L93.6355451,6.86240551 C94.9433566,5.43623637 96.321679,4.72273209 97.6294905,4.72273209 C99.0321558,4.72273209 100.031062,5.43623637 100.601865,6.86240551 L100.76807,6.86240551 C102.122888,5.43623637 103.4307,4.72273209 104.762015,4.72273209 C106.853841,4.72273209 107.900594,6.05404715 107.900594,8.71667723 L107.900594,17.3710643 L106.497929,17.3710643 L106.497929,9.23963388 C106.497929,7.05295314 106.117673,6.0062004 104.358256,6.0062004 C103.216649,6.0062004 101.980188,6.76755139 100.76807,8.31291772 L100.76807,17.3710643 L99.3410611,17.3710643 L99.3410611,9.23963388 C99.3410611,7.05295314 98.9608054,6.0062004 97.2013879,6.0062004 C96.0606205,6.0062004 94.8476633,6.76755139 93.6112021,8.31291772 L93.6112021,17.3710643 L92.1850333,17.3710643 L92.1850333,4.9367834 Z" id="Path"></path><path d="M114.842739,5.91151418 C112.893614,5.91151418 111.514451,7.38553007 111.276897,10.0481601 L118.100516,10.0481601 C118.029165,7.36202639 116.792704,5.91151418 114.842739,5.91151418 L114.842739,5.91151418 Z M119.550189,14.3753537 C118.456429,16.6107207 117.053763,17.5852835 114.866243,17.5852835 C111.77551,17.5852835 109.802041,15.1367047 109.802041,11.2376137 C109.802041,7.12447144 111.846861,4.69855688 114.819235,4.69855688 C117.814275,4.69855688 119.478838,6.76771929 119.478838,10.7138176 L119.478838,11.1184165 L111.276897,11.1184165 C111.3004,14.5659013 112.608212,16.3966693 114.961936,16.3966693 C116.55431,16.3966693 117.57672,15.6118146 118.456429,13.7810467 L119.550189,14.3753537 Z" id="Shape"></path><path d="M121.403957,4.9367834 L122.877972,4.9367834 L122.877972,6.88590919 C124.352827,5.43623637 125.801661,4.72273209 127.181662,4.72273209 C129.415351,4.72273209 130.534293,6.05404715 130.534293,8.71667723 L130.534293,17.3710643 L129.083781,17.3710643 L129.083781,9.23963388 C129.083781,7.05295314 128.655678,6.0062004 126.75272,6.0062004 C125.51626,6.0062004 124.210127,6.76755139 122.877972,8.31291772 L122.877972,17.3710643 L121.403957,17.3710643 L121.403957,4.9367834 Z" id="Path"></path><path d="M136.595385,16.4443482 C136.928635,16.4443482 137.356737,16.3494941 137.903197,16.2067933 L137.903197,17.3954074 C137.356737,17.5381083 136.785933,17.6329624 136.238634,17.6329624 C134.527063,17.6329624 133.790055,16.7767572 133.790055,14.9703324 L133.790055,6.14890122 L131.935783,6.14890122 L131.935783,4.9367834 L133.790055,4.9367834 L133.790055,1.25174366 L135.240567,1.25174366 L135.240567,4.9367834 L137.831847,4.9367834 L137.831847,6.14890122 L135.240567,6.14890122 L135.240567,15.0416827 C135.240567,15.992742 135.66867,16.4443482 136.595385,16.4443482" id="Path"></path><path d="M143.134107,16.4201731 C144.679473,16.4201731 145.701882,15.4456101 145.701882,14.1377987 C145.701882,12.6394398 144.536772,12.3070307 142.491954,11.5456797 C139.972024,10.6189636 138.664213,9.90545927 138.664213,8.0033408 C138.664213,6.10122238 140.209579,4.69855688 142.681661,4.69855688 C144.299218,4.69855688 145.725387,5.4834116 146.819147,6.98093117 L145.773233,7.74144278 C144.822175,6.48147816 143.799764,5.88717106 142.420603,5.88717106 C141.065783,5.88717106 140.186075,6.71987254 140.186075,7.93199041 C140.186075,9.26330543 141.398194,9.5730502 143.466516,10.3570655 C145.939438,11.284621 147.199402,12.0451327 147.199402,14.0186015 C147.199402,16.0869245 145.534839,17.5852835 142.967903,17.5852835 C141.017937,17.5852835 139.520417,16.8004288 138.283956,15.1367047 L139.377716,14.2561565 C140.447134,15.6831651 141.683595,16.4201731 143.134107,16.4201731" id="Path"></path></g></g></g></g></g></g></svg>