<?xml version="1.0" encoding="UTF-8"?> <svg xmlns="http://www.w3.org/2000/svg" width="40" height="39"><path d="M20.296 38.912c-.194 0-.386-.004-.578-.01l3.976-10.927h5.471c.96 0 2.015-.738 2.343-1.64l4.314-11.848c.706-1.94-.405-3.527-2.47-3.527h-7.59l-6.37 17.502h-.002l-3.61 9.921C7.212 36.347.84 28.646.84 19.457.84 10.532 6.85 3.012 15.044.72l-3.725 10.24h-.002L5.123 27.975h4.123l5.267-14.458h3.099l-5.267 14.459h4.121l4.909-13.49c.706-1.939-.405-3.526-2.467-3.526h-3.466L19.422.022c.29-.013.58-.02.874-.02 10.745 0 19.455 8.71 19.455 19.455 0 10.744-8.71 19.455-19.455 19.455zm11.771-25.405H28.97L24.631 25.41h3.098l4.338-11.903z" fill="#121214" fill-rule="nonzero"></path></svg> 