<?xml version="1.0" encoding="UTF-8"?> <svg xmlns="http://www.w3.org/2000/svg" xmlns:xlink="http://www.w3.org/1999/xlink" width="94px" height="40px" viewBox="0 0 94 40" version="1.1"><!-- Generator: Sketch 64 (93537) - https://sketch.com --><title>hpe-logo</title><desc>Created with Sketch.</desc><g id="Pages" stroke="none" stroke-width="1" fill="none" fill-rule="evenodd"><g id="Together---About" transform="translate(-163.000000, -6188.000000)" fill="#121214" fill-rule="nonzero"><g id="Group-14" transform="translate(132.500000, 5826.625000)"><g id="Group" transform="translate(30.850000, 361.800000)"><g id="Group-2"><g id="hpe-logo" transform="translate(0.107800, 0.000000)"><path d="M29.9660274,7.357721 L2.10782822,7.357721 L2.10782822,2.19319288 L29.9660274,2.19319288 L29.9660274,7.357721 Z M31.9561691,0.203303494 L0.117686514,0.203303494 L0.117686514,9.34660113 L31.9561691,9.34660113 L31.9561691,0.203303494 Z" id="path3346"></path><g id="g3348" transform="translate(4.064913, 19.458431) scale(-1, 1) rotate(-180.000000) translate(-4.064913, -19.458431) translate(0.064913, 14.458431)"><polyline id="path3350" points="2.04291516 0 0.0527734485 0 0.0527734485 9.14329763 2.04291516 9.14329763 2.04291516 5.53013386 5.59867705 5.53013386 5.59867705 9.14329763 7.58881877 9.14329763 7.58881877 0 5.59867705 0 5.59867705 3.78915411 2.04291516 3.78915411 2.04291516 0"></polyline></g><g id="g3352" transform="translate(12.275276, 21.125169) scale(-1, 1) rotate(-180.000000) translate(-12.275276, -21.125169) translate(8.775276, 17.625169)"><path d="M1.89236929,4.1754064 L4.26287723,4.1754064 C4.21872194,4.84782829 3.94117445,5.31650508 3.16530304,5.31650508 C2.57993014,5.31650508 2.06772885,5.06734313 1.89236929,4.1754064 Z M3.39932604,0.0203942215 C1.38016801,0.0203942215 0.00504631812,1.29332796 0.00504631812,3.38439604 C0.00504631812,5.41869302 1.35115167,6.82283104 3.13628671,6.82283104 C5.08227313,6.82283104 6.04801226,5.52088097 6.04801226,3.57489454 L6.04801226,2.84317842 L1.89236929,2.84317842 C2.12702309,1.83454558 2.91677187,1.57150625 3.70715145,1.57150625 C4.39471229,1.57150625 4.89177462,1.71721869 5.50616386,2.0982157 L5.57996625,2.0982157 L5.57996625,0.591258958 C5.0532568,0.21026194 4.30640172,0.0203942215 3.39932604,0.0203942215" id="path3354"></path></g><g id="g3356" transform="translate(20.211015, 21.061037) scale(-1, 1) rotate(-180.000000) translate(-20.211015, -21.061037) translate(15.211015, 17.561037)"><polyline id="path3358" points="4.80619616 3.93528445 3.78179358 0.10260584 2.04081384 0.10260584 0.0506721302 6.53981538 0.0506721302 6.612987 1.95313406 6.612987 3.0355693 2.76516943 4.05997187 6.612987 5.6110839 6.612987 6.64999464 2.76516943 7.74756883 6.612987 9.57685914 6.612987 9.57685914 6.53981538 7.58671744 0.10260584 5.8451069 0.10260584 4.80619616 3.93528445"></polyline></g><g id="g3360" transform="translate(27.737635, 19.604774) scale(-1, 1) rotate(-180.000000) translate(-27.737635, -19.604774) translate(25.737635, 14.604774)"><path d="M2.28303711,0 C0.702908747,0 0.0588723971,0.628897395 0.0588723971,2.10620702 L0.0588723971,9.28901008 L1.99035065,9.28901008 L1.99035065,2.23804208 C1.99035065,1.78450424 2.16571021,1.62365285 2.54607644,1.62365285 C2.6779115,1.62365285 2.86841001,1.66717735 2.98510611,1.71133263 L3.01475324,1.71133263 L3.01475324,0.116696106 C2.85390184,0.0586634481 2.57572356,0 2.28303711,0" id="path3362"></path></g><g id="g3364" transform="translate(32.789190, 21.125169) scale(-1, 1) rotate(-180.000000) translate(-32.789190, -21.125169) translate(29.289190, 17.625169)"><path d="M1.89236929,4.1754064 L4.26287723,4.1754064 C4.21872194,4.84782829 3.94117445,5.31650508 3.16530304,5.31650508 C2.58056092,5.31650508 2.06772885,5.06734313 1.89236929,4.1754064 Z M3.39932604,0.0203942215 C1.38016801,0.0203942215 0.00504631812,1.29332796 0.00504631812,3.38439604 C0.00504631812,5.41869302 1.35115167,6.82283104 3.13628671,6.82283104 C5.08227313,6.82283104 6.04801226,5.52088097 6.04801226,3.57489454 L6.04801226,2.84317842 L1.89236929,2.84317842 C2.1263923,1.83454558 2.91677187,1.57150625 3.70652066,1.57150625 C4.39471229,1.57150625 4.89177462,1.71721869 5.50679465,2.0982157 L5.57996625,2.0982157 L5.57996625,0.591258958 C5.0532568,0.21026194 4.30703251,0.0203942215 3.39932604,0.0203942215" id="path3366"></path></g><g id="g3368" transform="translate(40.418014, 20.146616) scale(-1, 1) rotate(-180.000000) translate(-40.418014, -20.146616) translate(35.918014, 15.646616)"><path d="M7.34947717,6.69856546 L8.78326235,6.69856546 L8.78326235,5.14808422 L7.34947717,5.14808422 L7.34947717,2.50002879 C7.34947717,1.92916405 7.56899201,1.66549393 8.15436493,1.66549393 C8.31521632,1.66549393 8.520223,1.68063289 8.73973784,1.75380449 L8.78326235,1.75380449 L8.78326235,0.232339582 C8.53473115,0.144029015 8.15436493,0.0424718632 7.59863913,0.0424718632 C6.03238814,0.0424718632 5.41799891,0.759049035 5.41799891,2.41234901 L5.41799891,5.14808422 L2.94530304,5.14808422 L2.94530304,2.50002879 C2.94530304,1.92916405 3.16481788,1.66549393 3.74955999,1.66549393 C3.91104217,1.66549393 4.11604884,1.68063289 4.33556368,1.75380449 L4.37908817,1.75380449 L4.37908817,0.232339582 C4.13055701,0.144029015 3.74955999,0.0424718632 3.19446499,0.0424718632 C1.62821401,0.0424718632 1.01382478,0.759049035 1.01382478,2.41234901 L1.01382478,5.14808422 L0.0184385312,5.14808422 L0.0184385312,6.69856546 L1.01382478,6.69856546 L1.01382478,8.48306971 L2.94530304,8.48306971 L2.94530304,6.69856546 L5.41799891,6.69856546 L5.41799891,8.48306971 L7.34947717,8.48306971 L7.34947717,6.69856546" id="path3370"></path></g><g id="g3372" transform="translate(51.404640, 19.612554) scale(-1, 1) rotate(-180.000000) translate(-51.404640, -19.612554) translate(47.904640, 14.612554)"><path d="M3.30449468,4.80619616 C4.31501989,4.80619616 4.79694327,5.37643011 4.79694327,6.19582602 C4.79694327,7.04486904 4.31501989,7.61510299 3.30449468,7.61510299 L2.0460691,7.61510299 L2.0460691,4.80619616 L3.30449468,4.80619616 Z M6.81673209,6.19582602 C6.81673209,4.20568431 5.4851349,3.12387986 3.46534607,3.12387986 L2.0460691,3.12387986 L2.0460691,0.154121652 L0.0571889769,0.154121652 L0.0571889769,9.29741929 L3.46534607,9.29741929 C5.4851349,9.29741929 6.81673209,8.21498406 6.81673209,6.19582602" id="path3374"></path></g><g id="g3376" transform="translate(58.288658, 21.193294) scale(-1, 1) rotate(-180.000000) translate(-58.288658, -21.193294) translate(54.788658, 17.693294)"><path d="M4.1754064,2.28303711 L4.1754064,2.83876289 C3.88271995,2.99898349 3.50298451,3.05764694 3.10747933,3.05764694 C2.47858193,3.05764694 2.0982157,2.82425472 2.0982157,2.29754527 C2.0982157,1.75569686 2.47858193,1.52167386 3.04881588,1.52167386 C3.5900335,1.52167386 4.00004684,1.79985215 4.1754064,2.28303711 Z M4.23406985,0.878268299 C3.80954834,0.366067012 3.18128173,0.117535845 2.50696747,0.117535845 C1.23466452,0.117535845 0.195122986,0.892145677 0.195122986,2.26852894 C0.195122986,3.5408319 1.23466452,4.38924413 2.72648231,4.38924413 C3.19452831,4.38924413 3.67834406,4.31607252 4.1754064,4.17036008 L4.1754064,4.2864254 C4.1754064,4.98912519 3.78053201,5.29568902 2.74225205,5.29568902 C2.08307675,5.29568902 1.45417935,5.10645209 0.912330952,4.79862669 L0.839790125,4.79862669 L0.839790125,6.34973872 C1.33685246,6.64179438 2.2155426,6.89095634 3.07783221,6.89095634 C5.03895758,6.89095634 6.10688466,5.95486433 6.10688466,4.31607252 L6.10688466,0.234862741 L4.23406985,0.234862741 L4.23406985,0.878268299" id="path3378"></path></g><g id="g3380" transform="translate(64.875790, 21.255742) scale(-1, 1) rotate(-180.000000) translate(-64.875790, -21.255742) translate(61.875790, 17.755742)"><path d="M0,3.54461663 C0,5.63694629 1.47857121,6.95340453 3.41004947,6.95340453 C4.09761031,6.95340453 4.74101587,6.80706129 5.22420083,6.45634219 L5.22420083,4.80304222 L5.15039842,4.80304222 C4.72587691,5.12474499 4.22881458,5.31524351 3.65858064,5.31524351 C2.6928415,5.31524351 1.96112538,4.6560682 1.96112538,3.54461663 C1.96112538,2.43316507 2.6928415,1.78912872 3.65858064,1.78912872 C4.22881458,1.78912872 4.72587691,1.97962723 5.15039842,2.3019608 L5.22420083,2.3019608 L5.22420083,0.648660827 C4.74101587,0.297310928 4.09761031,0.150967703 3.41004947,0.150967703 C1.47857121,0.150967703 0,1.45228699 0,3.54461663" id="path3382"></path></g><g id="g3384" transform="translate(71.702193, 19.657761) scale(-1, 1) rotate(-180.000000) translate(-71.702193, -19.657761) translate(68.202193, 14.657761)"><polyline id="path3386" points="2.04291516 3.15394882 2.04291516 0.199329566 0.112067687 0.199329566 0.112067687 9.34262721 2.04291516 9.34262721 2.04291516 4.1348269 3.98953237 6.70971072 6.18404996 6.70971072 6.18404996 6.63653911 3.84318915 3.68128907 6.18404996 0.272501178 6.18404996 0.199329566 3.97439341 0.199329566 2.04291516 3.15394882"></polyline></g><g id="g3388" transform="translate(78.041839, 21.193294) scale(-1, 1) rotate(-180.000000) translate(-78.041839, -21.193294) translate(74.541839, 17.693294)"><path d="M4.1754064,2.28303711 L4.1754064,2.83876289 C3.88335074,2.99898349 3.50235372,3.05764694 3.10747933,3.05764694 C2.47858193,3.05764694 2.0982157,2.82425472 2.0982157,2.29754527 C2.0982157,1.75569686 2.47858193,1.52167386 3.04818509,1.52167386 C3.59066429,1.52167386 4.00004684,1.79985215 4.1754064,2.28303711 Z M4.23406985,0.878268299 C3.80954834,0.366067012 3.18002016,0.117535845 2.50759826,0.117535845 C1.23403372,0.117535845 0.195753776,0.892145677 0.195753776,2.26852894 C0.195753776,3.5408319 1.23403372,4.38924413 2.72774389,4.38924413 C3.19578989,4.38924413 3.67771327,4.31607252 4.1754064,4.17036008 L4.1754064,4.2864254 C4.1754064,4.98912519 3.78053201,5.29568902 2.74162127,5.29568902 C2.08370754,5.29568902 1.45354856,5.10645209 0.912330952,4.79862669 L0.839159336,4.79862669 L0.839159336,6.34973872 C1.33685246,6.64179438 2.21491181,6.89095634 3.07783221,6.89095634 C5.03958838,6.89095634 6.10751545,5.95486433 6.10751545,4.31607252 L6.10751545,0.234862741 L4.23406985,0.234862741 L4.23406985,0.878268299" id="path3390"></path></g><g id="g3392" transform="translate(84.504921, 20.958577) scale(-1, 1) rotate(-180.000000) translate(-84.504921, -20.958577) translate(82.004921, 17.458577)"><path d="M1.89236929,5.45710788 C2.2430884,6.17431584 2.75592048,6.5836984 3.47312844,6.5836984 C3.73616777,6.5836984 3.99920711,6.52503495 4.10076426,6.4663715 L4.10076426,4.62320381 L4.02822344,4.62320381 C3.8087086,4.71151438 3.54566927,4.76954703 3.17981121,4.76954703 C2.57993014,4.76954703 2.11188413,4.41819714 1.95040195,3.74577525 L1.95040195,0.000145628076 L0.0195544827,0.000145628076 L0.0195544827,6.51052678 L1.89236929,6.51052678 L1.89236929,5.45710788" id="path3394"></path></g><g id="g3396" transform="translate(89.921503, 19.772565) scale(-1, 1) rotate(-180.000000) translate(-89.921503, -19.772565) translate(86.421503, 14.772565)"><path d="M4.80619616,2.52315905 L4.80619616,4.61548871 C4.48449338,5.08353471 4.06060266,5.2879106 3.57678691,5.2879106 C2.72900547,5.2879106 2.15814073,4.67289057 2.15814073,3.56143901 C2.15814073,2.44998745 2.72900547,1.85010638 3.57678691,1.85010638 C4.06060266,1.85010638 4.48449338,2.05511305 4.80619616,2.52315905 Z M4.86422882,0.986555195 C4.45484627,0.459845739 3.81080992,0.167790077 2.93338136,0.167790077 C1.26494243,0.167790077 0.197015356,1.6886242 0.197015356,3.56143901 C0.197015356,5.43425382 1.26494243,6.9702269 2.93338136,6.9702269 C3.78179358,6.9702269 4.39618282,6.70655678 4.80619616,6.2240026 L4.80619616,9.45680015 L6.73767442,9.45680015 L6.73767442,0.314133303 L4.86422882,0.314133303 L4.86422882,0.986555195" id="path3398"></path></g><g id="g3400" transform="translate(3.117686, 31.666315) scale(-1, 1) rotate(-180.000000) translate(-3.117686, -31.666315) translate(0.117686, 26.666315)"><polyline id="path3402" points="6.2366975e-16 9.22172455 5.64809155 9.22172455 5.64809155 8.11027296 1.27293375 8.11027296 1.27293375 5.31650508 5.23807821 5.31650508 5.23807821 4.23343906 1.27293375 4.23343906 1.27293375 1.19050923 5.64809155 1.19050923 5.64809155 0.0790576695 6.2366975e-16 0.0790576695 6.2366975e-16 9.22172455"></polyline></g><g id="g3404" transform="translate(10.279043, 33.217409) scale(-1, 1) rotate(-180.000000) translate(-10.279043, -33.217409) translate(7.279043, 29.717409)"><path d="M3.15394882,6.69856546 C4.60224212,6.69856546 5.40712986,5.74733449 5.40712986,4.18297588 L5.40712986,0.13015164 L4.19285956,0.13015164 L4.19285956,4.15332876 C4.19285956,4.98723283 3.76833805,5.58711389 2.84675421,5.58711389 C2.08602175,5.58711389 1.4419854,5.10392894 1.22247056,4.41699888 L1.22247056,0.13015164 L0.00820026697,0.13015164 L0.00820026697,6.5667304 L1.22247056,6.5667304 L1.22247056,5.63063839 C1.60283679,6.23051945 2.24687314,6.69856546 3.15394882,6.69856546" id="path3406"></path></g><g id="g3408" transform="translate(15.926720, 32.349244) scale(-1, 1) rotate(-180.000000) translate(-15.926720, -32.349244) translate(13.426720, 27.849244)"><path d="M2.52315905,6.69856546 L4.17645903,6.69856546 L4.17645903,5.65965472 L2.52315905,5.65965472 L2.52315905,2.19283417 C2.52315905,1.46174883 2.90352528,1.21258687 3.59108613,1.21258687 C3.78095385,1.21258687 3.98596052,1.24160321 4.13230375,1.30026666 L4.17645903,1.30026666 L4.17645903,0.261986702 C4.00109947,0.188815088 3.75193752,0.13015164 3.41572658,0.13015164 C1.90813904,0.13015164 1.30888876,0.818343273 1.30888876,2.07550727 L1.30888876,5.65965472 L0.196806406,5.65965472 L0.196806406,6.69856546 L1.30888876,6.69856546 L1.30888876,8.40926726 L2.52315905,8.40926726 L2.52315905,6.69856546" id="path3410"></path></g><g id="g3412" transform="translate(21.375266, 33.414846) scale(-1, 1) rotate(-180.000000) translate(-21.375266, -33.414846) translate(18.375266, 29.914846)"><path d="M1.26157953,4.1754064 L4.46599153,4.1754064 C4.42246704,5.12600658 3.95379025,5.85709191 2.95903479,5.85709191 C2.03745094,5.85709191 1.43693908,5.16953107 1.26157953,4.1754064 Z M3.17854962,0.195753776 C1.29059586,0.195753776 0.00315394882,1.45417935 0.00315394882,3.4727066 C0.00315394882,5.49186464 1.20291608,6.89600265 2.94452662,6.89600265 C4.71515349,6.89600265 5.63673734,5.62306891 5.63673734,3.73637672 L5.63673734,3.18002016 L1.21742425,3.18002016 C1.34925931,1.87807008 2.18379416,1.24917268 3.33940101,1.24917268 C4.05660898,1.24917268 4.56817947,1.41002407 5.13904421,1.83454558 L5.18319949,1.83454558 L5.18319949,0.765987723 C4.65649004,0.356605166 3.9682984,0.195753776 3.17854962,0.195753776" id="path3414"></path></g><g id="g3416" transform="translate(27.398478, 33.102542) scale(-1, 1) rotate(-180.000000) translate(-27.398478, -33.102542) translate(25.398478, 29.602542)"><path d="M1.26157953,5.45710788 C1.53975782,6.14466872 2.15477784,6.55405128 2.85621605,6.55405128 C3.13502513,6.55405128 3.3835563,6.51052678 3.48574424,6.45186333 L3.48574424,5.25273199 L3.44221975,5.25273199 C3.2662294,5.33978099 2.97354295,5.38393627 2.6808565,5.38393627 C2.02294277,5.38393627 1.4665862,4.94553738 1.26157953,4.21382125 L1.26157953,0.0152845823 L0.0473092323,0.0152845823 L0.0473092323,6.45186333 L1.26157953,6.45186333 L1.26157953,5.45710788" id="path3418"></path></g><g id="g3420" transform="translate(33.391385, 34.166134) scale(-1, 1) rotate(-180.000000) translate(-33.391385, -34.166134) translate(29.891385, 29.166134)"><path d="M2.91382687,3.54461663 C4.113589,3.54461663 4.8162888,4.49521681 4.8162888,5.79779768 C4.8162888,7.08460879 4.113589,8.04971715 2.91382687,8.04971715 C2.25528235,8.04971715 1.64089313,7.65484274 1.31919034,7.02657613 L1.31919034,4.55324947 C1.64089313,3.92498286 2.25528235,3.54461663 2.91382687,3.54461663 Z M3.11883354,9.14729131 C5.03517285,9.14729131 6.05957542,7.58167113 6.05957542,5.79779768 C6.05957542,4.01203185 5.03517285,2.44704244 3.11883354,2.44704244 C2.32845397,2.44704244 1.65540129,2.856425 1.31919034,3.29608547 L1.31919034,0.10618163 L0.10428926,0.10618163 L0.10428926,9.01545628 L1.31919034,9.01545628 L1.31919034,8.28437092 C1.65540129,8.7379088 2.32845397,9.14729131 3.11883354,9.14729131" id="path3422"></path></g><g id="g3424" transform="translate(39.338067, 33.102542) scale(-1, 1) rotate(-180.000000) translate(-39.338067, -33.102542) translate(37.338067, 29.602542)"><path d="M1.26157953,5.45710788 C1.53912702,6.14466872 2.15414705,6.55405128 2.85621605,6.55405128 C3.13439434,6.55405128 3.3829255,6.51052678 3.48511344,6.45186333 L3.48511344,5.25273199 L3.44158895,5.25273199 C3.2662294,5.33978099 2.97354295,5.38393627 2.6808565,5.38393627 C2.02231198,5.38393627 1.4665862,4.94553738 1.26157953,4.21382125 L1.26157953,0.0152845823 L0.0473092323,0.0152845823 L0.0473092323,6.45186333 L1.26157953,6.45186333 L1.26157953,5.45710788" id="path3426"></path></g><g id="g3428" transform="translate(42.797964, 28.199026) scale(-1, 1) rotate(-180.000000) translate(-42.797964, -28.199026) translate(41.797964, 27.199026)"><path d="M0.781335626,1.65224734 C1.20585714,1.65224734 1.55657625,1.3160364 1.55657625,0.891514889 C1.55657625,0.466993375 1.20585714,0.13078243 0.781335626,0.13078243 C0.371953069,0.13078243 0.00546421617,0.466993375 0.00546421617,0.891514889 C0.00546421617,1.3160364 0.371953069,1.65224734 0.781335626,1.65224734" id="path3430"></path></g><polygon id="path3432" points="41.9794184 36.5872571 43.1943195 36.5872571 43.1943195 30.1506783 41.9794184 30.1506783"></polygon><g id="g3434" transform="translate(47.111495, 33.263034) scale(-1, 1) rotate(-180.000000) translate(-47.111495, -33.263034) translate(44.611495, 29.763034)"><path d="M2.91382687,3.93528445 C3.83541071,3.64322879 4.8591825,3.26286256 4.8591825,2.0340841 C4.8591825,0.71699507 3.77674727,0.0439423918 2.38711742,0.0439423918 C1.53807439,0.0439423918 0.689662161,0.248949065 0.206477202,0.629315293 L0.206477202,1.78492214 L0.26514065,1.78492214 C0.806989058,1.28785981 1.61124601,1.06834497 2.37197846,1.06834497 C3.05953931,1.06834497 3.67455933,1.33201509 3.67455933,1.88774087 C3.67455933,2.45797482 3.16298883,2.58980988 2.15246362,2.92602083 C1.24538795,3.21870728 0.236124321,3.55554901 0.236124321,4.76918852 C0.236124321,6.01310593 1.25989611,6.74419127 2.56247698,6.74419127 C3.32320943,6.74419127 3.9962621,6.58333988 4.53747972,6.21748182 L4.53747972,5.04673602 L4.49395523,5.04673602 C3.96787657,5.47125753 3.35222576,5.72041948 2.5914933,5.72041948 C1.83076084,5.72041948 1.40623933,5.38357774 1.40623933,4.93003991 C1.40623933,4.41783862 1.87428534,4.27212619 2.91382687,3.93528445" id="path3436"></path></g><g id="g3438" transform="translate(53.521573, 33.414846) scale(-1, 1) rotate(-180.000000) translate(-53.521573, -33.414846) translate(50.521573, 29.914846)"><path d="M1.26157953,4.1754064 L4.46536074,4.1754064 C4.42183625,5.12600658 3.95379025,5.85709191 2.95840399,5.85709191 C2.03682015,5.85709191 1.43693908,5.16953107 1.26157953,4.1754064 Z M3.17791883,0.195753776 C1.29059586,0.195753776 0.00315394882,1.45417935 0.00315394882,3.4727066 C0.00315394882,5.49186464 1.20291608,6.89600265 2.94389583,6.89600265 C4.71515349,6.89600265 5.63610655,5.62306891 5.63610655,3.73637672 L5.63610655,3.18002016 L1.21742425,3.18002016 C1.34925931,1.87807008 2.18316337,1.24917268 3.33877022,1.24917268 C4.05660898,1.24917268 4.56817947,1.41002407 5.13841342,1.83454558 L5.1825687,1.83454558 L5.1825687,0.765987723 C4.65649004,0.356605166 3.9682984,0.195753776 3.17791883,0.195753776" id="path3440"></path></g></g></g></g></g></g></g></svg> 