<?xml version="1.0" encoding="UTF-8"?> <svg xmlns="http://www.w3.org/2000/svg" xmlns:xlink="http://www.w3.org/1999/xlink" width="107px" height="20px" viewBox="0 0 107 20" version="1.1"><!-- Generator: Sketch 64 (93537) - https://sketch.com --><title>logo-amatus</title><desc>Created with Sketch.</desc><g id="Pages" stroke="none" stroke-width="1" fill="none" fill-rule="evenodd"><g id="Together---About" transform="translate(-1187.000000, -6199.000000)" fill="#121214" fill-rule="nonzero"><g id="Group-14" transform="translate(132.500000, 5826.625000)"><g id="Group" transform="translate(1055.000000, 372.500000)"><g id="logo-amatus" transform="translate(0.100000, 0.000000)"><path d="M13.006,18.716 L9.238,18.716 L9.238,16.976 C8.202,18.2773333 6.92133333,18.9286667 5.396,18.930003 C3.87066667,18.9313333 2.59,18.4893333 1.554,17.604 C0.522,16.72 0.006,15.542 0.006,14.07 C0.006,12.598 0.539333333,11.496 1.606,10.764 C2.67266667,10.032 4.13933333,9.666 6.006,9.666 L9.006,9.666 L9.006,9.586 C9.006,8.05 8.19333333,7.282 6.568,7.282 C5.816226,7.29337235 5.07202228,7.43409451 4.368,7.698 C3.66251672,7.93710853 2.99856446,8.28460386 2.4,8.728 L0.6,6.128 C2.47990847,4.7574663 4.75376091,4.033904 7.08,4.066 C8.828,4.066 10.256,4.50333333 11.364,5.378 C12.472,6.25266667 13.0253333,7.636 13.0240024,9.528 L13.006,18.716 Z M8.962,13.226 L8.962,12.53 L6.454,12.53 C4.846,12.53 4.04266667,13.03 4.044,14.03 C4.01726925,14.5023575 4.23473084,14.9554025 4.62,15.23 C5.002,15.506 5.552,15.644 6.266,15.644 C6.95279644,15.6535496 7.62109086,15.4213456 8.154,14.988 C8.69320178,14.5658084 8.99677402,13.9103007 8.97,13.226 L8.962,13.226 Z" id="Shape"></path><path d="M29.908,10.954 L29.908,18.72 L25.866,18.72 L25.866,10.844 C25.866,9.70266667 25.692,8.864 25.344,8.328 C24.996,7.792 24.4333333,7.52533333 23.656,7.528 C22.879441,7.527933 22.1358104,7.84168597 21.594,8.398 C20.9953333,8.978 20.6966667,9.83 20.698,10.954 L20.698,18.72 L16.682,18.72 L16.682,4.32 L20.698,4.32 L20.698,5.954 C21.8033333,4.70466667 23.07,4.08 24.498,4.08 C25.3879288,4.07320222 26.2562927,4.35377213 26.974,4.88 C27.686786,5.38175791 28.2623446,6.05427448 28.648,6.836 C29.1949593,5.96716283 29.9678617,5.26339306 30.884,4.8 C31.753475,4.33547906 32.7222665,4.08779229 33.708,4.078 C35.404,4.078 36.77,4.582 37.806,5.59 C38.842,6.598 39.36,8.05266667 39.36,9.954 L39.36,18.71 L35.318,18.71 L35.318,10.844 C35.318,8.63066667 34.5053333,7.524 32.88,7.524 C32.0944758,7.51710013 31.3402213,7.83137284 30.792,8.394 C30.204,8.974 29.9093333,9.82733333 29.908,10.954 Z" id="Path"></path><path d="M55.238,18.716 L51.462,18.716 L51.462,16.976 C50.4286667,18.2773333 49.148,18.9286667 47.62,18.930003 C46.092,18.9313333 44.8113333,18.4893333 43.778,17.604 C42.742,16.72 42.2246667,15.542 42.2259974,14.07 C42.2273333,12.598 42.7606667,11.496 43.826,10.764 C44.8926667,10.032 46.356,9.666 48.216,9.666 L51.216,9.666 L51.216,9.586 C51.216,8.05 50.404,7.282 48.78,7.282 C48.02823,7.29341211 47.284033,7.434133 46.58,7.698 C45.8745167,7.93710853 45.2105645,8.28460386 44.612,8.728 L42.812,6.128 C44.6919085,4.7574663 46.9657609,4.033904 49.292,4.066 C51.0426667,4.066 52.4706667,4.50333333 53.576,5.378 C54.6813333,6.25266667 55.2346667,7.636 55.236,9.528 L55.238,18.716 Z M51.194,13.226 L51.194,12.53 L48.678,12.53 C47.078,12.53 46.2746667,13.03 46.268,14.03 C46.2412692,14.5023575 46.4587308,14.9554025 46.844,15.23 C47.228,15.506 47.7766667,15.644 48.49,15.644 C49.1768517,15.6538916 49.8452596,15.4216482 50.378,14.988 C50.9172018,14.5658084 51.220774,13.9103007 51.194,13.226 L51.194,13.226 Z" id="Shape"></path><path d="M63.538,7.202 L63.538,13.656 C63.5105148,14.1276769 63.6643431,14.5920235 63.968,14.954 C64.221411,15.2517588 64.5930056,15.4229264 64.984,15.422 C65.7346667,15.422 66.3686667,15.0826667 66.886,14.404 L68.384,17.216 C67.136,18.3573333 65.82,18.9286667 64.436,18.93 C63.1312685,18.9608307 61.8683078,18.4690393 60.928,17.564 C59.972,16.6546667 59.4946667,15.414 59.496,13.842 L59.496,7.202 L57.806,7.202 L57.806,4.31 L59.494,4.31 L59.494,0 L63.536,0 L63.536,4.31 L67.018,4.31 L67.018,7.202 L63.538,7.202 Z" id="Path"></path><path d="M79.818,12.076 L79.818,4.31 L83.86,4.31 L83.86,18.71 L79.818,18.71 L79.818,16.814 C78.818,18.226 77.528,18.9313333 75.948,18.9300019 C74.368,18.9286667 73.0426667,18.4333333 71.972,17.444 C70.9053333,16.4533333 70.372,14.9866667 70.372,13.044 L70.372,4.31 L74.406,4.31 L74.406,12.154 C74.406,14.3686667 75.2186667,15.4753333 76.844,15.474 C77.6295242,15.4808999 78.3837787,15.1666272 78.932,14.604 C79.5213333,14.0253333 79.8166667,13.1826667 79.818,12.076 Z" id="Path"></path><path d="M98.508,14.232 C98.508,15.6506667 97.9853333,16.788 96.94,17.644 C95.8946667,18.5 94.5693333,18.9286667 92.964,18.93 C91.8250192,18.918405 90.6952953,18.7239277 89.618,18.354 C88.4787082,17.9824869 87.4166822,17.4064039 86.484,16.654 L88.252,14.138 C89.752,15.298 91.352,15.878 93.052,15.878 C93.4842276,15.9008526 93.9133769,15.7935652 94.284,15.57 C94.5697715,15.3969761 94.7430965,15.0860554 94.74,14.752 C94.74,14.4146667 94.53,14.1026667 94.11,13.816 C93.5438798,13.4652495 92.9312016,13.1959404 92.29,13.016 C91.49,12.7666667 90.8826667,12.5526667 90.468,12.374 C89.97114,12.1531145 89.4923427,11.8936545 89.036,11.598 C87.948,10.9206667 87.4033333,9.91666667 87.402,8.586 C87.3762166,7.30607613 87.9726372,6.09310582 89.002,5.332 C90.0686667,4.49466667 91.452,4.07533333 93.152,4.07399767 C94.852,4.07266667 96.548,4.644 98.24,5.788 L96.74,8.464 C95.4906667,7.608 94.2453333,7.18 93.004,7.18 C91.7626667,7.18 91.1426667,7.51933333 91.144,8.198 C91.1498595,8.58193765 91.3798497,8.92692291 91.732,9.08 C92.3606306,9.38713833 93.0151772,9.63811481 93.688,9.83 C94.5986667,10.1153333 95.2453333,10.334 95.628,10.486 C96.1061418,10.6856074 96.5676045,10.9230266 97.008,11.196 C98.0066667,11.8 98.5066667,12.812 98.508,14.232 Z" id="Path"></path><path d="M101.866,18.248 C101.044256,17.4464159 100.905209,16.1751549 101.534246,15.2148881 C102.163284,14.2546214 103.384252,13.8742593 104.447364,14.3073791 C105.510476,14.7404988 106.118022,15.8658109 105.896911,16.9922702 C105.675801,18.1187295 104.687955,18.9308856 103.54,18.93 C102.911913,18.9427776 102.306338,18.696062 101.866,18.248 L101.866,18.248 Z" id="Path"></path></g></g></g></g></g></svg> 