<?xml version="1.0" encoding="UTF-8"?> <svg xmlns="http://www.w3.org/2000/svg" xmlns:xlink="http://www.w3.org/1999/xlink" width="112px" height="19px" viewBox="0 0 112 19" version="1.1"><!-- Generator: Sketch 64 (93537) - https://sketch.com --><title>metomic-logo</title><desc>Created with Sketch.</desc><g id="Pages" stroke="none" stroke-width="1" fill="none" fill-rule="evenodd"><g id="Together---About" transform="translate(-413.000000, -6199.000000)" fill="#121214" fill-rule="nonzero"><g id="Group-14" transform="translate(132.500000, 5826.625000)"><g id="Group" transform="translate(280.800000, 372.400000)"><g id="Group-2"><g id="metomic-logo" transform="translate(0.026000, 0.000000)"><path d="M11.0488495,10.9194768 C11.0488495,9.20508225 11.8706819,8.19538036 13.4439581,8.19538036 C14.9235044,8.19538036 15.4166106,9.2521975 15.4166106,10.6141945 L15.4166106,17.9172175 L18.7510781,17.9172175 L18.7510781,10.2384783 C18.7510781,7.3735025 17.2483269,5.330507 14.2894619,5.330507 C12.5281569,5.330507 11.2837091,5.87061475 10.2034368,7.06822025 C9.4991309,5.98801611 8.30140025,5.330507 6.634121,5.330507 C4.8729184,5.330507 3.6518349,6.05847286 3.08823777,7.11518761 L3.08823777,5.61229986 L0.012016896,5.61229986 L0.012016896,17.9172175 L3.34655265,17.9172175 L3.34655265,10.8490541 C3.34655265,9.20508225 4.1919199,8.19538036 5.741775,8.19538036 C7.2212075,8.19538036 7.71431375,9.2521975 7.71431375,10.6141945 L7.71431375,17.9172175 L11.0488495,17.9172175 L11.0488495,10.9194768 Z" id="Path"></path><path d="M33.1425006,12.7276013 C33.1425006,12.7276013 33.1893656,12.2814738 33.1893656,11.7413888 C33.1893656,8.10146836 30.7237206,5.330507 27.0838344,5.330507 C23.4440619,5.330507 20.9080056,8.10146836 20.9080056,11.7413888 C20.9080056,15.5220975 23.4676081,18.1989763 27.1074944,18.1989763 C29.9487419,18.1989763 32.2030394,16.4847638 32.9311531,13.9955725 L29.5730256,13.9955725 C29.1737631,14.8879413 28.2109831,15.3340688 27.2012244,15.3340688 C25.5341044,15.3340688 24.4539344,14.4182675 24.2190406,12.7276013 L33.1425006,12.7276013 Z M27.0602881,8.00752225 C28.6103594,8.00752225 29.6198906,8.94683561 29.8547844,10.3322196 L24.2659056,10.3322196 C24.5478919,8.92335764 25.5341044,8.00752225 27.0602881,8.00752225 Z" id="Shape"></path><path d="M41.2190919,14.9584663 C41.2190919,14.9584663 40.890468,15.07597 40.444113,15.07597 C39.5754044,15.07597 39.199688,14.7002538 39.199688,13.8781825 L39.199688,8.24247289 L41.242638,8.24247289 L41.242638,5.61241364 L39.199688,5.61241364 L39.199688,2.559648 L35.8651069,2.559648 L35.8651069,5.61241364 L34.1978731,5.61241364 L34.1978731,8.24247289 L35.8651069,8.24247289 L35.8651069,14.23058 C35.8651069,16.6021538 36.9453905,17.9877425 39.6458155,17.9877425 C40.655688,17.9877425 41.2190919,17.84692 41.2190919,17.84692 L41.2190919,14.9584663 Z" id="Path"></path><path d="M48.7158994,18.1989763 C52.6610905,18.1989763 55.1734869,15.2636575 55.1734869,11.7647075 C55.1734869,8.26583711 52.6610905,5.330507 48.7158994,5.330507 C44.7708219,5.330507 42.2580844,8.26583711 42.2580844,11.7647075 C42.2580844,15.2636575 44.7708219,18.1989763 48.7158994,18.1989763 Z M45.5926658,11.7647075 C45.5926658,9.55747975 46.9545944,8.26583711 48.7158994,8.26583711 C50.4772044,8.26583711 51.8392469,9.55747975 51.8392469,11.7647075 C51.8392469,13.9720263 50.4772044,15.2636575 48.7158994,15.2636575 C46.9545944,15.2636575 45.5926658,13.9720263 45.5926658,11.7647075 Z" id="Shape"></path><path d="M68.4942944,10.9194768 C68.4942944,9.20508225 69.3163658,8.19538036 70.8896419,8.19538036 C72.3689608,8.19538036 72.8621805,9.2521975 72.8621805,10.6141945 L72.8621805,17.9172175 L76.1967619,17.9172175 L76.1967619,10.2384783 C76.1967619,7.3735025 74.6938969,5.330507 71.7350319,5.330507 C69.9738405,5.330507 68.7290744,5.87061475 67.6491319,7.06822025 C66.9445644,5.98801611 65.7470044,5.330507 64.0796569,5.330507 C62.3184655,5.330507 61.0972458,6.05847286 60.5338419,7.11518761 L60.5338419,5.61229986 L57.457473,5.61229986 L57.457473,17.9172175 L60.7919405,17.9172175 L60.7919405,10.8490541 C60.7919405,9.20508225 61.6374444,8.19538036 63.1874019,8.19538036 C64.6667208,8.19538036 65.1599405,9.2521975 65.1599405,10.6141945 L65.1599405,17.9172175 L68.4942944,17.9172175 L68.4942944,10.9194768 Z" id="Path"></path><path d="M80.795788,4.01553425 C81.9698019,4.01553425 82.8153055,3.19365638 82.8153055,2.01950613 C82.8153055,0.845369525 81.9698019,0 80.795788,0 C79.6215469,0 78.7763844,0.845369525 78.7763844,2.01950613 C78.7763844,3.19365638 79.6215469,4.01553425 80.795788,4.01553425 Z M79.1285544,17.9172175 L82.4631355,17.9172175 L82.4631355,5.61236811 L79.1285544,5.61236811 L79.1285544,17.9172175 Z" id="Shape"></path><path d="M84.751558,11.7647075 C84.751558,15.4280263 87.3580255,18.1989763 90.9275005,18.1989763 C94.7553019,18.1989763 96.5634719,15.4984375 96.7982519,13.4086225 L93.369713,13.4086225 C93.111273,14.46536 92.1250605,15.2401113 90.9038405,15.2401113 C89.1193305,15.2401113 88.0861394,13.8312038 88.0861394,11.7647075 C88.0861394,9.69834775 89.1193305,8.2893265 90.9038405,8.2893265 C92.1250605,8.2893265 93.111273,9.06421425 93.369713,10.120929 L96.7982519,10.120929 C96.5634719,8.03101161 94.7553019,5.330507 90.9275005,5.330507 C87.3580255,5.330507 84.751558,8.10146836 84.751558,11.7647075 Z" id="Path"></path><polygon id="Path" points="111.48713 14.6498625 99.7457419 14.6498625 99.7457419 17.7965288 111.48713 17.7965288"></polygon></g></g></g></g></g></g></svg> 