<?xml version="1.0" encoding="UTF-8"?> <svg xmlns="http://www.w3.org/2000/svg" xmlns:xlink="http://www.w3.org/1999/xlink" width="101px" height="28px" viewBox="0 0 101 28" version="1.1"><!-- Generator: Sketch 64 (93537) - https://sketch.com --><title>openedge-logo</title><desc>Created with Sketch.</desc><defs><polygon id="path-1" points="0.0236470588 0.0941941176 99.6739297 0.0941941176 99.6739297 17.691153 0.0236470588 17.691153"></polygon><polygon id="path-3" points="0.0236470588 0.0941941176 99.6739297 0.0941941176 99.6739297 17.691153 0.0236470588 17.691153"></polygon></defs><g id="Pages" stroke="none" stroke-width="1" fill="none" fill-rule="evenodd"><g id="Together---About" transform="translate(-677.000000, -6194.000000)"><g id="Group-14" transform="translate(132.500000, 5826.625000)"><g id="Group" transform="translate(545.200000, 368.200000)"><g id="openedge-logo"><path d="M35.3275235,14.7504807 C36.3356765,14.7504807 37.0182882,14.1455101 37.0182882,12.0661454 C37.0182882,11.0268572 36.8168941,9.58359831 35.2959941,9.58359831 C33.6206,9.58359831 33.6052294,11.5234454 33.6052294,12.2371924 C33.6052294,13.9902278 34.1948294,14.7504807 35.3275235,14.7504807 Z M35.2959941,8.048116 C38.1356118,8.048116 39.3609235,9.97219831 39.3609235,12.1595513 C39.3609235,14.3626689 38.0895,16.3490219 35.2494882,16.3490219 C33.0152353,16.3490219 31.2460412,14.9676395 31.2460412,12.2214278 C31.2460412,10.3288748 32.2092647,8.048116 35.2959941,8.048116 L35.2959941,8.048116 Z" id="Fill-1" fill="#121214" fill-rule="nonzero"></path><path d="M46.2276353,12.0819101 C46.2276353,11.1510042 45.9943176,9.55285716 44.6444647,9.55285716 C43.8995824,9.55285716 42.8449235,10.111716 42.8449235,12.2214278 C42.8449235,12.6868807 42.8599,14.6728395 44.551453,14.6728395 C45.6380353,14.6728395 46.2276353,13.6335513 46.2276353,12.0819101 Z M42.8449235,8.2337454 L42.9064059,9.3506748 C43.620153,8.09422776 44.9235,8.07846304 45.2967294,8.07846304 C47.3288,8.07846304 48.5541118,9.59936304 48.5541118,11.9885042 C48.5541118,14.2077807 47.4064412,16.1779748 45.141053,16.1779748 C43.7289294,16.1779748 43.1550941,15.4334866 42.9537,15.1690336 L42.9537,19.0790748 L40.6106706,19.0790748 L40.6106706,8.2337454 L42.8449235,8.2337454 L42.8449235,8.2337454 Z" id="Fill-2" fill="#121214" fill-rule="nonzero"></path><path d="M54.5364236,11.2905219 C54.5364236,10.9334513 54.504894,9.53748656 53.1704118,9.53748656 C52.1622588,9.53748656 51.7433118,10.3749866 51.6968059,11.2905219 L54.5364236,11.2905219 Z M51.6191647,12.7337807 C51.6191647,13.2449513 51.6191647,14.8277278 53.2177059,14.8277278 C53.7907528,14.8277278 54.3649824,14.610963 54.5821412,13.7415395 L56.6776648,13.7415395 C56.6461352,14.1143748 56.568494,14.781616 55.9323885,15.448463 C55.3581588,16.0538278 54.3342412,16.3636042 53.1861765,16.3636042 C52.5185412,16.3636042 51.2463294,16.2398513 50.4245941,15.3861924 C49.7112412,14.6420983 49.416047,13.5870454 49.416047,12.3298101 C49.416047,11.0575983 49.7262176,9.53748656 51.0449353,8.6223454 C51.6503,8.21798068 52.3947882,7.97008068 53.248447,7.97008068 C54.3649824,7.97008068 55.7002528,8.40479243 56.414,9.86302776 C56.9409352,10.9334513 56.910194,12.0819101 56.8790588,12.7337807 L51.6191647,12.7337807 L51.6191647,12.7337807 Z" id="Fill-3" fill="#121214" fill-rule="nonzero"></path><path d="M58.4003528,9.63010425 C58.4003528,9.59936304 58.4003528,8.74609831 58.3538472,8.20339831 L60.5565703,8.20339831 L60.6188412,9.38220425 C60.836,9.02513364 61.4571297,8.01658656 63.1632648,8.01658656 C64.6995352,8.01658656 65.351406,8.94749243 65.5528,9.49019243 C65.7230588,9.97219831 65.7703528,10.3749866 65.7703528,11.8332219 L65.7703528,16.0695924 L63.4277176,16.0695924 L63.4277176,11.197116 C63.4277176,10.8719689 63.4277176,10.5925395 63.3023885,10.3438513 C63.1329176,10.0025454 62.7754528,9.67700425 62.1858528,9.67700425 C61.6892648,9.67700425 61.2399703,9.90913952 60.9912824,10.2819748 C60.8513703,10.4833689 60.7122472,10.8719689 60.7122472,11.4765454 L60.7122472,16.0695924 L58.4003528,16.0695924 L58.4003528,9.63010425" id="Fill-4" fill="#121214" fill-rule="nonzero"></path><path d="M73.2416412,11.5392101 C73.1328648,10.0340748 72.326106,8.90138068 70.7129824,8.90138068 C69.1916885,8.90138068 68.3845352,10.1735924 68.2607824,11.5392101 L73.2416412,11.5392101 Z M68.2300412,12.3916866 C68.2607824,14.0524983 69.0210352,15.448463 70.9297472,15.448463 C72.031306,15.448463 72.9464472,14.657863 73.1793703,13.5870454 L74.1563885,13.5870454 C73.6759588,15.448463 72.5117352,16.3017278 70.6353412,16.3017278 C68.306894,16.3017278 67.2211,14.3007924 67.2211,12.175316 C67.2211,10.064816 68.3845352,8.048116 70.6968236,8.048116 C73.3031236,8.048116 74.2501885,9.95643364 74.2501885,12.3916866 L68.2300412,12.3916866 L68.2300412,12.3916866 Z" id="Fill-5" fill="#121214" fill-rule="nonzero"></path><path d="M78.7411588,8.90138068 C76.9727528,8.90138068 76.3981297,10.5460336 76.3981297,12.0357983 C76.3981297,13.4782689 76.8178648,15.448463 78.6020352,15.448463 C80.634894,15.448463 81.2552352,13.7573042 81.2552352,11.9885042 C81.2552352,10.4057278 80.5572528,8.90138068 78.7411588,8.90138068 Z M81.2863703,14.9211336 L81.2552352,14.8592572 C80.6187352,15.7905572 79.6720648,16.3017278 78.5866648,16.3017278 C76.2743764,16.3017278 75.3907648,14.0986101 75.3907648,12.1437866 C75.3907648,10.1266924 76.2743764,8.048116 78.5866648,8.048116 C79.6259528,8.048116 80.7125352,8.54431013 81.2552352,9.4598454 L81.2863703,9.42871013 L81.2863703,4.86758658 L82.2164885,4.86758658 L82.2164885,14.3157689 C82.2164885,14.9211336 82.2637824,15.5418689 82.2945236,16.0695924 L81.3324824,16.0695924 L81.2863703,14.9211336 L81.2863703,14.9211336 Z" id="Fill-6" fill="#121214" fill-rule="nonzero"></path><path d="M87.3849472,8.90138068 C85.6937885,8.90138068 84.9800412,10.6079101 84.9800412,12.0357983 C84.9800412,13.4621101 85.7083703,15.1847983 87.415294,15.1847983 C89.1998588,15.1847983 89.8828648,13.5251689 89.8828648,12.0042689 C89.8828648,10.5148983 89.0599472,8.90138068 87.3849472,8.90138068 Z M89.9289764,8.28025128 L90.8910176,8.28025128 C90.8602764,8.8079748 90.8133764,9.42871013 90.8133764,10.0340748 L90.8133764,14.7039748 C90.8133764,16.255616 90.8910176,17.8845042 89.1687236,18.6916572 C88.5479885,18.9864572 88.1290412,19.0487278 87.4003176,19.0487278 C85.988194,19.0487278 84.312406,18.567116 84.312406,16.9535983 L85.3209528,16.9535983 C85.4293352,17.8845042 86.5312885,18.1950689 87.5240703,18.1950689 C88.7348,18.1950689 89.8513352,17.3418042 89.8828648,16.0384572 L89.8828648,14.5798278 L89.8513352,14.5798278 C89.4008588,15.495363 88.3308297,16.0384572 87.3226764,16.0384572 C84.9800412,16.0384572 83.9711,14.2538924 83.9711,12.1126513 C83.9711,10.0025454 84.9177703,8.048116 87.2911472,8.048116 C88.4238412,8.048116 89.2313885,8.590816 89.8513352,9.49019243 L89.8828648,9.42871013 L89.9289764,8.28025128 L89.9289764,8.28025128 Z" id="Fill-7" fill="#121214" fill-rule="nonzero"></path><g id="Group-11" transform="translate(0.000000, 7.953922)"><g id="Fill-8-Clipped"><g><mask id="mask-2" fill="white"><use xlink:href="#path-1"></use></mask><g id="path-1"></g><path d="M98.6653824,3.58528824 C98.5562115,2.08015294 97.7502412,0.947458824 96.1363297,0.947458824 C94.6154297,0.947458824 93.8082764,2.21967059 93.6845236,3.58528824 L98.6653824,3.58528824 Z M93.6537824,4.4377647 C93.6845236,6.09857648 94.4447764,7.49454115 96.3542764,7.49454115 C97.4550472,7.49454115 98.3705824,6.70394115 98.6031115,5.63312352 L99.5801297,5.63312352 C99.0997,7.49454115 97.9358703,8.34780588 96.0590824,8.34780588 C93.7314236,8.34780588 92.6452352,6.3468706 92.6452352,4.22139412 C92.6452352,2.11089412 93.8082764,0.0941941176 96.1209588,0.0941941176 C98.7272588,0.0941941176 99.6739297,2.00251176 99.6739297,4.4377647 L93.6537824,4.4377647 L93.6537824,4.4377647 Z" id="Fill-8" fill="#121214" fill-rule="nonzero" mask="url(#mask-2)"></path></g></g><g id="Fill-10-Clipped"><g><mask id="mask-4" fill="white"><use xlink:href="#path-3"></use></mask><g id="path-3"></g><path d="M10.6533941,10.3392824 C10.6533941,9.50335885 10.7341882,8.71630588 10.8792235,7.9663 C9.62435297,8.62447648 8.16966472,8.96144703 6.50530588,8.96144703 C3.77840588,8.96144703 1.6103647,8.08098824 0,6.3200706 L0,13.9769882 C0,13.9769882 0,17.691153 4.32701765,17.691153 L13.2971353,17.691153 C13.1312118,17.5299588 12.9672588,17.3660059 12.8155235,17.1870765 C11.373053,15.5160176 10.6533941,13.2332882 10.6533941,10.3392824" id="Fill-10" fill="#121214" fill-rule="nonzero" mask="url(#mask-4)"></path></g></g></g><path d="M21.1507176,0.0293983388 L12.6456588,0.0293983388 C12.7954235,0.172068927 12.9471588,0.313163044 13.088253,0.470021868 C14.7005882,2.2530101 15.5057706,4.55465716 15.5057706,7.37378068 C15.5057706,8.168716 15.4297059,8.9151748 15.2980706,9.62616304 C16.4981588,8.99872776 17.8834824,8.67633952 19.4635,8.67633952 C21.9105765,8.67633952 23.9115118,9.388116 25.4777353,10.7939336 L25.4777353,3.74356304 C25.4777353,3.74356304 25.4777353,0.0293983388 21.1507176,0.0293983388" id="Fill-12" fill="#121214" fill-rule="nonzero"></path><path d="M10.8780412,11.9754983 C11.9279706,10.8029983 12.4533294,9.26988068 12.4533294,7.37378068 C12.4533294,5.42723364 11.9378235,3.87480422 10.9095706,2.71452187 C9.88092352,1.55423952 8.42426472,0.974492456 6.5372294,0.974492456 C4.67068824,0.974492456 3.22309412,1.5605454 2.19444706,2.73343952 C1.16619412,3.90633363 0.65305294,5.45285128 0.65305294,7.37378068 C0.65305294,9.26988068 1.17171176,10.8029983 2.211,11.9754983 C3.25028824,13.1491807 4.69157647,13.7348395 6.5372294,13.7348395 C8.38130588,13.7348395 9.82811176,13.1491807 10.8780412,11.9754983" id="Fill-13" fill="#121214" fill-rule="nonzero"></path><path d="M19.4303941,11.8568689 C17.563853,11.8568689 16.116653,12.4429219 15.0880059,13.6162101 C14.5705294,14.2065983 14.1835059,14.8919689 13.926147,15.6723219 L24.9728706,15.6723219 C24.7155118,14.8793572 24.3261235,14.1868924 23.8027353,13.5968983 C22.7740882,12.436616 21.3174294,11.8568689 19.4303941,11.8568689" id="Fill-14" fill="#121214" fill-rule="nonzero"></path><path d="M19.4303941,24.617216 C21.2740765,24.617216 22.7212765,24.031163 23.7712059,22.8582689 C24.7143294,21.8047924 25.2322,20.4596689 25.3287588,18.8232924 L13.5635588,18.8232924 C13.6585412,20.4596689 14.1705,21.8047924 15.1045588,22.8582689 C16.143453,24.031163 17.5851353,24.617216 19.4303941,24.617216" id="Fill-15" fill="#121214" fill-rule="nonzero"></path><path d="M33.4259059,23.8490807 L32.7898,21.8686395 L32.143447,23.8490807 L33.4259059,23.8490807 Z M31.2614118,25.384563 L32.5087941,21.6203454 L33.0853882,21.6203454 L34.3201588,25.384563 L33.925253,25.384563 L33.5425647,24.2140336 L32.0216647,24.2140336 L31.6437059,25.384563 L31.2614118,25.384563 L31.2614118,25.384563 Z" id="Fill-16" fill="#121214" fill-rule="nonzero"></path><path d="M38.2841941,24.7035278 L38.2841941,23.3741689 C37.9874235,23.1108983 37.6993235,22.979263 37.4191059,22.979263 C37.1755412,22.979263 36.9828176,23.0726689 36.840147,23.2586924 C36.6974765,23.4451101 36.6265353,23.7008924 36.6265353,24.0252513 C36.6265353,24.3665572 36.6982647,24.6325866 36.8425118,24.8241278 C36.9867588,25.0156689 37.1786941,25.1114395 37.4191059,25.1114395 C37.6890765,25.1114395 37.9775706,24.975863 38.2841941,24.7035278 Z M38.3062647,25.0140924 C37.9830882,25.297463 37.6693706,25.4393741 37.3643235,25.4393741 C37.0431176,25.4409219 36.7759059,25.3136219 36.5630824,25.0582336 C36.3502588,24.8020572 36.243847,24.4686336 36.243847,24.0575689 C36.243847,23.6437454 36.3502588,23.3067748 36.5630824,23.0474454 C36.7759059,22.788116 37.0446941,22.6588454 37.369447,22.6588454 C37.677647,22.6588454 37.9823,22.7904807 38.2841941,23.0537513 L38.2841941,21.6203454 L38.6467824,21.6203454 L38.6467824,24.5494278 C38.6467824,24.9238395 38.6775235,25.2020866 38.7386118,25.384563 L38.3657765,25.384563 C38.3291235,25.2568689 38.3098118,25.1339042 38.3062647,25.0140924 L38.3062647,25.0140924 Z" id="Fill-17" fill="#121214" fill-rule="nonzero"></path><path d="M39.6107941,25.384563 L40.1044501,25.384563 L40.1044501,22.7132336 L39.6107941,22.7132336 L39.6107941,25.384563 Z M39.6107941,22.0873748 L40.1044501,22.0873748 L40.1044501,21.6546336 L39.6107941,21.6546336 L39.6107941,22.0873748 Z" id="Fill-18" fill="#121214" fill-rule="nonzero"></path><polyline id="Fill-19" fill="#121214" fill-rule="nonzero" points="41.5045294 25.384563 40.5574647 22.7132336 40.960253 22.7132336 41.6755765 24.875363 42.3936588 22.7132336 42.7865941 22.7132336 41.8348 25.384563 41.5045294 25.384563"></polyline><path d="M43.3706765,25.384563 L43.8637965,25.384563 L43.8637965,22.7132336 L43.3706765,22.7132336 L43.3706765,25.384563 Z M43.3706765,22.0873748 L43.8637965,22.0873748 L43.8637965,21.6546336 L43.3706765,21.6546336 L43.3706765,22.0873748 Z" id="Fill-20" fill="#121214" fill-rule="nonzero"></path><path d="M44.3670059,24.922263 L44.6775706,24.7035278 C44.9558176,24.9821689 45.2340647,25.1212924 45.5127059,25.1212924 C45.6865118,25.119716 45.8272118,25.076363 45.9340176,24.9920219 C46.0404294,24.9072866 46.0932412,24.801663 46.0916647,24.6739689 C46.0916647,24.4201572 45.8390353,24.2416219 45.3337765,24.1371807 C44.7473294,24.017763 44.4541059,23.7635572 44.4541059,23.3741689 C44.4541059,23.1688336 44.538447,22.9985748 44.7075235,22.8622101 C44.8766,22.7266336 45.0957294,22.6588454 45.3657,22.6588454 C45.7684882,22.6588454 46.092453,22.7952101 46.3375941,23.0687278 L46.0617118,23.3146572 C45.8595294,23.082916 45.6293647,22.9670454 45.3712176,22.9670454 C45.2052941,22.9670454 45.0724765,23.0017278 44.9719765,23.0726689 C44.8718706,23.1428219 44.8210294,23.2354395 44.8190588,23.3493395 C44.8190588,23.5664983 45.0212412,23.7138983 45.4256059,23.7919336 C46.1145235,23.9259336 46.4593765,24.2160042 46.4593765,24.6617513 C46.4593765,24.8836395 46.3726706,25.0688748 46.200047,25.2166689 C46.0266353,25.3652513 45.7992294,25.4393454 45.5174353,25.4393454 C45.1248941,25.4393454 44.7414176,25.267116 44.3670059,24.922263" id="Fill-21" fill="#121214" fill-rule="nonzero"></path><path d="M47.1553882,25.384563 L47.6485082,25.384563 L47.6485082,22.7132336 L47.1553882,22.7132336 L47.1553882,25.384563 Z M47.1553882,22.0873748 L47.6485082,22.0873748 L47.6485082,21.6546336 L47.1553882,21.6546336 L47.1553882,22.0873748 Z" id="Fill-22" fill="#121214" fill-rule="nonzero"></path><path d="M50.2740412,24.037863 C50.2740412,23.7115336 50.2019176,23.4522042 50.0576706,23.2602689 C49.9134235,23.0679395 49.7179412,22.9717748 49.4712235,22.9717748 C49.214653,22.9717748 49.0112882,23.0706983 48.8611294,23.2685454 C48.7113647,23.4667866 48.6364824,23.7245395 48.6364824,24.0425924 C48.6364824,24.3657689 48.7113647,24.6270689 48.8623118,24.8264924 C49.0132588,25.0267042 49.2126824,25.1260219 49.4613706,25.1260219 C49.6998118,25.1244454 49.8949,25.0247336 50.0466353,24.8264924 C50.1983706,24.6286454 50.2740412,24.3657689 50.2740412,24.037863 Z M48.2537941,24.0575689 C48.2537941,23.6370454 48.3669059,23.2981042 48.5927353,23.0415336 C48.8189588,22.7845689 49.1086353,22.6572689 49.4613706,22.6588167 C49.804253,22.6588167 50.0892,22.7908748 50.3162118,23.0553278 C50.5432235,23.3189924 50.6563353,23.6583278 50.6563353,24.0725454 C50.6563353,24.4769101 50.5436176,24.8056042 50.3185765,25.0590219 C50.0931412,25.3128336 49.8192294,25.4393454 49.496053,25.4393454 C49.1350412,25.4393454 48.8374824,25.3104689 48.6041647,25.052716 C48.370453,24.7953572 48.2537941,24.4635101 48.2537941,24.0575689 L48.2537941,24.0575689 Z" id="Fill-23" fill="#121214" fill-rule="nonzero"></path><path d="M51.7547412,23.3197807 L51.7547412,25.384563 L51.392153,25.384563 L51.392153,22.7132336 L51.7547412,22.7132336 L51.7547412,23.0237983 C52.1591059,22.7802336 52.498047,22.6588454 52.7711706,22.6588454 C52.9981824,22.6588454 53.1802647,22.7353042 53.3182059,22.888616 C53.4553588,23.0415336 53.5243294,23.2484454 53.5243294,23.508563 L53.5243294,25.384563 L53.1637118,25.384563 L53.1637118,23.6027572 C53.1637118,23.1972101 53.0111882,22.9942395 52.7069294,22.9942395 C52.4412941,22.9942395 52.1244235,23.1026219 51.7547412,23.3197807" id="Fill-24" fill="#121214" fill-rule="nonzero"></path><path d="M57.8655352,24.037863 C57.8655352,23.7115336 57.7934115,23.4522042 57.6491648,23.2602689 C57.5049176,23.0679395 57.3098297,22.9717748 57.0627176,22.9717748 C56.8061472,22.9717748 56.6027824,23.0706983 56.4526236,23.2685454 C56.3028588,23.4667866 56.2279764,23.7245395 56.2279764,24.0425924 C56.2279764,24.3657689 56.3032528,24.6270689 56.4542,24.8264924 C56.6047528,25.0267042 56.8041764,25.1260219 57.0528648,25.1260219 C57.291306,25.1244454 57.486394,25.0247336 57.6381297,24.8264924 C57.7898648,24.6286454 57.8655352,24.3657689 57.8655352,24.037863 Z M55.8452885,24.0575689 C55.8452885,23.6370454 55.9584,23.2981042 56.1842297,23.0415336 C56.4104528,22.7845689 56.6997352,22.6572689 57.0528648,22.6588167 C57.3957472,22.6588167 57.680694,22.7908748 57.907706,23.0553278 C58.1347176,23.3189924 58.2482236,23.6583278 58.2482236,24.0725454 C58.2482236,24.4769101 58.135506,24.8056042 57.9104648,25.0590219 C57.6846352,25.3128336 57.4107236,25.4393454 57.0875472,25.4393454 C56.7265352,25.4393454 56.4289764,25.3104689 56.1956588,25.052716 C55.9619472,24.7953572 55.8452885,24.4635101 55.8452885,24.0575689 L55.8452885,24.0575689 Z" id="Fill-25" fill="#121214" fill-rule="nonzero"></path><path d="M58.6135703,22.7132336 L59.1129176,22.7132336 L59.1129176,22.295863 C59.1129176,22.0854042 59.181494,21.9198748 59.3178588,21.7988807 C59.4546176,21.6778866 59.6390648,21.6183748 59.870806,21.6203454 C59.9456885,21.6203454 60.0071703,21.6215278 60.0572236,21.6246807 L60.0572236,21.9651983 C60.0142648,21.9588924 59.9583,21.9553454 59.8905115,21.9553454 C59.6122648,21.9553454 59.4731412,22.0787042 59.4731412,22.325816 L59.4731412,22.7132336 L60.0272703,22.7132336 L60.0272703,23.0438983 L59.4731412,23.0438983 L59.4731412,25.384563 L59.1129176,25.384563 L59.1129176,23.0438983 L58.6135703,23.0438983 L58.6135703,22.7132336" id="Fill-26" fill="#121214" fill-rule="nonzero"></path><path d="M63.2381472,26.0060866 C62.718306,26.0060866 62.4546412,25.8906101 62.4546412,25.6632042 C62.4546412,25.5331454 62.5370115,25.4294924 62.6993885,25.354216 L63.5629,25.431463 C63.6913824,25.4424983 63.7887297,25.4704807 63.8529703,25.5142278 C63.9168176,25.5567924 63.9483472,25.6163042 63.9467703,25.6903983 C63.9467703,25.9000689 63.7083297,26.0060866 63.2381472,26.0060866 Z M63.6310824,23.5633454 C63.6326588,23.7020748 63.583394,23.8214924 63.4844703,23.9176572 C63.3859412,24.014216 63.2637648,24.0630866 63.121094,24.0630866 C62.9807885,24.0630866 62.859006,24.0134278 62.7589,23.9168689 C62.6595824,23.8195219 62.6079528,23.7001042 62.6063764,23.5633454 C62.6079528,23.4257983 62.6584,23.3067748 62.7565352,23.2098219 C62.8546703,23.1124748 62.9788176,23.0636042 63.1262176,23.0636042 C63.2602176,23.0636042 63.3796352,23.1124748 63.4809236,23.2098219 C63.5822115,23.3067748 63.6326588,23.4257983 63.6310824,23.5633454 Z M63.8837115,22.7999395 C63.6937472,22.6848572 63.4371764,22.6265278 63.121094,22.6265278 C62.7474703,22.6265278 62.457006,22.7092924 62.2571885,22.8724572 C62.0573703,23.036016 61.9560824,23.2701219 61.9560824,23.5680748 C61.9560824,23.893616 62.0983588,24.1545219 62.3785764,24.3448807 C62.1397412,24.433163 62.0183528,24.5829278 62.0183528,24.7906278 C62.0183528,24.969163 62.1255528,25.1161689 62.3360115,25.226916 C62.0132297,25.3144101 61.8492764,25.4972807 61.8492764,25.769616 C61.8492764,26.2390101 62.2930528,26.4774513 63.1683885,26.4774513 C64.0933824,26.4774513 64.5619885,26.1901395 64.5619885,25.6230042 C64.5619885,25.3573689 64.4725236,25.1697689 64.2963528,25.0653278 C64.1205764,24.9608866 63.8316885,24.9029513 63.4367824,24.8930983 C63.0300528,24.8796983 62.7868824,24.8595983 62.7139703,24.8327983 C62.6414528,24.8056042 62.6063764,24.761463 62.6063764,24.6987983 C62.6063764,24.6164278 62.6651,24.543516 62.7817588,24.4796689 C62.905906,24.4962219 63.0312352,24.5044983 63.1534115,24.5044983 C63.496294,24.5029219 63.7725703,24.4158219 63.9751472,24.2463513 C64.1781176,24.0768807 64.2813764,23.846716 64.2813764,23.5633454 C64.2813764,23.3824454 64.2376297,23.2208572 64.1513176,23.082916 C64.2451176,23.0332572 64.3460115,23.0084278 64.4508472,23.0084278 L64.5872115,23.0084278 L64.5872115,22.5473101 L64.5150885,22.5473101 C64.3188176,22.5473101 64.1067824,22.6320454 63.8837115,22.7999395 L63.8837115,22.7999395 Z" id="Fill-27" fill="#121214" fill-rule="nonzero"></path><polygon id="Fill-28" fill="#121214" fill-rule="nonzero" points="65.0250764 25.3892924 65.719906 25.3892924 65.719906 21.5233924 65.0250764 21.5233924"></polygon><path d="M68.139,23.970863 C68.139,24.6061807 67.9529764,24.9277807 67.5868412,24.9277807 C67.2321352,24.9277807 67.0520236,24.6317983 67.0520236,24.047716 C67.0520236,23.4388042 67.2345,23.1302101 67.5943297,23.1302101 C67.7606472,23.1302101 67.8942528,23.2039101 67.991994,23.3493395 C68.0893412,23.4955572 68.139,23.7044395 68.139,23.970863 Z M67.5269352,22.6217983 C67.1777472,22.6217983 66.892406,22.7502807 66.678794,23.0033042 C66.4655764,23.2563278 66.357194,23.598816 66.357194,24.0205219 C66.357194,24.4505042 66.4734588,24.7969336 66.7024412,25.0511395 C66.9318176,25.3049513 67.2333176,25.4338278 67.5990588,25.4338278 C67.9600703,25.4338278 68.2576297,25.3045572 68.4834588,25.0483807 C68.7092885,24.7933866 68.8235824,24.4453807 68.8235824,24.0153983 C68.8255528,23.5806866 68.7112588,23.2358336 68.4846412,22.9910866 C68.2576297,22.7463395 67.9352412,22.6217983 67.5269352,22.6217983 L67.5269352,22.6217983 Z" id="Fill-29" fill="#121214" fill-rule="nonzero"></path><path d="M70.1557,23.478216 C70.3078297,23.2949513 70.4796648,23.2023336 70.6656885,23.2023336 C70.8324,23.2023336 70.9675824,23.2724866 71.0669,23.4104278 C71.167006,23.5491572 71.2170588,23.7406983 71.2154824,23.980716 C71.2154824,24.2585689 71.1650352,24.4761219 71.0661115,24.6278572 C70.966794,24.7791983 70.8272764,24.8556572 70.6507115,24.8556572 C70.4812412,24.8556572 70.3141352,24.7630395 70.1557,24.580563 L70.1557,23.478216 Z M70.899006,22.6265278 C70.6357352,22.6265278 70.3854703,22.7502807 70.1557,22.992663 L70.1557,21.5233924 L69.4608703,21.5233924 L69.4608703,25.3888983 L70.1557,25.3888983 L70.1557,25.079516 C70.4000528,25.3148042 70.6503176,25.4338278 70.899006,25.4338278 C71.1977472,25.4338278 71.4472236,25.3037689 71.6407352,25.0483807 C71.8346412,24.7925983 71.9327764,24.4422278 71.9327764,24.0059395 C71.9327764,23.5940866 71.8354297,23.2575101 71.6431,23.006063 C71.4507703,22.754616 71.200506,22.6265278 70.899006,22.6265278 L70.899006,22.6265278 Z" id="Fill-30" fill="#121214" fill-rule="nonzero"></path><path d="M73.9636648,23.9960866 L73.9636648,24.6645101 C73.7342885,24.8659042 73.5317115,24.9675866 73.3618472,24.9675866 C73.2656824,24.9675866 73.1876472,24.9364513 73.1289236,24.8745748 C73.070594,24.8126983 73.0406412,24.7295395 73.0406412,24.6266748 C73.0406412,24.3255689 73.351206,24.1127454 73.9636648,23.9960866 Z M74.6537648,24.8304336 L74.6537648,23.5633454 C74.6537648,23.2732748 74.5532648,23.0423219 74.3550236,22.8767924 C74.1567824,22.7108689 73.8844472,22.6265278 73.545506,22.6265278 C73.0824176,22.6265278 72.708006,22.7920572 72.4313352,23.1183866 L72.4281824,23.1215395 L72.882994,23.4675748 L72.8857528,23.4640278 C73.0642885,23.2259807 73.2739588,23.1053807 73.5084588,23.1053807 L73.5179176,23.1053807 C73.6558588,23.1053807 73.7650297,23.1428219 73.8430648,23.2161278 C73.9230703,23.2910101 73.9636648,23.394663 73.9636648,23.5231454 L73.9636648,23.598816 C73.3898297,23.6567513 72.9736412,23.786416 72.7265297,23.9830807 C72.4786297,24.1813219 72.3533,24.4170042 72.3533,24.6838219 C72.3533,24.8966454 72.4356703,25.076363 72.5984412,25.2190336 C72.7608176,25.3617042 72.962606,25.4338278 73.197894,25.4338278 C73.4753528,25.4338278 73.7417764,25.3266278 73.9900703,25.1149866 C74.0030764,25.1953866 74.0251472,25.2864278 74.055494,25.3861395 L74.0566764,25.3888983 L74.7471703,25.3888983 L74.7452,25.3833807 C74.684506,25.2005101 74.6537648,25.0148807 74.6537648,24.8304336 L74.6537648,24.8304336 Z" id="Fill-31" fill="#121214" fill-rule="nonzero"></path><polygon id="Fill-32" fill="#121214" fill-rule="nonzero" points="75.4546115 25.3892924 76.1494412 25.3892924 76.1494412 21.5233924 75.4546115 21.5233924"></polygon><path d="M77.4070703,23.3840219 L77.4070703,24.7338748 C77.7172412,24.9920219 78.0104648,25.1212924 78.2871352,25.1212924 C78.5173,25.119716 78.704506,25.022763 78.8487528,24.8304336 C78.993,24.6381042 79.0647297,24.3756219 79.0647297,24.0425924 C79.0667,23.7182336 78.993,23.4612689 78.8436297,23.2724866 C78.6946528,23.0837042 78.5023236,22.989116 78.2670352,22.989116 C78.0104648,22.989116 77.7235472,23.1207513 77.4070703,23.3840219 Z M77.4070703,22.7132336 L77.4070703,23.0687278 C77.713694,22.7952101 78.0171648,22.6588168 78.316694,22.6588168 C78.6446,22.6572689 78.9153588,22.784963 79.1281824,23.042716 C79.341006,23.3000748 79.4474176,23.6370454 79.4474176,24.0528395 C79.4474176,24.466663 79.341006,24.801663 79.1281824,25.0566572 C78.9153588,25.3116513 78.6446,25.4393454 78.316694,25.4393454 C78.001794,25.4393454 77.6987176,25.3045572 77.4070703,25.0341924 L77.4070703,26.4009924 L77.0448764,26.4009924 L77.0448764,22.7132336 L77.4070703,22.7132336 L77.4070703,22.7132336 Z" id="Fill-33" fill="#121214" fill-rule="nonzero"></path><path d="M81.7065,24.7283572 L81.7065,23.8786395 C81.0853703,24.0213101 80.6948,24.1545219 80.5359703,24.279063 C80.3771412,24.4032101 80.2963472,24.5478513 80.2951648,24.7137748 C80.2963472,24.8327983 80.3420648,24.9309336 80.4303472,25.0069983 C80.5190236,25.083063 80.6337115,25.1212924 80.7744115,25.1212924 C81.0329528,25.1212924 81.3435176,24.9904454 81.7065,24.7283572 Z M81.7065,24.9376336 C81.3750472,25.2722395 81.0305885,25.4393454 80.6727297,25.4393454 C80.4457176,25.4393454 80.2624528,25.3707689 80.1233297,25.2328278 C79.984206,25.0956748 79.9148412,24.9238395 79.9148412,24.7188983 C79.9148412,24.4981924 80.004306,24.3003454 80.1832352,24.124963 C80.3621648,23.9491866 80.8697885,23.7793219 81.7065,23.6153689 L81.7065,23.5483689 C81.7065,23.334363 81.6556588,23.1818395 81.5547648,23.0900101 C81.4534764,22.9977866 81.3293297,22.9516748 81.1819297,22.9516748 C80.8658472,22.9516748 80.5533115,23.1018336 80.2451115,23.401363 L79.9790824,23.1755336 C80.3105352,22.8310748 80.6892824,22.6588454 81.1149297,22.6588454 C81.3849,22.6588454 81.6111236,22.7333336 81.7936,22.8823101 C81.9756824,23.0312866 82.0667236,23.2756395 82.0667236,23.6153689 L82.0667236,24.7433336 C82.0667236,24.9821689 82.0903703,25.1957807 82.1388472,25.384563 L81.7762588,25.384563 C81.7325115,25.240316 81.7096528,25.0917336 81.7065,24.9376336 L81.7065,24.9376336 Z" id="Fill-34" fill="#121214" fill-rule="nonzero"></path><path d="M83.6274297,25.384563 L82.6011472,22.7132336 L83.0035412,22.7132336 L83.8162115,24.8974336 L84.6261236,22.7132336 L85.0336412,22.7132336 L83.9431176,25.5560042 C83.8185764,25.8843042 83.716106,26.094763 83.635706,26.1873807 C83.555306,26.2803924 83.4516528,26.3497572 83.3239588,26.3970513 C83.1966588,26.4443454 83.0449236,26.4679924 82.8691472,26.4679924 C82.7930824,26.4679924 82.678,26.4549866 82.5239,26.4281866 L82.6161236,26.0801807 C82.6953412,26.0990983 82.7812588,26.1077689 82.8738764,26.1077689 C83.0350703,26.1077689 83.1706472,26.0774219 83.2817885,26.0171219 C83.3929297,25.9564278 83.5076176,25.7459689 83.6274297,25.384563" id="Fill-35" fill="#121214" fill-rule="nonzero"></path><path d="M85.9854352,23.4518101 L85.9854352,25.384563 L85.6177236,25.384563 L85.6177236,22.7132336 L85.9854352,22.7132336 L85.9854352,23.1357278 C86.4477352,22.8176748 86.8059885,22.658792 87.0590115,22.658792 C87.3770648,22.658792 87.5926472,22.8176748 87.7049703,23.1357278 C88.018294,22.9236924 88.2480648,22.7912689 88.3950703,22.738063 C88.5412885,22.6852513 88.6776528,22.658792 88.8037703,22.658792 C89.002406,22.6572689 89.1651764,22.7242689 89.2916885,22.8602395 C89.4182,22.995816 89.4820472,23.173563 89.4820472,23.3942689 L89.4820472,25.384563 L89.1139412,25.384563 L89.1139412,23.5010748 C89.1139412,23.3536748 89.0757115,23.2311042 88.9984648,23.1329689 C88.9216115,23.0352278 88.8211115,22.9871454 88.6965703,22.989116 C88.4880824,22.989116 88.1672703,23.1436101 87.7349236,23.4518101 L87.7349236,25.384563 L87.3695764,25.384563 L87.3695764,23.5010748 C87.3695764,23.3568278 87.3329236,23.2358336 87.2592236,23.1369101 C87.1855236,23.0383807 87.0830528,22.989116 86.952206,22.989116 C86.7397764,22.989116 86.4177824,23.1436101 85.9854352,23.4518101" id="Fill-36" fill="#121214" fill-rule="nonzero"></path><path d="M90.5855764,23.7568572 L92.0808588,23.7568572 C92.0564236,23.508563 91.9732648,23.3115042 91.8325648,23.1656807 C91.6918648,23.0198572 91.5251528,22.9469454 91.3328236,22.9469454 C91.1290648,22.9469454 90.9552588,23.0277395 90.811406,23.1893278 C90.6671588,23.3505219 90.5914885,23.5400924 90.5855764,23.7568572 Z M92.1628352,24.577016 L92.4564528,24.7858983 C92.1317,25.2213983 91.7659588,25.4393741 91.3580472,25.4393741 C91.0317176,25.4409219 90.758594,25.3136219 90.5390703,25.0582336 C90.3199412,24.8020572 90.2088,24.4619336 90.2072236,24.037863 C90.2072236,23.6252219 90.315606,23.2921924 90.5319764,23.0391689 C90.7479528,22.7853572 91.0116176,22.6588136 91.3233648,22.6588136 C91.6146176,22.6572689 91.8751297,22.771563 92.1049,23.0029101 C92.3342764,23.233863 92.4513297,23.5936924 92.4564528,24.0823983 L90.570206,24.0823983 C90.583606,24.4055748 90.6632176,24.6593866 90.8090412,24.8442278 C90.9544703,25.0290689 91.1310352,25.1212924 91.3383412,25.1212924 C91.6445703,25.1212924 91.9196648,24.9399983 92.1628352,24.577016 L92.1628352,24.577016 Z" id="Fill-37" fill="#121214" fill-rule="nonzero"></path><path d="M93.5371236,23.3197807 L93.5371236,25.384563 L93.1745352,25.384563 L93.1745352,22.7132336 L93.5371236,22.7132336 L93.5371236,23.0237983 C93.9414885,22.7802336 94.2804297,22.6588454 94.5535528,22.6588454 C94.7805648,22.6588454 94.9626472,22.7353042 95.1005885,22.888616 C95.2381352,23.0415336 95.3067115,23.2484454 95.3067115,23.508563 L95.3067115,25.384563 L94.9464885,25.384563 L94.9464885,23.6027572 C94.9464885,23.1972101 94.7939648,22.9942395 94.4893115,22.9942395 C94.2240703,22.9942395 93.906806,23.1026219 93.5371236,23.3197807" id="Fill-38" fill="#121214" fill-rule="nonzero"></path><path d="M96.3601885,22.7132336 L96.3601885,21.7417336 L96.7180472,21.7417336 L96.7180472,22.7132336 L97.384106,22.7132336 L97.384106,23.0438983 L96.7180472,23.0438983 L96.7180472,24.6889454 C96.7180472,24.9904454 96.8532297,25.1413924 97.123594,25.1413924 C97.1693115,25.1413924 97.2564115,25.1279924 97.384106,25.1015866 L97.384106,25.424763 C97.2485297,25.4409219 97.1433,25.4491983 97.0688115,25.4491983 C96.8118472,25.4491983 96.6297648,25.3967807 96.5221703,25.2911572 C96.4137885,25.1863219 96.3601885,25.0117278 96.3601885,24.768163 L96.3601885,23.0438983 L95.8931588,23.0438983 L95.8931588,22.7132336 L96.3601885,22.7132336" id="Fill-39" fill="#121214" fill-rule="nonzero"></path><path d="M97.6473764,24.922263 L97.9579412,24.7035278 C98.2365824,24.9821689 98.5144352,25.1212924 98.7930764,25.1212924 C98.9672764,25.119716 99.1071885,25.076363 99.2143885,24.9920219 C99.3208,24.9072866 99.3736115,24.801663 99.3720352,24.6739689 C99.3720352,24.4201572 99.1198,24.2416219 98.6141472,24.1371807 C98.027306,24.017763 97.7344764,23.7635572 97.7344764,23.3741689 C97.7344764,23.1688336 97.8188176,22.9985748 97.987894,22.8622101 C98.1569703,22.7266336 98.3761,22.6588454 98.6460703,22.6588454 C99.0488588,22.6588454 99.3728236,22.7952101 99.6179648,23.0687278 L99.3424764,23.3146572 C99.140294,23.082916 98.9097352,22.9670454 98.651194,22.9670454 C98.4856648,22.9670454 98.3528472,23.0017278 98.2527412,23.0726689 C98.1522412,23.1428219 98.101006,23.2354395 98.0994297,23.3493395 C98.0994297,23.5664983 98.3016115,23.7138983 98.7063703,23.7919336 C99.394894,23.9259336 99.7397472,24.2160042 99.7397472,24.6617513 C99.7397472,24.8836395 99.6534352,25.0688748 99.4800236,25.2166689 C99.307006,25.3652513 99.0796,25.4393454 98.797806,25.4393454 C98.4052648,25.4393454 98.0217885,25.267116 97.6473764,24.922263" id="Fill-40" fill="#121214" fill-rule="nonzero"></path></g></g></g></g></g></svg> 