<?xml version="1.0" encoding="UTF-8"?> <svg xmlns="http://www.w3.org/2000/svg" xmlns:xlink="http://www.w3.org/1999/xlink" width="117px" height="25px" viewBox="0 0 117 25" version="1.1"><!-- Generator: Sketch 64 (93537) - https://sketch.com --><title>perdoo-logo</title><desc>Created with Sketch.</desc><g id="Pages" stroke="none" stroke-width="1" fill="none" fill-rule="evenodd"><g id="Together---About" transform="translate(-927.000000, -6195.000000)" fill-rule="nonzero"><g id="Group-14" transform="translate(132.500000, 5826.625000)"><g id="Group-2" transform="translate(795.000000, 369.000000)"><g id="perdoo-logo" transform="translate(0.112500, 0.000000)"><g id="Group" transform="translate(34.718609, 0.137871)" fill="#000000"><path d="M6.85793802,9.21282294 C5.32971371,9.21282294 3.95682805,10.251328 3.95682805,12.4063 C3.95682805,14.5352354 5.32971371,15.6257398 6.85793802,15.6257398 C8.41206439,15.6257398 9.78495012,14.561198 9.78495012,12.4063 C9.78495012,10.251328 8.41206439,9.21282294 6.85793802,9.21282294 Z M0.071438007,23.8041153 L0.071438007,5.9674947 L3.87912172,5.9674947 L3.87912172,7.29158865 C4.42306597,6.46071042 5.82177974,5.65586901 7.66090336,5.65586901 C11.3908807,5.65586901 13.644364,8.51183204 13.644364,12.3803375 C13.644364,16.3267307 11.1058835,19.1566569 7.5054907,19.1566569 C5.84775586,19.1566569 4.60438071,18.5854792 4.00863226,17.8585256 L4.00863226,22.809821 L0.071438007,23.8041153 Z" id="Shape"></path><path d="M23.3963297,10.8744606 C23.3445254,9.88788085 22.6709966,8.69360006 20.8060449,8.69360006 C19.1483101,8.69360006 18.3193687,9.91384352 18.2417364,10.8744606 L23.3963297,10.8744606 Z M26.9708944,15.1583681 C26.3491699,17.3912281 24.3029034,19.2605371 21.0391639,19.2605371 C17.4905012,19.2605371 14.3304442,16.7161256 14.3304442,12.380293 C14.3304442,8.22619866 17.412795,5.5780108 20.7542407,5.5780108 C24.7432392,5.5780108 27.2039394,8.04453441 27.2039394,12.1986288 C27.2039394,12.7438439 27.1522092,13.3409101 27.126233,13.4188722 L18.16403,13.4188722 C18.2417364,14.8727793 19.5627438,15.9112843 21.0910422,15.9112843 C22.515658,15.9112843 23.3186234,15.2362559 23.6812528,14.2237136 L26.9708944,15.1583681 Z" id="Shape"></path><path d="M44.1616638,15.6257175 C45.6898882,15.6257175 47.0627738,14.5352873 47.0627738,12.4062778 C47.0627738,10.2513799 45.6898882,9.21280069 44.1616638,9.21280069 C42.6334396,9.21280069 41.2606279,10.2513799 41.2606279,12.4062778 C41.2606279,14.5352873 42.6334396,15.6257175 44.1616638,15.6257175 Z M50.8963596,16.5603721 C50.8963596,17.7287644 50.974066,18.585457 50.9998942,18.8710459 L47.2181865,18.8710459 C47.1922844,18.7152701 47.1145781,18.1441665 47.1145781,17.6248398 C46.5188296,18.5076432 45.2237243,19.1567089 43.6695978,19.1567089 C40.0432288,19.1567089 37.2975316,16.3526711 37.2975316,12.3803152 C37.2975316,8.53777237 39.8877422,5.65592095 43.5400873,5.65592095 C45.7417664,5.65592095 46.7001443,6.48672497 47.0109697,6.98001485 L47.0319134,1.07544614 L50.8963596,0.073808038 L50.8963596,16.5603721 Z" id="Shape"></path><path d="M38.1926936,6.33136461 C37.0207342,5.8504626 36.1618944,5.83762965 35.8756391,5.83762965 C34.8395548,5.83762965 33.2077221,6.25303166 32.5342673,7.70693869 L32.5342673,5.96744278 L28.7265835,5.96744278 L28.7265835,18.8710904 L32.6637778,18.8710904 L32.6637778,13.2371263 C32.6637778,10.6667522 34.0883937,9.73209767 35.6684962,9.73209767 C35.7967487,9.73209767 35.9745111,9.74723022 36.1782497,9.78543232 C36.5307404,8.56845278 37.1347775,7.47008541 37.9607586,6.57170435 C38.0364668,6.4895141 38.1139512,6.40969756 38.1926936,6.33136461" id="Path"></path><path d="M62.1116685,12.4062852 C62.1116685,10.2254246 60.7129547,9.2128081 59.2106326,9.2128081 C57.7342125,9.2128081 56.3095225,10.2254246 56.3095225,12.4062852 C56.3095225,14.5611832 57.7342125,15.625725 59.2106326,15.625725 C60.7129547,15.625725 62.1116685,14.5871457 62.1116685,12.4062852 M66.0488628,12.4062852 C66.0488628,16.4046038 63.0700465,19.2604926 59.2106326,19.2604926 C55.3770467,19.2604926 52.3723284,16.4046038 52.3723284,12.4062852 C52.3723284,8.40796669 55.3770467,5.5779663 59.2106326,5.5779663 C63.0700465,5.5779663 66.0488628,8.40796669 66.0488628,12.4062852" id="Shape"></path><path d="M76.8287427,12.4062852 C76.8287427,10.2254246 75.4300283,9.2128081 73.9277062,9.2128081 C72.451286,9.2128081 71.0265962,10.2254246 71.0265962,12.4062852 C71.0265962,14.5611832 72.451286,15.625725 73.9277062,15.625725 C75.4300283,15.625725 76.8287427,14.5871457 76.8287427,12.4062852 M80.7659369,12.4062852 C80.7659369,16.4046038 77.7871205,19.2604926 73.9277062,19.2604926 C70.0941206,19.2604926 67.0894022,16.4046038 67.0894022,12.4062852 C67.0894022,8.40796669 70.0941206,5.5779663 73.9277062,5.5779663 C77.7871205,5.5779663 80.7659369,8.40796669 80.7659369,12.4062852" id="Shape"></path></g><g id="Group" transform="translate(0.000000, 0.137500)"><polygon id="Path" fill="#000000" opacity="0.573544" points="4.27365134 24.0185714 13.0510565 7.44274543 21.8277171 24.0185714 13.0510565 24.0185714"></polygon><polygon id="Path" fill="#000000" opacity="0.573544" points="13.0510565 7.44274543 21.8277171 24.0185714 13.0510565 24.0185714"></polygon><polygon id="Path" fill="#FFFFFF" points="7.13392227 18.6170281 13.0510565 7.44274543 18.9674462 18.6170281 13.0510565 15.5300017"></polygon><g fill="#000000" id="Path"><path d="M10.0999361,1.87028625 L0.393929525,19.9060499 C0.136143956,20.3307971 -0.00020952825,20.8194557 -4.87797505e-07,21.3177998 C-4.87797505e-07,22.7837608 1.22125601,24.0185714 2.67112517,24.0185714 L4.27365134,24.0185714 L13.0510565,7.42768678 L10.0999361,1.87028625 Z"></path><path d="M26.1013705,21.3177998 C26.1018021,20.8195279 25.9657077,20.3308746 25.7081835,19.9060499 L17.3403459,4.35647192 C17.3403459,4.35647192 17.2710917,4.2292262 17.2487517,4.186309 C13.0510565,-3.60730331 10.0999361,1.87028625 10.0999361,1.87028625 L21.8277171,24.0185714 L23.5069441,24.0185714 C24.9568132,24.0185714 26.1013705,22.783008 26.1013705,21.3177998 L26.1013705,21.3177998 Z"></path></g></g></g></g></g></g></g></svg> 