<?xml version="1.0" encoding="UTF-8"?> <svg xmlns="http://www.w3.org/2000/svg" width="95" height="19"><path d="M94.681 1.17h-8.586v3.623h8.586zM4.95 11.604h-1.7v6.4H0V1.35h6.575c3.249 0 5.338 2.236 5.338 5.165 0 2.313-1.393 4.086-3.559 4.703l3.559 6.861H8.277L4.95 11.604zm.93-2.774c1.624 0 2.63-.925 2.63-2.313 0-1.387-1.006-2.312-2.63-2.312H3.25V8.83h2.63zM16.013.735c1.083 0 1.933.848 1.933 1.928 0 1.002-.85 1.927-1.933 1.927a1.912 1.912 0 01-1.934-1.927c0-1.08.928-1.928 1.934-1.928zm-1.548 17.346V6.517h3.172v11.564h-3.172zM32.102 16c0 .77.077 1.618.077 2.08h-3.017c-.077-.23-.154-.77-.154-1.31-.542.925-1.702 1.62-3.25 1.62-3.325 0-5.646-2.622-5.646-6.091 0-3.392 2.32-6.09 5.57-6.09 2.01 0 2.939.847 3.248 1.464v-6.63h3.095V16h.077zm-5.956-.463c1.624 0 2.862-1.234 2.862-3.315 0-2.082-1.238-3.238-2.862-3.238-1.625 0-2.862 1.156-2.862 3.238 0 2.081 1.237 3.315 2.862 3.315zm19.725-.771c-.619 2.005-2.398 3.7-5.26 3.7-3.172 0-6.034-2.312-6.034-6.167 0-3.7 2.708-6.09 5.724-6.09 3.559 0 5.725 2.313 5.725 6.013 0 .463-.078.925-.078 1.003h-8.277c.078 1.541 1.393 2.62 2.94 2.62 1.47 0 2.243-.693 2.63-1.772l2.63.693zm-2.94-3.777c-.077-1.157-.773-2.313-2.63-2.313-1.624 0-2.552 1.234-2.63 2.313h5.26zm7.272 3.238c.077.925.773 1.773 2.088 1.773 1.006 0 1.547-.54 1.547-1.156 0-.54-.386-.925-1.237-1.157l-1.547-.385c-2.244-.463-3.25-1.85-3.25-3.47 0-2.08 1.857-3.777 4.333-3.777 3.326 0 4.409 2.082 4.563 3.315l-2.552.694c-.078-.694-.62-1.542-1.934-1.542-.851 0-1.47.463-1.47 1.157 0 .54.387.925 1.083 1.002l1.625.385c2.32.463 3.48 1.85 3.48 3.546 0 1.85-1.47 3.778-4.486 3.778-3.481 0-4.719-2.236-4.873-3.546l2.63-.617zM62.58 18.08h-3.172V1.044h3.171v6.399c.774-.925 2.012-1.234 3.172-1.234 2.94 0 4.332 2.082 4.332 4.626v7.324H66.91v-6.784c0-1.31-.619-2.313-2.166-2.313-1.315 0-2.088 1.002-2.166 2.236v6.784zm18.1-1.233c-.619 1.08-2.011 1.542-3.249 1.542-2.784 0-4.409-2.081-4.409-4.548V6.517h3.172v6.707c0 1.31.696 2.313 2.088 2.313 1.393 0 2.166-.925 2.166-2.313V6.517h3.172V16c0 .926.077 1.696.154 2.082h-3.016c-.078-.231-.078-.771-.078-1.234zm13.382-7.246c-.386-.077-.696-.077-.928-.077-1.624 0-3.017.77-3.017 3.238v5.32h-3.171V6.516h3.017v1.696c.696-1.542 2.32-1.85 3.326-1.85.232 0 .464 0 .696.077V9.6h.077z" fill="#121214"></path></svg> 