<?xml version="1.0" encoding="UTF-8"?> <svg xmlns="http://www.w3.org/2000/svg" xmlns:xlink="http://www.w3.org/1999/xlink" width="148px" height="16px" viewBox="0 0 148 16" version="1.1"><!-- Generator: Sketch 64 (93537) - https://sketch.com --><title>seedlegals-logo</title><desc>Created with Sketch.</desc><g id="Pages" stroke="none" stroke-width="1" fill="none" fill-rule="evenodd"><g id="Together---About" transform="translate(-133.000000, -6320.000000)" fill="#121214" fill-rule="nonzero"><g id="Group-14" transform="translate(132.500000, 5826.625000)"><g id="Group" transform="translate(0.400000, 493.600000)"><g id="Group-2"><g id="seedlegals-logo" transform="translate(0.173469, 0.000000)"><g id="SVGID_1_-link" transform="translate(0.033399, 0.009323)"><path d="M0.797253985,12.9223898 C-0.199313497,11.1796535 -0.181981889,9.03608781 0.831917205,7.3020652 L4.79218974,0.548961941 C4.96550581,0.243983085 5.28614057,0.0522820894 5.63277273,0.0522820894 C5.97940492,0.0522820894 6.30003966,0.243983085 6.47335575,0.548961941 L10.4336282,7.3020652 C11.4475274,9.03608781 11.4561932,11.1796535 10.4682915,12.9223898 C9.48038977,14.6651261 7.62590773,15.736909 5.63277273,15.736909 C3.63097196,15.736909 1.78515567,14.6651261 0.797253985,12.9223898 L0.797253985,12.9223898 Z" id="SVGID_1_"></path></g><path d="M19.0307935,12.7845883 C19.4206076,13.2390336 20.014188,13.6060855 20.8381132,13.8770049 C21.6531789,14.1479241 22.5125418,14.2790141 23.4073421,14.2790141 C24.1781108,14.2790141 24.8691448,14.1828815 25.4627253,13.9906162 C26.0563058,13.7983509 26.534714,13.5361709 26.8979498,13.1953369 C27.2611856,12.854503 27.5269679,12.4699723 27.7130155,12.0504844 C27.8990631,11.6309965 27.9876572,11.1590725 27.9876572,10.6609306 C27.9876572,10.197746 27.9079226,9.77825804 27.7484532,9.41120608 C27.5889837,9.04415412 27.3763579,8.73827749 27.1105756,8.50231549 C26.8447933,8.2663535 26.534714,8.05660959 26.189197,7.87308356 C25.84368,7.68955763 25.4804441,7.54972832 25.0994895,7.44485633 C24.7185348,7.33998434 24.3375802,7.23511232 23.965485,7.13024036 C23.5933898,7.02536837 23.230154,6.92923572 22.8846369,6.83310307 C22.5391199,6.73697038 22.2379,6.63209839 21.9721177,6.52722641 C21.7063354,6.41361511 21.4937095,6.2737858 21.3430995,6.10773848 C21.1924896,5.94169116 21.1127549,5.74068652 21.1127549,5.5134639 C21.1127549,5.0852366 21.2899431,4.74440265 21.6531789,4.48222268 C22.0075553,4.2200427 22.4859635,4.08895273 23.0884034,4.08895273 C24.1249544,4.08895273 25.0374736,4.35113271 25.8525394,4.87549262 C26.0208681,4.98910395 26.2069158,5.05027928 26.4195416,5.05027928 C26.6853239,5.05027928 26.924528,4.95414663 27.1282944,4.77062063 C27.3320609,4.58709467 27.4383738,4.35987201 27.4383738,4.09769204 C27.4383738,3.87920876 27.3674985,3.68694345 27.2346074,3.53837481 C26.8625121,3.13636551 26.3043693,2.83048888 25.54246,2.60326624 C24.7805507,2.3760436 24.0275009,2.26243228 23.2655915,2.26243228 C21.9809771,2.26243228 20.9444261,2.58578757 20.1470792,3.23249816 C19.3497323,3.87920876 18.93334,4.67448798 18.93334,5.6532932 C18.93334,6.11647782 19.0130747,6.52722641 19.1636846,6.88553906 C19.3142946,7.24385162 19.5269205,7.54098895 19.7927028,7.76821164 C20.0584851,7.99543426 20.3597051,8.20517824 20.7140814,8.3799649 C21.0595985,8.55475152 21.4228342,8.69458083 21.8037889,8.79945282 C22.1847435,8.90432481 22.5568388,9.00045746 22.9377934,9.10532945 C23.318748,9.21020144 23.6819839,9.30633409 24.0275009,9.40246671 C24.3730179,9.49859939 24.6830972,9.60347142 24.9488795,9.72582202 C25.2146619,9.84817268 25.4272876,10.0054807 25.5778976,10.197746 C25.7285076,10.3900113 25.8082423,10.6084946 25.8082423,10.8706746 C25.8082423,11.2989018 25.6133353,11.6659538 25.2235213,11.9805698 C24.8337072,12.2951857 24.2489861,12.4524937 23.4782174,12.4524937 C22.3353535,12.4524937 21.3076619,12.1029204 20.3774239,11.4037738 C20.2179545,11.2814232 20.0319068,11.2202478 19.819281,11.2202478 C19.5534987,11.2202478 19.323154,11.3163805 19.1193877,11.5173851 C18.9156212,11.7183898 18.8093083,11.9456124 18.8093083,12.2165317 C18.8181677,12.4175364 18.889043,12.6010623 19.0307935,12.7845883 L19.0307935,12.7845883 L19.0307935,12.7845883 Z M32.7185823,13.6934789 C32.9666457,13.9381801 33.2678657,14.0605308 33.6222421,14.0605308 L39.66436,14.0605308 C39.9124234,14.0605308 40.1250493,13.9731375 40.3022373,13.7896116 C40.4794257,13.6060855 40.5680198,13.3788629 40.5680198,13.116683 C40.5680198,12.8719816 40.4794257,12.6622377 40.3022373,12.487451 C40.1250493,12.3126644 39.9124234,12.2252711 39.66436,12.2252711 L34.4550269,12.2252711 L34.4550269,9.04415412 L39.5403282,9.04415412 C39.7883915,9.04415412 40.0010175,8.9567608 40.1782058,8.78197414 C40.3553938,8.60718752 40.443988,8.3887042 40.443988,8.1440029 C40.443988,7.88182293 40.3553938,7.66333965 40.1782058,7.47981361 C40.0010175,7.29628768 39.7883915,7.20889434 39.5403282,7.20889434 L34.4550269,7.20889434 L34.4550269,4.23752138 L39.66436,4.23752138 C39.9124234,4.23752138 40.1250493,4.15012807 40.3022373,3.97534141 C40.4794257,3.80055475 40.5680198,3.58207146 40.5680198,3.33737017 C40.5680198,3.08392952 40.4794257,2.86544621 40.3022373,2.68192023 C40.1250493,2.49839425 39.9124234,2.41100093 39.66436,2.41100093 L33.6222421,2.41100093 C33.2678657,2.41100093 32.9666457,2.53335158 32.7185823,2.77805289 C32.4705188,3.02275419 32.346487,3.31989149 32.346487,3.66072544 L32.346487,12.8108063 C32.346487,13.1516402 32.4705188,13.4400383 32.7185823,13.6934789 L32.7185823,13.6934789 Z M45.4318361,13.6934789 C45.6798994,13.9381801 45.9811192,14.0605308 46.3354959,14.0605308 L52.3776135,14.0605308 C52.6256769,14.0605308 52.8383028,13.9731375 53.0154912,13.7896116 C53.1926792,13.6060855 53.2812733,13.3788629 53.2812733,13.116683 C53.2812733,12.8719816 53.1926792,12.6622377 53.0154912,12.487451 C52.8383028,12.3126644 52.6256769,12.2252711 52.3776135,12.2252711 L47.1682804,12.2252711 L47.1682804,9.04415412 L52.2535817,9.04415412 C52.5016454,9.04415412 52.714271,8.9567608 52.8914593,8.78197414 C53.0686477,8.60718752 53.1572415,8.3887042 53.1572415,8.1440029 C53.1572415,7.88182293 53.0686477,7.66333965 52.8914593,7.47981361 C52.714271,7.29628768 52.5016454,7.20889434 52.2535817,7.20889434 L47.1682804,7.20889434 L47.1682804,4.23752138 L52.3776135,4.23752138 C52.6256769,4.23752138 52.8383028,4.15012807 53.0154912,3.97534141 C53.1926792,3.80055475 53.2812733,3.58207146 53.2812733,3.33737017 C53.2812733,3.08392952 53.1926792,2.86544621 53.0154912,2.68192023 C52.8383028,2.49839425 52.6256769,2.41100093 52.3776135,2.41100093 L46.3354959,2.41100093 C45.9811192,2.41100093 45.6798994,2.53335158 45.4318361,2.77805289 C45.1837724,3.02275419 45.0597406,3.31989149 45.0597406,3.66072544 L45.0597406,12.8108063 C45.0597406,13.1516402 45.1837724,13.4400383 45.4318361,13.6934789 L45.4318361,13.6934789 Z M58.153949,13.6934789 C58.4020123,13.9381801 58.7032325,14.0605308 59.0576088,14.0605308 L62.1849808,14.0605308 C63.3898604,14.0605308 64.4707086,13.8158295 65.409806,13.3264269 C66.3489035,12.8370243 67.0842344,12.146617 67.5980802,11.2639445 C68.1207854,10.3812719 68.3777085,9.36750942 68.3777085,8.24013552 C68.3777085,7.10402235 68.1207854,6.09899914 67.5980802,5.21632657 C67.075375,4.33365403 66.3489035,3.64324676 65.409806,3.14510484 C64.4707086,2.6469629 63.3898604,2.4022616 62.1849808,2.4022616 L59.0576088,2.4022616 C58.7032325,2.4022616 58.4020123,2.52461225 58.153949,2.76931356 C57.9058857,3.01401486 57.7818539,3.31115215 57.7818539,3.6519861 L57.7818539,12.802067 C57.7729944,13.1516402 57.8970263,13.4400383 58.153949,13.6934789 L58.153949,13.6934789 Z M59.8903933,4.23752138 L62.1938399,4.23752138 C63.0443435,4.23752138 63.770815,4.42104735 64.3909738,4.77935997 C65.0111326,5.1376726 65.4629625,5.61833589 65.7641823,6.21261047 C66.0654025,6.80688505 66.2160122,7.48855299 66.2160122,8.24013552 C66.2160122,9.37624873 65.8527765,10.3200967 65.1263047,11.0804185 C64.3998332,11.8407404 63.4252981,12.2252711 62.1849808,12.2252711 L59.8815339,12.2252711 L59.8815339,4.23752138 L59.8903933,4.23752138 Z" id="Shape"></path><path d="M73.25684,13.6881771 C73.5051533,13.931463 73.8066776,14.0531058 74.161411,14.0531058 L79.3759946,14.0531058 C79.6243082,14.0531058 79.8371478,13.9662181 80.023383,13.7837537 C80.2096182,13.6012894 80.2983016,13.3753811 80.2983016,13.1147177 C80.2983016,12.8714319 80.2096182,12.6629012 80.023383,12.4891256 C79.8371478,12.31535 79.6243082,12.2284622 79.3759946,12.2284622 L74.9950346,12.2284622 L74.9950346,3.36590726 C74.9950346,3.0965551 74.8886148,2.87064683 74.6846429,2.66211613 C74.480671,2.46227421 74.2323574,2.35800885 73.9485705,2.35800885 C73.6470471,2.35800885 73.3987335,2.45358542 73.1947616,2.65342735 C72.9907898,2.85326928 72.88437,3.08786633 72.88437,3.35721847 L72.88437,12.8019216 C72.8755016,13.1494728 72.9996581,13.4362025 73.25684,13.6881771 L73.25684,13.6881771 Z M84.9187069,13.6881771 C85.1670202,13.931463 85.4685435,14.0531058 85.8232769,14.0531058 L91.8714844,14.0531058 C92.119798,14.0531058 92.3326383,13.9662181 92.5100051,13.7837537 C92.6873716,13.6012894 92.7760554,13.3753811 92.7760554,13.1147177 C92.7760554,12.8714319 92.6873716,12.6629012 92.5100051,12.4891256 C92.3326383,12.31535 92.119798,12.2284622 91.8714844,12.2284622 L86.6569008,12.2284622 L86.6569008,9.06574654 L91.747328,9.06574654 C91.9956416,9.06574654 92.2084811,8.9788587 92.385848,8.80508315 C92.5632152,8.63130753 92.6518983,8.41408811 92.6518983,8.17080227 C92.6518983,7.91013888 92.5632152,7.69291936 92.385848,7.51045506 C92.2084811,7.32799065 91.9956416,7.24110288 91.747328,7.24110288 L86.6569008,7.24110288 L86.6569008,4.28691786 L91.8714844,4.28691786 C92.119798,4.28691786 92.3326383,4.20003008 92.5100051,4.0262545 C92.6873716,3.85247892 92.7760554,3.63525944 92.7760554,3.39197359 C92.7760554,3.139999 92.6873716,2.92277951 92.5100051,2.74031515 C92.3326383,2.55785078 92.119798,2.47096299 91.8714844,2.47096299 L85.8232769,2.47096299 C85.4685435,2.47096299 85.1670202,2.5926059 84.9187069,2.83589172 C84.6703933,3.07917754 84.5462362,3.37459605 84.5462362,3.71345842 L84.5462362,12.8106104 C84.5373679,13.1494728 84.661525,13.4362025 84.9187069,13.6881771 L84.9187069,13.6881771 Z M97.5826952,11.4204058 C98.1414005,12.3414164 98.8952093,13.0538963 99.8263843,13.5404679 C100.766429,14.0357283 101.804024,14.2790141 102.94804,14.2790141 C103.524482,14.2790141 104.100924,14.2095039 104.668498,14.0704834 C105.236072,13.931463 105.759304,13.731621 106.229326,13.4709576 C106.699348,13.2102942 107.080686,12.8801206 107.373341,12.4804368 C107.665996,12.080753 107.816759,11.6376252 107.816759,11.1684312 L107.816759,9.06574654 C107.816759,8.72688416 107.692602,8.43146565 107.444289,8.18817981 C107.195975,7.94489399 106.894451,7.8232511 106.539718,7.8232511 L103.027855,7.8232511 C102.779542,7.8232511 102.566701,7.91013888 102.389335,8.08391442 C102.211968,8.25769004 102.123285,8.46622077 102.123285,8.70950658 C102.123285,8.9788587 102.211968,9.19607821 102.389335,9.37854258 C102.566701,9.56100692 102.779542,9.64789476 103.027855,9.64789476 L105.706094,9.64789476 L105.706094,11.4290945 C105.413439,11.7071354 105.023232,11.9417325 104.517736,12.1502632 C104.012241,12.3587939 103.489009,12.4630592 102.939172,12.4630592 C101.777419,12.4630592 100.81077,12.0633754 100.048093,11.2726965 C99.2765474,10.4820175 98.8952093,9.48280793 98.8952093,8.26637883 C98.8952093,7.04994972 99.2765474,6.05942886 100.039225,5.26874994 C100.801902,4.4867598 101.768551,4.08707595 102.939172,4.08707595 C103.444668,4.08707595 103.932426,4.18265251 104.402448,4.38249445 C104.872469,4.58233636 105.289282,4.86037729 105.652884,5.21661728 C105.847987,5.41645919 106.087432,5.51203575 106.362351,5.51203575 C106.628401,5.51203575 106.858978,5.41645919 107.06295,5.23399482 C107.258053,5.05153045 107.364473,4.83431097 107.364473,4.57364758 C107.364473,4.30429543 107.27579,4.08707595 107.098423,3.91330037 C106.016486,2.80982538 104.633025,2.26243228 102.94804,2.26243228 C102.096679,2.26243228 101.298529,2.41014153 100.535852,2.69687125 C99.7731746,2.98360097 99.1169179,3.3832848 98.558212,3.89592279 C97.9995067,4.40856078 97.5560902,5.04284166 97.2279612,5.79876547 C96.8998328,6.55468927 96.7402027,7.37143452 96.7402027,8.26637883 C96.7402027,9.44805282 97.0239893,10.4993951 97.5826952,11.4204058 L97.5826952,11.4204058 Z M112.002615,13.8185088 C112.215454,14.0444171 112.490374,14.1486825 112.818502,14.1486825 C113.040211,14.1486825 113.253051,14.087861 113.448154,13.9575293 C113.643258,13.8358864 113.776283,13.6707996 113.847229,13.4622689 L114.485749,11.8374672 L119.868832,11.8374672 L120.489615,13.4622689 C120.578299,13.6707996 120.711324,13.8358864 120.897559,13.9575293 C121.083795,14.0791722 121.287766,14.1486825 121.518343,14.1486825 C121.846472,14.1486825 122.12139,14.0357283 122.33423,13.8011312 C122.54707,13.5665342 122.65349,13.3145596 122.65349,13.0278299 C122.65349,12.9322534 122.626886,12.8019216 122.582543,12.6455236 L118.875578,3.44410628 C118.733684,3.0965551 118.494239,2.82720294 118.16611,2.61867224 C117.855719,2.43620787 117.536459,2.34932008 117.190593,2.34932008 C117.163988,2.34932008 117.128515,2.34932008 117.10191,2.34932008 C116.738308,2.34932008 116.410179,2.44489665 116.108656,2.64473857 C115.807133,2.84458049 115.594292,3.10524388 115.461267,3.44410628 L111.772038,12.6455236 C111.709959,12.749789 111.674486,12.8801206 111.674486,13.0278299 C111.683354,13.340626 111.789775,13.6012894 112.002615,13.8185088 L112.002615,13.8185088 Z M117.181725,4.54758125 L119.274653,10.0215123 L115.062192,10.0215123 L117.181725,4.54758125 L117.181725,4.54758125 Z M127.273895,13.6881771 C127.522208,13.931463 127.823732,14.0531058 128.178466,14.0531058 L133.393049,14.0531058 C133.641362,14.0531058 133.854203,13.9662181 134.040438,13.7837537 C134.226673,13.6012894 134.315356,13.3753811 134.315356,13.1147177 C134.315356,12.8714319 134.226673,12.6629012 134.040438,12.4891256 C133.854203,12.31535 133.641362,12.2284622 133.393049,12.2284622 L129.012089,12.2284622 L129.012089,3.36590726 C129.012089,3.0965551 128.905669,2.87064683 128.701698,2.66211613 C128.497726,2.46227421 128.249412,2.35800885 127.965626,2.35800885 C127.664102,2.35800885 127.415789,2.45358542 127.211817,2.65342735 C127.007845,2.85326928 126.901425,3.08786633 126.901425,3.35721847 L126.901425,12.8019216 C126.901425,13.1494728 127.025582,13.4362025 127.273895,13.6881771 L127.273895,13.6881771 Z M138.270636,12.7845441 C138.660842,13.2363607 139.255021,13.6012894 140.079777,13.8706415 C140.895664,14.1399937 141.755893,14.2703254 142.651595,14.2703254 C143.423141,14.2703254 144.114872,14.1747488 144.70905,13.9835956 C145.303229,13.7924425 145.782119,13.5317791 146.145721,13.1929167 C146.509323,12.8540543 146.775373,12.471748 146.961608,12.0546866 C147.147844,11.6376252 147.236527,11.1684312 147.236527,10.6731707 C147.236527,10.2126654 147.156712,9.79560398 146.997081,9.43067527 C146.837451,9.06574654 146.624612,8.76163928 146.358561,8.52704222 C146.092511,8.29244516 145.782119,8.08391442 145.436254,7.90145009 C145.090388,7.71898569 144.726787,7.57996525 144.345449,7.47569987 C143.96411,7.37143452 143.582771,7.26716921 143.210301,7.16290383 C142.837831,7.05863848 142.474229,6.96306192 142.128364,6.86748535 C141.782498,6.77190876 141.480975,6.66764341 141.214924,6.56337806 C140.948874,6.45042392 140.736034,6.31140346 140.585273,6.14631666 C140.425642,5.97254105 140.354696,5.78138793 140.354696,5.55547965 C140.354696,5.12972947 140.532062,4.79086706 140.895664,4.53020371 C141.250398,4.26954032 141.729288,4.13920861 142.332335,4.13920861 C143.369931,4.13920861 144.28337,4.399872 145.099257,4.92119877 C145.267755,5.03415291 145.453991,5.09497435 145.666831,5.09497435 C145.932881,5.09497435 146.172326,4.99939779 146.376298,4.81693342 C146.580269,4.63446906 146.68669,4.40856078 146.68669,4.14789739 C146.68669,3.93067791 146.615743,3.73952478 146.482718,3.59181553 C146.110248,3.19213167 145.551542,2.8880244 144.788865,2.66211613 C144.026188,2.43620787 143.272379,2.32325374 142.509702,2.32325374 C141.223793,2.32325374 140.186197,2.64473857 139.388047,3.28770825 C138.589896,3.93067791 138.190821,4.74742319 138.190821,5.72056648 C138.190821,6.18107178 138.270636,6.58944439 138.421398,6.94568437 C138.572159,7.30192432 138.785,7.59734283 139.05105,7.82325374 C139.3171,8.04915931 139.618624,8.25769004 139.973357,8.43146565 C140.319222,8.6052412 140.682824,8.7442617 141.064163,8.84852705 C141.445501,8.95279237 141.817972,9.04836899 142.19931,9.15263431 C142.580649,9.25689963 142.94425,9.35247625 143.290115,9.44805282 C143.635981,9.54362938 143.946373,9.64789476 144.212423,9.76953765 C144.478473,9.89118054 144.691313,10.0475786 144.842075,10.2387318 C144.992837,10.4298849 145.072652,10.6471044 145.072652,10.9077678 C145.072652,11.3335179 144.877549,11.6984466 144.487341,12.0112427 C144.097135,12.3240388 143.511824,12.4804368 142.740279,12.4804368 C141.596263,12.4804368 140.567536,12.1328856 139.63636,11.4377833 C139.47673,11.3161404 139.290495,11.2553189 139.077655,11.2553189 C138.811605,11.2553189 138.581028,11.3508955 138.377056,11.5507374 C138.173084,11.7505794 138.066664,11.9764876 138.066664,12.2458398 C138.048928,12.4196154 138.128742,12.6020797 138.270636,12.7845441 L138.270636,12.7845441 L138.270636,12.7845441 Z" id="Shape"></path></g></g></g></g></g></g></svg> 