<?xml version="1.0" encoding="UTF-8"?> <svg xmlns="http://www.w3.org/2000/svg" xmlns:xlink="http://www.w3.org/1999/xlink" width="101px" height="28px" viewBox="0 0 101 28" version="1.1"><!-- Generator: Sketch 64 (93537) - https://sketch.com --><title>shepper-logo</title><desc>Created with Sketch.</desc><defs><polygon id="path-1" points="0 0.141724138 14.5125517 0.141724138 14.5125517 21.0696552 0 21.0696552"></polygon></defs><g id="Pages" stroke="none" stroke-width="1" fill="none" fill-rule="evenodd"><g id="Together---About" transform="translate(-415.000000, -6314.000000)"><g id="Group-14" transform="translate(132.500000, 5826.625000)"><g id="Group-2" transform="translate(282.400000, 488.000000)"><g id="Group-3"><g id="shepper-logo" transform="translate(0.084000, 0.000000)"><g id="Group" transform="translate(15.504977, 0.000000)" fill="#121214" fill-rule="nonzero"><path d="M85.1179309,19.283931 C85.1179227,20.1675488 84.585133,20.9639776 83.7684086,21.3012341 C82.9516847,21.6384905 82.0121935,21.4500224 81.3887383,20.8238564 C80.7652826,20.1976904 80.5808921,19.2573905 80.9216889,18.4421371 C81.2624852,17.6268837 82.0612182,17.0975541 82.9448276,17.1013384 C84.1502177,17.1013384 85.1273796,18.078541 85.1273796,19.283931" id="Path"></path><path d="M7.04682757,6.90668967 C8.5511912,6.86157787 10.0074844,7.43930923 11.0717931,8.50344829 C12.1306469,9.57826074 12.7041034,11.0392095 12.6591034,12.5473103 L12.6591034,21.2964138 L9.47503448,21.2964138 L9.47503448,13.1142069 C9.501651,12.291634 9.19897646,11.4924371 8.63413796,10.893862 C8.05380678,10.2968151 7.24553105,9.97694422 6.41379309,10.0151724 C5.58307113,9.98296225 4.77715683,10.3018986 4.19344828,10.893862 C3.62242137,11.4891767 3.3158183,12.2897514 3.34310345,13.1142069 L3.34310345,21.305862 L0.168482759,21.305862 L0.168482759,3.18406897 C0.168482759,1.42555623 1.59403899,0 3.35255172,0 L3.35255172,8.22 C4.37987207,7.34161206 5.69557777,6.87388036 7.04682757,6.90668967" id="Path"></path><path d="M27.7385517,14.2291034 C27.7336222,14.6980963 27.6893752,15.1658499 27.6062759,15.6274483 L17.062,15.6274483 C17.2621819,16.4765116 17.7578372,17.2266925 18.4603448,17.743862 C19.1963285,18.2824625 20.090239,18.5616019 21.001931,18.5375172 C22.4211065,18.6096083 23.7607755,17.8795434 24.4694483,16.647862 L27.1244138,18.3013103 C26.4988119,19.3147433 25.6237359,20.1507825 24.5828276,20.7295172 C23.4871734,21.3340383 22.2531864,21.6433491 21.001931,21.6271034 C19.0408877,21.6837795 17.1458175,20.9161561 15.7770345,19.5106897 C14.4066649,18.1259944 13.6595252,16.2427929 13.707862,14.2952414 C13.6481132,12.3449722 14.3612497,10.4500665 15.692,9.02310343 C16.9933717,7.62341936 18.8366024,6.85511947 20.7468276,6.91613796 C22.6461424,6.85334329 24.4806975,7.61057057 25.7827586,8.99475862 C27.0982896,10.4140684 27.801054,12.2948968 27.7385517,14.2291034 M20.7751724,9.98682757 C19.8874385,9.95629454 19.0153314,10.2259154 18.2997241,10.752138 C17.6234718,11.2954243 17.1642526,12.0630243 17.0053103,12.9157931 L24.4977931,12.9157931 C24.3448313,12.0656769 23.8881741,11.3001045 23.2128276,10.7615862 C22.512132,10.2334299 21.6522188,9.96012408 20.7751724,9.98682757" id="Shape"></path><path d="M51.4253793,6.90668967 C53.338861,6.84290992 55.1860926,7.61144096 56.4896552,9.01365519 C57.8186331,10.4417172 58.5314846,12.3358663 58.4737934,14.2857931 C58.5267165,16.2180156 57.813489,18.0927853 56.4896552,19.5012414 C55.1943712,20.8993685 53.3589016,21.6707478 51.4537241,21.6176552 C49.8917278,21.6666358 48.370286,21.1155358 47.202,20.0775862 L47.202,27.2393793 L43.9895862,27.2393793 L43.9895862,10.3931034 C43.9895862,8.65024516 45.402452,7.23737934 47.1453103,7.23737934 L47.1453103,9.12703448 C48.1034365,7.71381076 49.7188492,6.89005721 51.4253793,6.94448276 M51.1797241,18.5469655 C52.2825869,18.5835187 53.3484687,18.146851 54.1086897,17.3470345 C54.8808653,16.5333416 55.2958646,15.4448186 55.2613796,14.3235862 C55.2965743,13.1909755 54.8821794,12.0904507 54.1086897,11.2623448 C53.3522774,10.4559549 52.2847103,10.015153 51.1797241,10.0529655 C50.0626238,10.0091085 48.9810439,10.4500074 48.2129655,11.2623448 C47.4418959,12.0780545 47.0212832,13.1635067 47.0413793,14.2857931 C47.0068941,15.4070255 47.4218935,16.4955484 48.194069,17.3092414 C48.9659459,18.114991 50.0458331,18.5517607 51.1608276,18.5091724" id="Shape"></path><path d="M36.0908276,6.90668967 C37.9945358,6.85117573 39.8297752,7.61901509 41.1267586,9.01365519 C42.4557362,10.4417172 43.168588,12.3358663 43.1108966,14.2857931 C43.1638199,16.2180156 42.4505924,18.0927853 41.1267586,19.5012414 C39.8314746,20.8993685 37.996005,21.6707478 36.0908276,21.6176552 C34.5288313,21.6666358 33.0073895,21.1155358 31.8391034,20.0775862 L31.8391034,27.2393793 L28.6550345,27.2393793 L28.6550345,10.3931034 C28.6550345,8.65024516 30.0679003,7.23737934 31.8107586,7.23737934 L31.8107586,9.12703448 C32.7688848,7.71381076 34.3842975,6.89005721 36.0908276,6.94448276 M35.8451724,18.5469655 C36.9480352,18.5835187 38.0139169,18.146851 38.774138,17.3470345 C39.5463134,16.5333416 39.9613128,15.4448186 39.9268276,14.3235862 C39.9620229,13.1909755 39.5476277,12.0904507 38.774138,11.2623448 C38.0177257,10.4559549 36.9501586,10.015153 35.8451724,10.0529655 C34.7306616,9.9965817 33.6459737,10.42357 32.8689655,11.2245517 C32.0989123,12.054159 31.6879794,13.1545082 31.7257241,14.2857931 C31.6876451,15.4058594 32.0993232,16.4945947 32.8689655,17.3092414 C33.6408424,18.114991 34.7207296,18.5517607 35.8357241,18.5091724" id="Shape"></path><path d="M73.2981381,14.2291034 C73.2944298,14.6986085 73.2469834,15.1667468 73.1564138,15.6274483 L62.6121381,15.6274483 C62.8251101,16.4807323 63.3340339,17.2307256 64.0482757,17.743862 C64.7878154,18.2825269 65.6847062,18.5615595 66.5993105,18.5375172 C68.0184858,18.6096083 69.3581546,17.8795434 70.0668276,16.647862 L72.7217934,18.3013103 C72.0961911,19.3147433 71.2211151,20.1507825 70.1802066,20.7295172 C69.084553,21.3340383 67.8505655,21.643349 66.5993105,21.6271034 C64.6354336,21.6841136 62.7373183,20.9166447 61.3649657,19.5106897 C59.9945958,18.1259944 59.2474559,16.2427929 59.2957934,14.2952414 C59.2156314,12.3509793 59.9047266,10.453421 61.2137934,9.01365519 C62.5230963,7.61971154 64.3664072,6.85281173 66.2780691,6.90668967 C68.178846,6.84632473 70.0136278,7.60708803 71.314,8.99475862 C72.629531,10.4140684 73.3322955,12.2948968 73.2697934,14.2291034 M66.3064138,9.98682757 C65.4184812,9.95480305 64.5458948,10.2245722 63.8309657,10.752138 C63.1514627,11.2925862 62.6914562,12.0615022 62.5365519,12.9157931 L70.0290343,12.9157931 C69.8834378,12.0697574 69.4371926,11.3047657 68.7724138,10.7615862 C68.071718,10.2334299 67.2118052,9.96012408 66.3347586,9.98682757" id="Shape"></path></g><g id="Clipped" transform="translate(0.187736, 0.548000)"><g id="Path-Clipped"><mask id="mask-2" fill="white"><use xlink:href="#path-1"></use></mask><g id="path-1"></g><path d="M13.7377931,12.33 C13.0256142,11.3309942 12.0419127,10.5571491 10.9033103,10.1002069 C9.95848276,9.67503448 8.92862066,9.33489657 7.946,9.00420691 L7.19958619,8.74910343 C6.27378901,8.48647371 5.39187543,8.0884983 4.5824138,7.56806895 C4.04066414,7.18943476 3.73611816,6.55526258 3.77931034,5.89572414 C3.73509052,5.16438847 4.0529671,4.45799608 4.62965517,4.00606897 C5.30864915,3.50556632 6.13980789,3.25521729 6.98227586,3.29744828 C8.72321075,3.20459751 10.3301205,4.23028459 10.9788966,5.84848276 L13.7094483,4.17613793 C13.1311697,3.03551532 12.2729462,2.06026132 11.2151034,1.34165517 C9.96739543,0.5175967 8.49582446,0.0985619232 7.00117243,0.141724138 C5.33634697,0.0983412589 3.71204573,0.658792311 2.4282069,1.7195862 C1.16834905,2.77987651 0.4705601,4.36385743 0.538551724,6.00910343 C0.530624605,6.70717246 0.669022167,7.39916028 0.944827586,8.04048276 C1.18194355,8.56894914 1.5007904,9.05678482 1.88965517,9.48606895 C2.91731031,10.4114607 4.14666564,11.084371 5.48,11.4513103 L5.64062066,11.508 L6.79331033,11.885931 C7.70104521,12.1328769 8.58861078,12.4487366 9.44827586,12.8307586 C9.96758143,13.0283377 10.4289223,13.3532256 10.789931,13.7755862 C11.098528,14.1767984 11.2677183,14.6677821 11.2717931,15.173931 C11.3009097,15.768893 11.0779533,16.3485795 10.6576552,16.7706897 C9.76778622,17.5124502 8.63042997,17.890444 7.47358619,17.8288966 C5.09262069,17.8288966 3.55255172,16.884069 2.74944828,14.9944138 L0,16.7517931 C0.554395604,17.9663407 1.44234032,18.9984536 2.56048276,19.728 C4.0099398,20.6480032 5.70071884,21.1151056 7.41689657,21.0696552 C9.24880917,21.1483831 11.0505035,20.5834734 12.5095172,19.4728966 C14.5862508,17.6987398 15.1026024,14.6959564 13.7377931,12.33" id="Path" fill="#121214" fill-rule="nonzero" mask="url(#mask-2)"></path></g></g><path d="M98.4498051,7.04841381 C97.9991288,6.95481673 97.5400971,6.90733066 97.0798051,6.90668967 C95.4128664,6.83588078 93.8362961,7.66565471 92.9509084,9.07979309 L92.9509084,7.19013796 C92.1065747,7.18734031 91.2969841,7.52606453 90.7062072,8.12929767 C90.1154298,8.73253081 89.7936694,9.54901163 89.8140808,10.3931034 L89.8140808,21.3531034 L92.9981498,21.3531034 L92.9981498,15.7786207 C92.9981498,14.181862 92.9981498,12.7173793 93.9429775,11.3757241 C94.524314,10.6164129 95.3653887,10.098311 96.3050465,9.92068967 C97.0106311,9.77204154 97.737353,9.75283305 98.4498051,9.864 L98.4498051,7.04841381 Z" id="Path" fill="#121214" fill-rule="nonzero"></path></g></g></g></g></g></g></svg> 