<?xml version="1.0" encoding="UTF-8"?> <svg xmlns="http://www.w3.org/2000/svg" xmlns:xlink="http://www.w3.org/1999/xlink" width="115px" height="27px" viewBox="0 0 115 27" version="1.1"><!-- Generator: Sketch 64 (93537) - https://sketch.com --><title>tecknuovo-logo</title><desc>Created with Sketch.</desc><defs><polygon id="path-1" points="0.0815542379 0.100166548 87.013301 0.100166548 87.013301 20.2228854 0.0815542379 20.2228854"></polygon></defs><g id="Pages" stroke="none" stroke-width="1" fill="none" fill-rule="evenodd"><g id="Together---About" transform="translate(-666.000000, -6315.000000)"><g id="Group-14" transform="translate(132.500000, 5826.625000)"><g id="Group" transform="translate(533.800000, 488.400000)"><g id="tecknuovo-logo" transform="translate(0.189583, 0.000000)"><g id="Group-3" transform="translate(0.098968, 0.039147)" fill="#121214" fill-rule="nonzero"><path d="M12.971359,0.100166548 L12.971359,3.13107534 C18.4522385,3.13107534 22.9115306,7.59008883 22.9115306,13.0712469 L22.9115306,13.0712469 C22.9115306,18.5522656 18.4522385,23.0115578 12.971359,23.0115578 L12.971359,23.0115578 C7.48992227,23.0115578 3.03076947,18.5522656 3.03076947,13.0712469 L3.03076947,13.0712469 C3.03076947,11.9696935 3.21132003,10.9090983 3.54386182,9.91746348 L3.54386182,9.91746348 L7.48783256,9.91746348 L7.48783256,13.406993 C7.48783256,16.5627267 10.0551053,19.1290244 13.2105607,19.1290244 L13.2105607,19.1290244 C16.3661552,19.1290244 18.9330101,16.5627267 18.9330101,13.406993 L18.9330101,13.406993 L15.5832122,13.406993 C15.5832122,14.7155665 14.5185769,15.7792265 13.2105607,15.7792265 L13.2105607,15.7792265 C11.9021263,15.7792265 10.8377698,14.7155665 10.8377698,13.406993 L10.8377698,13.406993 L10.8377698,9.91746348 L14.4698171,9.91746348 L16.059665,6.56752631 L10.8377698,6.56752631 L10.8377698,0.276816316 C9.66056899,0.472134118 8.53630747,0.827244733 7.48783256,1.31790757 L7.48783256,1.31790757 L7.48783256,6.56752631 L1.75186973,6.56752631 C1.21537269,7.48936505 0.790326604,8.48420411 0.492752546,9.53142522 L0.492752546,9.53142522 C0.489269703,9.54201301 0.485508233,9.55134706 0.482304018,9.56235276 L0.482304018,9.56235276 C0.455277161,9.65875792 0.430479323,9.75627751 0.405820799,9.85337915 L0.405820799,9.85337915 C0.400248251,9.87497275 0.393839821,9.89586977 0.3885459,9.91746348 L0.3885459,9.91746348 L0.388685214,9.91746348 C0.135691541,10.927627 0,11.9837642 0,13.0712469 L0,13.0712469 C0,20.224448 5.8187152,26.0427452 12.971359,26.0427452 L12.971359,26.0427452 C20.1234456,26.0427452 25.9423,20.224448 25.9423,13.0712469 L25.9423,13.0712469 C25.9423,5.91929966 20.1234456,0.100166548 12.971359,0.100166548 Z" id="Fill-1"></path></g><g id="Group-5" transform="translate(27.683080, 2.895077)"><g id="ecknuovo-Clipped"><g><mask id="mask-2" fill="white"><use xlink:href="#path-1"></use></mask><g id="path-1"></g><path d="M1.60121868,10.2317948 L1.60121868,10.3602171 C1.60121868,11.002332 1.68683272,11.6158994 1.85806337,12.2009374 C2.02929402,12.7859754 2.28256889,13.2996597 2.61789559,13.7420056 C2.95322228,14.1843514 3.374158,14.5339421 3.88071534,14.7907881 C4.38727268,15.047634 4.97586922,15.1760551 5.64652259,15.1760551 C6.74525261,15.1760551 7.61566207,14.8871077 8.25777698,14.3092043 C8.89989195,13.7313008 9.34223116,12.9286692 9.58480793,11.9012852 L10.3981494,11.9012852 C10.1555727,13.1855152 9.63118669,14.1700766 8.82497571,14.8549993 C8.01876468,15.5399219 6.95215644,15.882378 5.6251189,15.882378 C4.81177328,15.882378 4.10189018,15.7361207 3.49544829,15.4436017 C2.8890064,15.1510826 2.38245665,14.7515504 1.97578386,14.2449931 C1.56911106,13.7384357 1.26589466,13.1391374 1.06612556,12.4470803 C0.866356469,11.7550231 0.76647342,11.0094674 0.76647342,10.2103911 C0.76647342,9.43985311 0.869923723,8.70143201 1.07682743,7.99510559 C1.28373113,7.28877911 1.59408203,6.6680773 2.00788944,6.13298151 C2.42169685,5.59788577 2.93894835,5.16981554 3.55965947,4.84875806 C4.18037058,4.52770059 4.91165719,4.36717426 5.75354121,4.36717426 C6.52407915,4.36717426 7.20542424,4.50986433 7.79759693,4.79524875 C8.38976956,5.08063317 8.88561756,5.46946362 9.28515577,5.96175171 C9.68469397,6.45403985 9.98791037,7.02480015 10.194814,7.67404968 C10.4017178,8.32329927 10.5051681,9.01891332 10.5051681,9.76091278 C10.5051681,9.83225891 10.5016008,9.91430578 10.4944662,10.0070557 C10.4873316,10.0998056 10.4837643,10.1747178 10.4837643,10.2317948 L1.60121868,10.2317948 Z M9.67042285,9.52547186 C9.64188438,8.9261646 9.54200132,8.35897153 9.37077069,7.82387579 C9.19954001,7.28877999 8.94626512,6.81790275 8.61093848,6.41122998 C8.27561173,6.00455715 7.86894506,5.67993723 7.39092615,5.43736049 C6.91290725,5.19478373 6.36711776,5.07349717 5.75354121,5.07349717 C5.09715706,5.07349717 4.51926228,5.19835098 4.01983954,5.44806235 C3.52041681,5.6977737 3.0994811,6.0259609 2.7570198,6.43263367 C2.41455849,6.83930649 2.15058187,7.31375096 1.96508199,7.85598132 C1.77958212,8.39821174 1.66543006,8.95470302 1.6226224,9.52547186 L9.67042285,9.52547186 Z M20.67542,8.02721118 C20.6326124,7.54205766 20.5077586,7.11398746 20.3008549,6.74298767 C20.0939512,6.37198794 19.8264073,6.06520426 19.4982152,5.8226275 C19.1700231,5.5800508 18.7883272,5.39455368 18.3531159,5.26613069 C17.9179046,5.13770771 17.4505947,5.07349717 16.951172,5.07349717 C16.2662494,5.07349717 15.6598166,5.21261998 15.1318554,5.4908698 C14.6038943,5.76911961 14.161555,6.1401138 13.8048246,6.60386346 C13.4480939,7.06761318 13.1769828,7.59556644 12.991483,8.18773907 C12.8059831,8.77991176 12.7132346,9.38991183 12.7132346,10.0177575 C12.7132346,10.759757 12.7988486,11.4446694 12.9700793,12.0725151 C13.1413099,12.7003608 13.4052865,13.2461503 13.7620171,13.7099 C14.1187475,14.1736497 14.5610868,14.5339421 15.0890479,14.7907881 C15.6170091,15.047634 16.237711,15.1760551 16.951172,15.1760551 C17.464864,15.1760551 17.9393084,15.0904411 18.3745196,14.9192104 C18.8097309,14.7479798 19.1949941,14.5125411 19.5303208,14.2128876 C19.8656475,13.9132339 20.1403259,13.5529415 20.3543642,13.1319994 C20.5684025,12.7110575 20.7110926,12.250882 20.7824387,11.7514592 L21.5957802,11.7514592 C21.5101649,12.4078434 21.3318023,12.9928727 21.0606871,13.5065646 C20.7895719,14.0202565 20.4471157,14.4518941 20.0333084,14.8014899 C19.6195009,15.1510859 19.1486237,15.4186297 18.6206625,15.6041296 C18.0927013,15.7896295 17.53621,15.882378 16.951172,15.882378 C16.0522111,15.882378 15.2852519,15.7218518 14.6502716,15.4007942 C14.0152913,15.0797367 13.4944725,14.6480992 13.0877997,14.1058689 C12.6811269,13.5636385 12.3814777,12.9393694 12.1888433,12.233043 C11.9962088,11.5267165 11.899893,10.7882955 11.899893,10.0177575 C11.899893,9.24721962 12.0104778,8.51950026 12.2316507,7.83457763 C12.4528236,7.14965501 12.7774436,6.55035673 13.2055202,6.03666479 C13.6335969,5.52297282 14.1615501,5.11630612 14.7893958,4.81665248 C15.4172415,4.51699883 16.1378264,4.36717426 16.951172,4.36717426 C17.5504793,4.36717426 18.1105378,4.44208655 18.6313644,4.59191337 C19.1521909,4.74174019 19.6159336,4.96647704 20.0226064,5.26613069 C20.4292792,5.56578433 20.7610336,5.94748026 21.0178797,6.41122998 C21.2747256,6.87497964 21.4316847,7.41363463 21.4887616,8.02721118 L20.67542,8.02721118 Z M23.547002,0.343274058 L24.3603436,0.343274058 L24.3603436,10.4672358 L31.1453242,4.62401896 L32.322529,4.62401896 L27.506691,8.73353405 L32.6649886,15.6255334 L31.5519949,15.6255334 L26.8645792,9.35424206 L24.3603436,11.4732108 L24.3603436,15.6255334 L23.547002,15.6255334 L23.547002,0.343274058 Z M33.4176018,4.62401896 L34.2309433,4.62401896 L34.2309433,6.97842865 L34.2737508,6.97842865 C34.416443,6.56462126 34.6197764,6.1971943 34.8837569,5.87613684 C35.1477375,5.55507938 35.4545212,5.28040098 35.8041171,5.05209344 C36.153713,4.82378592 36.5354089,4.65255783 36.9492163,4.53840406 C37.3630238,4.42425029 37.7839595,4.36717426 38.212036,4.36717426 C38.8541511,4.36717426 39.3999406,4.44565379 39.849421,4.60261523 C40.2989015,4.75957667 40.6663284,4.96647727 40.9517128,5.22332325 C41.2370973,5.48016922 41.4618341,5.76911662 41.6259301,6.09017407 C41.7900262,6.41123158 41.9077454,6.73585144 41.9790916,7.06404357 C42.0504377,7.39223565 42.0932447,7.70972106 42.1075139,8.01650928 C42.1217832,8.32329755 42.1289177,8.5908414 42.1289177,8.81914898 L42.1289177,15.6255334 L41.3155761,15.6255334 L41.3155761,8.66932287 C41.3155761,8.39820769 41.2941726,8.05575154 41.251365,7.64194409 C41.2085573,7.2281367 41.0837035,6.83217176 40.8767998,6.45403741 C40.6698961,6.07590306 40.3559779,5.75128315 39.935036,5.48016793 C39.5140939,5.20905274 38.9326319,5.07349717 38.1906324,5.07349717 C37.5627866,5.07349717 37.0062954,5.18764922 36.5211419,5.41595676 C36.0359884,5.64426431 35.6221871,5.96174972 35.2797258,6.36842249 C34.9372645,6.77509531 34.6768551,7.26024152 34.4984899,7.82387579 C34.3201246,8.38751 34.2309433,9.00464452 34.2309433,9.67529797 L34.2309433,15.6255334 L33.4176018,15.6255334 L33.4176018,4.62401896 Z M53.2409335,15.6255334 L52.427592,15.6255334 L52.427592,13.2711236 L52.3847845,13.2711236 C52.2420923,13.684931 52.0387589,14.0523579 51.7747784,14.3734155 C51.5107978,14.6944729 51.2040141,14.9691513 50.8544182,15.1974589 C50.5048224,15.4257664 50.1231264,15.5969945 49.709319,15.7111482 C49.2955116,15.825302 48.8745759,15.882378 48.4464993,15.882378 C47.8043843,15.882378 47.2585947,15.8038985 46.8091143,15.6469371 C46.3596338,15.4899756 45.9922069,15.283075 45.7068225,15.0262291 C45.421438,14.7693831 45.1967012,14.4804357 45.0326052,14.1593783 C44.8685092,13.8383208 44.7507899,13.5137008 44.6794438,13.1855088 C44.6080976,12.8573166 44.5652906,12.5398312 44.5510214,12.233043 C44.5367522,11.9262547 44.5296176,11.6587109 44.5296176,11.4304033 L44.5296176,4.62401896 L45.3429592,4.62401896 L45.3429592,11.5802295 C45.3429592,11.8656138 45.3643627,12.2116372 45.4071703,12.6183101 C45.449978,13.0249828 45.5748319,13.4173805 45.7817355,13.7955149 C45.9886392,14.1736493 46.2989901,14.4982692 46.7127975,14.7693844 C47.126605,15.0404995 47.7116342,15.1760551 48.467903,15.1760551 C49.0814795,15.1760551 49.6344035,15.0619031 50.1266916,14.8335956 C50.6189797,14.605288 51.0363482,14.2878026 51.3788095,13.8811298 C51.7212709,13.474457 51.9816802,12.9893108 52.1600455,12.4256765 C52.3384107,11.8620423 52.427592,11.2449078 52.427592,10.5742543 L52.427592,4.62401896 L53.2409335,4.62401896 L53.2409335,15.6255334 Z M55.1279441,10.1247762 C55.1279441,9.339969 55.2385289,8.6015479 55.4597016,7.90949066 C55.680875,7.21743347 56.0054948,6.60743341 56.4335714,6.07947223 C56.8616479,5.55151105 57.3896014,5.13414259 58.0174468,4.82735433 C58.6452927,4.52056608 59.3658778,4.36717426 60.1792232,4.36717426 C60.9925686,4.36717426 61.7131538,4.52056608 62.3409991,4.82735433 C62.968845,5.13414259 63.4967985,5.55151105 63.9248751,6.07947223 C64.3529516,6.60743341 64.6775714,7.21743347 64.8987443,7.90949066 C65.1199172,8.6015479 65.2305023,9.339969 65.2305023,10.1247762 C65.2305023,10.9095832 65.1199172,11.6515716 64.8987443,12.3507635 C64.6775714,13.0499553 64.3529516,13.6599554 63.9248751,14.180782 C63.4967985,14.7016085 62.968845,15.1154097 62.3409991,15.422198 C61.7131538,15.7289863 60.9925686,15.882378 60.1792232,15.882378 C59.3658778,15.882378 58.6452927,15.7289863 58.0174468,15.422198 C57.3896014,15.1154097 56.8616479,14.7016085 56.4335714,14.180782 C56.0054948,13.6599554 55.680875,13.0499553 55.4597016,12.3507635 C55.2385289,11.6515716 55.1279441,10.9095832 55.1279441,10.1247762 Z M55.9412857,10.1247762 C55.9412857,10.7811603 56.0340344,11.4125639 56.2195339,12.0190057 C56.405034,12.6254477 56.6761451,13.1641027 57.0328755,13.634987 C57.3896064,14.1058713 57.8319456,14.4804327 58.3599062,14.7586825 C58.8878675,15.0369323 59.4943004,15.1760551 60.1792232,15.1760551 C60.8641455,15.1760551 61.4705784,15.0369323 61.9985396,14.7586825 C62.5265009,14.4804327 62.96884,14.1058713 63.3255704,13.634987 C63.6823013,13.1641027 63.9534124,12.6254477 64.138912,12.0190057 C64.324412,11.4125639 64.4171607,10.7811603 64.4171607,10.1247762 C64.4171607,9.46839197 64.324412,8.83698844 64.138912,8.23054656 C63.9534124,7.62410463 63.6823013,7.08544965 63.3255704,6.61456531 C62.96884,6.14368103 62.5265009,5.76911961 61.9985396,5.4908698 C61.4705784,5.21261998 60.8641455,5.07349717 60.1792232,5.07349717 C59.4943004,5.07349717 58.8878675,5.21261998 58.3599062,5.4908698 C57.8319456,5.76911961 57.3896064,6.14368103 57.0328755,6.61456531 C56.6761451,7.08544965 56.405034,7.62410463 56.2195339,8.23054656 C56.0340344,8.83698844 55.9412857,9.46839197 55.9412857,10.1247762 Z M71.3340463,15.6255334 L70.3280714,15.6255334 L65.8975006,4.62401896 L66.8392642,4.62401896 L70.820357,14.6837695 L70.8631642,14.6837695 L74.5874125,4.62401896 L75.4863689,4.62401896 L71.3340463,15.6255334 Z M76.1319636,10.1247762 C76.1319636,9.339969 76.2425481,8.6015479 76.463721,7.90949066 C76.684894,7.21743347 77.0095143,6.60743341 77.4375908,6.07947223 C77.8656674,5.55151105 78.3936209,5.13414259 79.0214662,4.82735433 C79.6493121,4.52056608 80.3698967,4.36717426 81.1832427,4.36717426 C81.9965881,4.36717426 82.7171732,4.52056608 83.3450186,4.82735433 C83.9728645,5.13414259 84.5008174,5.55151105 84.9288945,6.07947223 C85.3569711,6.60743341 85.6815908,7.21743347 85.9027637,7.90949066 C86.1239366,8.6015479 86.2345217,9.339969 86.2345217,10.1247762 C86.2345217,10.9095832 86.1239366,11.6515716 85.9027637,12.3507635 C85.6815908,13.0499553 85.3569711,13.6599554 84.9288945,14.180782 C84.5008174,14.7016085 83.9728645,15.1154097 83.3450186,15.422198 C82.7171732,15.7289863 81.9965881,15.882378 81.1832427,15.882378 C80.3698967,15.882378 79.6493121,15.7289863 79.0214662,15.422198 C78.3936209,15.1154097 77.8656674,14.7016085 77.4375908,14.180782 C77.0095143,13.6599554 76.684894,13.0499553 76.463721,12.3507635 C76.2425481,11.6515716 76.1319636,10.9095832 76.1319636,10.1247762 Z M76.9453052,10.1247762 C76.9453052,10.7811603 77.0380538,11.4125639 77.2235534,12.0190057 C77.4090535,12.6254477 77.6801645,13.1641027 78.0368949,13.634987 C78.3936253,14.1058713 78.835965,14.4804327 79.3639257,14.7586825 C79.8918869,15.0369323 80.4983198,15.1760551 81.1832427,15.1760551 C81.868165,15.1760551 82.4745979,15.0369323 83.0025591,14.7586825 C83.5305203,14.4804327 83.9728595,14.1058713 84.3295899,13.634987 C84.6863208,13.1641027 84.9574319,12.6254477 85.1429314,12.0190057 C85.3284315,11.4125639 85.4211802,10.7811603 85.4211802,10.1247762 C85.4211802,9.46839197 85.3284315,8.83698844 85.1429314,8.23054656 C84.9574319,7.62410463 84.6863208,7.08544965 84.3295899,6.61456531 C83.9728595,6.14368103 83.5305203,5.76911961 83.0025591,5.4908698 C82.4745979,5.21261998 81.868165,5.07349717 81.1832427,5.07349717 C80.4983198,5.07349717 79.8918869,5.21261998 79.3639257,5.4908698 C78.835965,5.76911961 78.3936253,6.14368103 78.0368949,6.61456531 C77.6801645,7.08544965 77.4090535,7.62410463 77.2235534,8.23054656 C77.0380538,8.83698844 76.9453052,9.46839197 76.9453052,10.1247762 Z" id="ecknuovo" fill="#121214" fill-rule="nonzero" mask="url(#mask-2)"></path></g></g></g></g></g></g></g></g></svg> 