<?xml version="1.0" encoding="UTF-8"?> <svg xmlns="http://www.w3.org/2000/svg" xmlns:xlink="http://www.w3.org/1999/xlink" width="120px" height="34px" viewBox="0 0 120 34" version="1.1"><!-- Generator: Sketch 64 (93537) - https://sketch.com --><title>trustology-logo</title><desc>Created with Sketch.</desc><g id="Pages" stroke="none" stroke-width="1" fill="none" fill-rule="evenodd"><g id="Together---About" transform="translate(-922.000000, -6311.000000)" fill="#000000" fill-rule="nonzero"><g id="Group-14" transform="translate(132.500000, 5826.625000)"><g id="Group-2" transform="translate(790.000000, 485.200000)"><g id="trustology-logo" transform="translate(0.165625, 0.000000)"><path d="M28.1715312,7.99881838 L14.6933729,0.224876433 C14.5829239,0.161351594 14.4576668,0.128125 14.3302105,0.128125 C14.2027786,0.128125 14.0775217,0.161351594 13.9670725,0.224876433 L0.491379785,7.99881838 C0.266511828,8.12852272 0.128219825,8.36830961 0.128219825,8.6277183 L0.128219825,24.1731802 C0.128917204,24.4317336 0.267259811,24.6702987 0.491379785,24.7995632 L13.9670725,32.573516 C14.0780103,32.6358268 14.2029498,32.6693036 14.3302105,32.670281 C14.4575935,32.6697923 14.582655,32.6365598 14.6933729,32.573516 L28.1715312,24.7995632 C28.396339,24.6700544 28.534645,24.4301697 28.534645,24.1707611 L28.534645,8.6277183 C28.534645,8.36830961 28.396339,8.12852272 28.1715312,7.99881838 Z M13.6039101,30.6892842 L1.58086208,23.7547443 L1.58086208,17.6570028 L13.6039101,24.591616 L13.6039101,30.6892842 Z M15.7828601,8.6277183 L21.0680679,5.57763799 L26.3557193,8.6277183 L21.0680679,11.6753794 L15.7828601,8.6277183 Z M20.341743,12.9331305 L20.341743,19.030872 L15.0565353,15.9807917 L15.0565353,9.88305015 L20.341743,12.9331305 Z M7.59237756,11.6753794 L2.30718443,8.6277183 L14.3302105,1.69065431 L19.6154183,4.74074195 L7.59237756,11.6753794 Z M13.6039101,9.88305015 L13.6039101,15.9807917 L8.31870236,19.030872 L8.31870236,12.9331305 L13.6039101,9.88305015 Z M6.86605276,12.9331305 L6.86605276,19.030872 L1.58086208,15.9807917 L1.58086208,9.88305015 L6.86605276,12.9331305 Z M9.04502715,20.2862038 L14.3302105,17.2385426 L19.6154183,20.2862038 L14.3302105,23.3483797 L9.04502715,20.2862038 Z M20.341743,21.5439792 L20.341743,27.6416719 L15.0565353,30.6892842 L15.0565353,24.591616 L20.341743,21.5439792 Z M27.0819463,23.7547443 L21.7943927,26.8023078 L21.7943927,12.9331305 L27.0819463,9.88305015 L27.0819463,23.7547443 Z" id="Shape"></path><g id="Group" transform="translate(39.009375, 9.946948)"><path d="M0.116875,0.116875 L9.479475,0.116875 L9.479475,2.296975 L6.065675,2.296975 L6.065675,11.946875 L3.530675,11.946875 L3.530675,2.296975 L0.116875,2.296975 L0.116875,0.116875 Z M14.7871313,3.260275 L14.7871313,5.423475 L13.8365063,5.423475 C13.2719043,5.3761289 12.7188382,5.60238324 12.3493063,6.031875 C12.011263,6.5156658 11.8450372,7.09875786 11.8771625,7.688075 L11.8771625,11.946875 L9.49320625,11.946875 L9.49320625,3.260275 L11.6564063,3.260275 L11.8771625,4.561575 C12.1090687,4.15999101 12.4409191,3.82522966 12.8404625,3.589825 C13.3159533,3.34877843 13.8458517,3.23522876 14.3783625,3.260275 L14.7871313,3.260275 Z M23.5899188,3.260275 L23.5899188,11.946875 L21.4774188,11.946875 L21.2577188,10.899075 C20.6399669,11.6688537 19.6918001,12.0974125 18.7058188,12.0525 C17.7853541,12.0881314 16.8896367,11.7498085 16.222575,11.11455 C15.4946925,10.2406896 15.1476901,9.11140997 15.259275,7.9796 L15.259275,3.260275 L17.642175,3.260275 L17.642175,7.688075 C17.6006549,8.31027508 17.7447574,8.9307984 18.056225,9.471025 C18.3480799,9.87951755 18.8314122,10.1067798 19.332175,10.070975 C19.8771389,10.0964645 20.3982193,9.8454563 20.717975,9.403425 C21.0754103,8.8487388 21.2470588,8.19469878 21.208075,7.535975 L21.208075,3.260275 L23.5899188,3.260275 Z M26.751275,9.056975 C26.7828736,9.43656141 26.9889157,9.77996506 27.308975,9.986475 C27.6950863,10.2367776 28.1494842,10.360805 28.6092188,10.341375 C29.0237245,10.3613233 29.4366206,10.2770736 29.810175,10.096325 C30.0810562,9.96843169 30.2526672,9.69451429 30.249575,9.394975 C30.2635562,9.20377792 30.1887593,9.01678588 30.046775,8.887975 C29.8781513,8.76055203 29.6808593,8.67641279 29.472175,8.642925 C29.2243083,8.592225 28.8183563,8.533075 28.2543188,8.465475 C27.6084735,8.38876554 26.9700815,8.25875546 26.345675,8.076775 C25.8801576,7.94607799 25.4593319,7.69036793 25.128875,7.3374 C24.8103819,6.96115612 24.6472137,6.47769475 24.672575,5.9854 C24.6634565,5.4499631 24.8263555,4.92572452 25.137325,4.48975 C25.4700891,4.03750807 25.924224,3.68884963 26.447075,3.4842 C27.0643632,3.23738466 27.7248353,3.11671113 28.3895188,3.1293 C29.3990944,3.0921908 30.3968043,3.3569719 31.255125,3.8898 C31.9584252,4.34536655 32.3964659,5.11430129 32.429675,5.9516 L30.165075,5.9516 C30.1269202,5.61860506 29.9365416,5.32211372 29.649625,5.14885 C28.9468382,4.75134348 28.0932142,4.72605093 27.368125,5.08125 C27.1151414,5.21205746 26.9556486,5.47245386 26.954075,5.75725 C26.9428096,5.93723887 27.0260459,6.11011408 27.173775,6.21355 C27.3480993,6.32564225 27.5437353,6.40044425 27.748375,6.43325 C27.984975,6.47902083 28.3793083,6.52972083 28.931375,6.58535 C29.8711409,6.65326111 30.7877374,6.90898867 31.626925,7.3374 C32.2703139,7.73801093 32.6331304,8.46691254 32.564875,9.22175 C32.5730569,9.75981633 32.3971555,10.2845287 32.066325,10.70895 C31.7035894,11.1591295 31.2242415,11.5011033 30.680525,11.6976 C30.0235351,11.9396193 29.3272026,12.0571076 28.627175,12.04405 C27.5870462,12.0914628 26.5583382,11.8106373 25.686575,11.2413 C24.9582687,10.7494891 24.5131107,9.93553094 24.4919563,9.056975 L26.751275,9.056975 Z M34.052075,5.271375 L32.6145188,5.271375 L32.6145188,3.2645 L34.052075,3.2645 L34.052075,0.835125 L36.434975,0.835125 L36.434975,3.2645 L38.412275,3.2645 L38.412275,5.271375 L36.434975,5.271375 L36.434975,9.073875 C36.4134314,9.3101436 36.4825318,9.54576462 36.6282688,9.732975 C36.8088069,9.88577488 37.0435353,9.95893702 37.2789188,9.935775 L38.5126188,9.935775 L38.5126188,11.94265 L36.5332063,11.94265 C35.8491775,12.0399748 35.1592309,11.8096948 34.6707821,11.3210383 C34.1823333,10.8323818 33.9523468,10.1423373 34.0499625,9.45835 L34.052075,5.271375 Z" id="Shape"></path><path d="M40.7687688,11.499025 C40.0914322,11.1476549 39.53319,10.6037454 39.164325,9.935775 C38.4080762,8.47293413 38.4080762,6.73421587 39.164325,5.271375 C39.53319,4.60340464 40.0914322,4.05949514 40.7687688,3.708125 C42.2911397,2.9758451 44.0639541,2.9758451 45.586325,3.708125 C46.2634379,4.05980471 46.8216002,4.60363625 47.1907688,5.271375 C47.9456905,6.73752069 47.9456905,8.47807931 47.1907688,9.944225 C46.819436,10.6081855 46.261625,11.1487371 45.586325,11.499025 C44.0639541,12.2313049 42.2911397,12.2313049 40.7687688,11.499025 L40.7687688,11.499025 Z M44.758225,9.411875 C45.1638532,8.89896768 45.3705356,8.2567894 45.3402188,7.603575 C45.3705356,6.9503606 45.1638532,6.30818232 44.758225,5.795275 C44.3661035,5.33114093 43.780843,5.07518702 43.17385,5.102375 C42.5734787,5.07825762 41.9959352,5.33424984 41.6106,5.795275 C41.2051047,6.3083079 40.9981058,6.95030459 41.02755,7.603575 C40.9990016,8.25724361 41.2071394,8.89928328 41.6137688,9.411875 C41.9994025,9.87250404 42.5767405,10.1284052 43.1770188,10.104775 C43.7828276,10.1304818 44.3665003,9.87471066 44.758225,9.411875 Z M48.6357188,0.116875 L51.0186188,0.116875 L51.0186188,11.946875 L48.6357188,11.946875 L48.6357188,0.116875 Z M54.0669563,11.499025 C53.3895272,11.1474101 52.8310077,10.6035884 52.4614563,9.935775 C51.7066211,8.47259064 51.7066211,6.73455936 52.4614563,5.271375 C52.8310077,4.60356156 53.3895272,4.05973988 54.0669563,3.708125 C55.5889283,2.97572033 57.3614842,2.97572033 58.8834563,3.708125 C59.5611086,4.05943038 60.1197083,4.60332996 60.4889563,5.271375 C61.243878,6.73752069 61.243878,8.47807931 60.4889563,9.944225 C60.11749,10.6084512 59.5592562,11.1490565 58.8834563,11.499025 C57.3614842,12.2314297 55.5889283,12.2314297 54.0669563,11.499025 L54.0669563,11.499025 Z M58.0553563,9.411875 C58.461277,8.89906937 58.6683287,8.2569095 58.6384063,7.603575 C58.6683287,6.9502405 58.461277,6.30808063 58.0553563,5.795275 C57.663532,5.3307425 57.078065,5.07469828 56.4709813,5.102375 C55.8706099,5.07825762 55.2930665,5.33424984 54.9077313,5.795275 C54.5022359,6.3083079 54.295237,6.95030459 54.3246813,7.603575 C54.2964313,8.25737645 54.5049488,8.8994305 54.9119563,9.411875 C55.29759,9.87250404 55.874928,10.1284052 56.4752063,10.104775 C57.0814703,10.1312984 57.6658083,9.87540675 58.0574688,9.411875 L58.0553563,9.411875 Z M70.6226188,3.260275 L70.6226188,11.693375 C70.6674735,12.7231836 70.2531126,13.719816 69.491375,14.414275 C68.4824994,15.170441 67.231716,15.5311355 65.9751188,15.428275 C64.9229349,15.4781267 63.8819063,15.1942098 63.0007188,14.617075 C62.2520057,14.0887656 61.8003451,13.2348878 61.784975,12.318675 L64.1837187,12.318675 C64.2800207,12.7110229 64.5177214,13.054034 64.8512688,13.281975 C65.2437526,13.5242019 65.7003334,13.6420292 66.1610188,13.619975 C66.7301928,13.6558928 67.2918235,13.4747216 67.7327188,13.112975 C68.1280705,12.7162895 68.3315855,12.1674157 68.2904188,11.608875 L68.2904188,10.696275 C67.6401844,11.505593 66.6399761,11.9522268 65.6033188,11.896175 C64.8799113,11.9074447 64.1672276,11.7204154 63.542575,11.355375 C62.930532,10.9917377 62.4348014,10.4611998 62.1134688,9.825925 C61.4261631,8.36777382 61.4261631,6.67882618 62.1134688,5.220675 C62.4342888,4.58011566 62.933535,4.04602132 63.551025,3.682775 C64.1791514,3.31868491 64.8942707,3.13178288 65.6202188,3.141975 C66.684399,3.10569415 67.6973102,3.59948836 68.3242188,4.460175 L68.5270187,3.260275 L70.6226188,3.260275 Z M67.6989188,9.30625 C68.0976583,8.80966748 68.3019177,8.18487399 68.2735188,7.54865 C68.303133,6.90061975 68.0992464,6.26347381 67.6989188,5.753025 C67.3230174,5.29404857 66.7538546,5.03761253 66.1610188,5.060125 C65.5677561,5.03841938 64.9974876,5.29083336 64.6146688,5.744575 C64.2101705,6.24826843 64.0032453,6.88218803 64.032675,7.527525 C64.0020771,8.17043868 64.2092515,8.80211391 64.6146688,9.302025 C65.0000021,9.75146006 65.5694333,10.0003917 66.1610188,9.978025 C66.7497594,10.0029313 67.3171212,9.75510019 67.6989188,9.30625 L67.6989188,9.30625 Z M73.5294188,3.260275 L75.6419188,9.49215 L77.7037188,3.260275 L80.2556188,3.260275 L76.4024188,13.180575 C76.2460797,13.6098405 76.0542344,14.0253286 75.828875,14.422725 C75.6649089,14.7052847 75.4281904,14.9387204 75.1433688,15.098725 C74.8104005,15.2634382 74.4413965,15.3418879 74.0702188,15.326875 L71.7549188,15.326875 L71.7549188,13.32 L73.0731188,13.32 C73.3032714,13.3388158 73.5335851,13.2856665 73.7322188,13.1679 C73.9089884,13.0061511 74.0425925,12.8028404 74.1209188,12.5764 L74.3406188,12.0018 L70.9944187,3.2645 L73.5294188,3.260275 Z" id="Shape"></path></g></g></g></g></g></g></svg> 