<?xml version="1.0" encoding="UTF-8"?> <svg xmlns="http://www.w3.org/2000/svg" xmlns:xlink="http://www.w3.org/1999/xlink" width="42px" height="43px" viewBox="0 0 42 43" version="1.1"><!-- Generator: Sketch 64 (93537) - https://sketch.com --><title>we-logo</title><desc>Created with Sketch.</desc><g id="Pages" stroke="none" stroke-width="1" fill="none" fill-rule="evenodd"><g id="Together---About" transform="translate(-1215.000000, -5826.000000)" fill="#121214" fill-rule="nonzero"><g id="Group-14" transform="translate(132.500000, 5826.625000)"><g id="Group" transform="translate(1082.900000, 0.200000)"><g id="we-logo" transform="translate(0.064800, 0.000000)"><path d="M18.3885057,0.132598803 C16.1094638,0.381221557 13.7309727,1.10222755 11.5348051,2.19616767 C7.46567935,4.2182994 4.21700869,7.49183234 2.19487696,11.6023952 C1.26668534,13.5002155 0.711427856,15.224 0.330206299,17.3787305 C0.114733245,18.6052694 0.0318589938,21.5555928 0.172745221,22.9561677 C0.570541628,26.8346827 2.20316438,30.7712096 4.68939193,33.8707066 C5.39382307,34.7574611 6.82754761,36.1911856 7.71430211,36.8956167 C10.8055117,39.3901317 14.650877,40.9896048 18.5211045,41.403976 C19.5321704,41.52 22.1012721,41.52 23.112338,41.403976 C26.9825656,40.9896048 30.811356,39.3901317 33.9191405,36.9039042 C34.8058949,36.1911856 36.2396195,34.7574611 36.952338,33.8707066 C39.4551404,30.7463473 41.0214638,26.9755688 41.4606973,23.0390419 C41.5684338,22.0777006 41.5684338,19.4588742 41.4524099,18.4726707 C41.0297512,14.5775808 39.446853,10.7902276 36.952338,7.66586827 C36.2561943,6.78740119 34.8141824,5.35367665 33.9191405,4.64095809 C30.8279309,2.14644311 26.9825656,0.54697006 23.112338,0.132598803 C22.1841464,0.0165748503 19.3166973,0.0248622755 18.3885057,0.132598803 Z M22.7394039,1.98069461 C25.4576793,2.25417964 28.4825895,3.29010779 30.7201944,4.69897006 C32.0130327,5.51113773 32.9660866,6.28186826 34.1346135,7.45039521 C36.3307812,9.6465629 37.7727931,11.9421796 38.7092721,14.7847665 C40.2673081,19.4505868 39.9440985,24.5722156 37.8308051,28.9314012 C36.8694638,30.9120958 35.7755237,32.4286946 34.1346135,34.0778923 C31.9384458,36.2740599 29.6428291,37.7160719 26.8002422,38.6525509 C20.8415836,40.6332455 14.4354039,39.5807425 9.42151171,35.7851018 C7.84690091,34.5917126 6.1314039,32.7436167 5.02917636,31.0778443 C0.968338035,24.8954251 0.926900909,16.7986108 4.93801468,10.5747545 C6.91870929,7.49183234 9.93533201,4.92273054 13.2337272,3.47243114 C14.8994997,2.74313772 17.0542302,2.15473054 18.7531524,1.98069461 C19.7476434,1.88953293 21.7697752,1.88124551 22.7394039,1.98069461 Z" id="Shape"></path><path d="M28.316841,15.4477605 C27.6952841,15.5637845 27.0240027,15.7709701 26.5599069,16.0195928 C23.9245057,17.3538683 22.6979668,20.3622036 23.6758829,23.0970539 C24.3388769,24.9202874 25.8969129,26.3208623 27.8030207,26.7766707 C28.5571763,26.9672814 29.9660386,26.9672814 30.7201944,26.7766707 C32.3445297,26.3871617 33.8196913,25.2269221 34.5572721,23.7600479 C34.9716434,22.9230179 34.9716434,22.9147306 34.5075476,22.9147306 C34.1097512,22.9147306 34.0931763,22.9230179 33.8942782,23.2793772 C33.5627812,23.8429222 32.8997872,24.4479042 32.3362422,24.7131018 C31.0682661,25.301509 29.2616075,24.9617245 28.1759548,23.9257964 C27.4135117,23.2047904 26.9742781,22.2268743 26.8914039,21.0666347 L26.8416794,20.4036407 L30.6621824,20.3787785 L34.4743979,20.3539161 L34.6815835,20.1633054 C34.8639069,19.9892695 34.8887691,19.8981077 34.8887691,19.5085988 C34.8887691,18.0334372 33.0240985,16.218491 30.8942302,15.613509 C30.2478111,15.4228982 28.9052482,15.3317366 28.316841,15.4477605 Z M30.2478111,16.4256766 C30.8859429,16.7323114 31.3168889,17.4533174 31.532362,18.5638323 C31.5986614,18.9036168 31.6566734,19.2351138 31.6566734,19.3014132 C31.6566734,19.4008623 31.2671644,19.4174371 29.2616075,19.4174371 L26.874829,19.4174371 L26.9162661,19.1522396 C27.0820146,18.2406228 27.4217991,17.4367425 27.8610327,16.939497 C28.4245776,16.3013653 29.4936554,16.06103 30.2478111,16.4256766 Z M5.69217037,15.886994 C5.69217037,16.1439042 5.70874522,16.160479 6.0319548,16.2102036 C6.26400271,16.2516407 6.44632606,16.3510899 6.61207457,16.5251257 C6.77782307,16.7074491 7.4822542,18.2571976 8.86625421,21.5307305 C10.9712602,26.4700359 11.045847,26.6440718 11.5762422,26.7683832 C11.8745895,26.8429701 12.3138231,26.7352335 12.545871,26.5363353 C12.6950446,26.4120239 13.1342782,25.4423952 14.0127452,23.3125269 C14.7088889,21.638467 15.3055835,20.2378922 15.3387333,20.2047425 C15.3718829,20.1715928 15.9768649,21.5224431 16.6895836,23.196503 C17.5597632,25.243497 18.0487212,26.3291497 18.2061824,26.4783233 C18.6122661,26.8844072 19.291835,26.8844072 19.7062063,26.4783233 C20.0045536,26.1716886 23.9410805,16.666012 23.9410805,16.2433533 C23.9410805,16.0527425 23.8830685,15.9035689 23.7504698,15.7792575 C23.5681464,15.6052216 23.501847,15.5969341 21.7614877,15.5969341 L19.9631164,15.5969341 L19.9631164,15.8787066 C19.9631164,16.1273294 19.9879788,16.160479 20.1703021,16.160479 C20.8084338,16.160479 21.628889,16.7157365 21.9106614,17.3372934 C22.2090087,17.992 22.1427093,18.3400718 21.2891045,20.4036407 C20.8581584,21.4395689 20.5017991,22.2931737 20.4852243,22.3097485 C20.4769368,22.3180359 19.9299668,21.0583473 19.2752602,19.5168862 C18.2144698,17.0306587 18.081871,16.6742994 18.1647452,16.5085509 C18.2144698,16.392527 18.3636434,16.2682156 18.4962422,16.218491 C18.6951404,16.1439042 18.7365775,16.0776048 18.7365775,15.8621317 L18.7365775,15.5969341 L15.7779668,15.5969341 L12.819356,15.5969341 L12.819356,15.8704191 C12.819356,16.1190419 12.8442183,16.1439042 13.1342782,16.1936287 C13.6232362,16.2682156 13.871859,16.5748503 14.3608171,17.7019401 C14.592865,18.265485 14.7917632,18.7544431 14.7917632,18.8041677 C14.7917632,18.9036168 13.3746135,22.3346108 13.3414638,22.3097485 C13.2337272,22.1854372 11.0126973,16.7986108 11.0209848,16.6577245 C11.0209848,16.4505389 11.2944698,16.160479 11.4933679,16.160479 C11.5679548,16.160479 11.6093919,16.06103 11.6093919,15.8787066 L11.6093919,15.5969341 L8.65078118,15.5969341 L5.69217037,15.5969341 L5.69217037,15.886994 Z" id="Shape"></path></g></g></g></g></g></svg> 