<?xml version="1.0" encoding="UTF-8"?> <svg xmlns="http://www.w3.org/2000/svg" xmlns:xlink="http://www.w3.org/1999/xlink" width="122px" height="30px" viewBox="0 0 122 30" version="1.1"><!-- Generator: Sketch 64 (93537) - https://sketch.com --><title>zc-logo</title><desc>Created with Sketch.</desc><g id="Pages" stroke="none" stroke-width="1" fill="none" fill-rule="evenodd"><g id="Together---About" transform="translate(-1171.000000, -5948.000000)" fill-rule="nonzero"><g id="Group-14" transform="translate(132.500000, 5826.625000)"><g id="Group" transform="translate(1039.000000, 121.400000)"><g id="zc-logo" transform="translate(0.004348, 0.000000)"><path d="M45.2169427,12.3545457 C45.2169427,12.5490235 45.1830827,12.7391602 45.116231,12.9232194 C45.0605841,13.0890692 44.9716579,13.2418096 44.8549016,13.372081 L40.1943815,19.5215713 L45.0858439,19.5215713 L45.0858439,21.6182845 L36.9837623,21.6182845 L36.9837623,20.4696503 C36.9837623,20.3550474 37.0158859,20.2109255 37.0792647,20.0355482 C37.1435119,19.8619074 37.2320688,19.6969486 37.3466717,19.5424082 L42.046261,13.3217252 L37.2763471,13.3217252 L37.2763471,11.2258802 L45.2169427,11.2258802 L45.2169427,12.3545457 Z M54.0031692,15.1970463 C54.0031692,14.9079342 53.9641,14.6327135 53.887698,14.3705158 C53.8143779,14.1159286 53.6893591,13.8791907 53.5204477,13.6750843 C53.3479783,13.4696368 53.131322,13.305809 52.8866586,13.1958355 C52.6314065,13.078628 52.3257987,13.0195901 51.969835,13.0195901 C51.3056588,13.0195901 50.7856044,13.2079904 50.4105402,13.5839229 C50.0346078,13.9607235 49.7897742,14.4981419 49.6751713,15.1970463 L54.0031692,15.1970463 Z M49.6352338,16.850107 C49.7220543,17.8251004 49.9998797,18.537896 50.4652371,18.9876258 C50.9314627,19.4382238 51.5409421,19.6630886 52.2919387,19.6630886 C52.6275267,19.6697311 52.9620824,19.6237371 53.2834279,19.5267806 C53.5612533,19.4356191 53.8069551,19.3357757 54.0187968,19.2246455 L54.5918117,18.9216422 C54.7628478,18.831349 54.9321477,18.7862023 55.1005793,18.7862023 C55.3150257,18.7862023 55.4825891,18.8669454 55.6041377,19.0275632 L56.408963,20.0355482 C56.1137735,20.3784889 55.788197,20.6623917 55.4322332,20.8881248 C55.0762696,21.1138579 54.708151,21.2909715 54.325273,21.4220703 C53.9432631,21.5531692 53.5569123,21.6434624 53.1679568,21.6946865 C52.7790013,21.7441741 52.4030688,21.7702202 52.0410277,21.7702202 C51.3488079,21.7759218 50.6614064,21.6546848 50.0129027,21.41252 C49.3963941,21.1810311 48.8368032,20.8198137 48.3719968,20.353311 C47.9057711,19.8862171 47.5385207,19.3071249 47.2693774,18.6142979 C47.0019706,17.9223392 46.8673989,17.1192503 46.8673989,16.2050313 C46.8673989,15.4991813 46.98287,14.8332687 47.2146806,14.2090298 C47.4345451,13.6025988 47.7750853,13.0470429 48.21572,12.5759378 C48.6649204,12.1032764 49.2062462,11.7277169 49.8062701,11.4724502 C50.4305089,11.1998341 51.1346225,11.0643942 51.9194791,11.0643942 C52.5845235,11.0643942 53.1957393,11.169447 53.7565991,11.3812888 C54.2999583,11.5820505 54.7942527,11.8963862 55.2065002,12.3033216 C55.6119516,12.7070366 55.9271097,13.2027812 56.1519746,13.7905555 C56.3768395,14.3791978 56.4888378,15.0494515 56.4888378,15.8021846 C56.4888378,16.0105536 56.4792875,16.1815898 56.4593189,16.3161615 C56.446088,16.4288617 56.4119323,16.5381012 56.3586071,16.6382652 C56.3166839,16.7146926 56.2489991,16.773763 56.1676022,16.8049604 C56.0668787,16.838253 55.9610764,16.8535355 55.8550487,16.850107 L49.6352338,16.850107 Z M61.430656,12.4352887 C61.6390251,12.2329972 61.855208,12.0480697 62.0800728,11.879638 C62.3049377,11.7120746 62.5428256,11.5670845 62.7946049,11.4472723 C63.0463841,11.3257238 63.318132,11.2319577 63.6098487,11.1642378 C63.9219287,11.094908 64.2408529,11.0611224 64.5605322,11.0635261 C65.1248649,11.0635261 65.6240823,11.1616331 66.060789,11.3561109 C66.4966276,11.5514569 66.8638779,11.8232047 67.1625401,12.1722228 C67.4603342,12.5221091 67.6860673,12.9388472 67.8371348,13.4224369 C67.9873342,13.9068948 68.0628679,14.4382358 68.0628679,15.0155915 L68.0628679,21.6182845 L65.2959011,21.6182845 L65.2959011,15.0155915 C65.2959011,14.4373675 65.1613295,13.9893742 64.8930544,13.6698751 C64.6239111,13.3503759 64.2288782,13.1906264 63.7053511,13.1906264 C63.3163956,13.1906264 62.9500134,13.2748422 62.607941,13.4424056 C62.2470998,13.6241529 61.9176515,13.8624462 61.6320794,14.1482556 L61.6320794,21.6182845 L58.853826,21.6182845 L58.853826,11.2258802 L60.5650565,11.2258802 C60.9140746,11.2258802 61.1458851,11.3873662 61.2596199,11.70947 L61.430656,12.4361569 L61.430656,12.4352887 Z M78.4396444,13.5439854 C78.3720401,13.6381248 78.2903393,13.7212898 78.1974155,13.7905555 C78.1175407,13.8478569 78.0029377,13.8765077 77.8553431,13.8765077 C77.7178126,13.8754745 77.5834501,13.8351055 77.468124,13.7601683 C77.3272501,13.6732171 77.1845429,13.5892718 77.0400993,13.5083891 C76.8568042,13.407909 76.665068,13.3236613 76.4670845,13.2566098 C76.2456924,13.1793397 75.9704717,13.1402705 75.6414223,13.1402705 C75.2246844,13.1402705 74.8643796,13.2158043 74.55964,13.3668718 C74.2558427,13.516824 73.9946124,13.7407356 73.7999612,14.0180249 C73.5859434,14.3286946 73.4338359,14.6777167 73.3519679,15.0459787 C73.2499646,15.4921482 73.2010062,15.9488022 73.2061096,16.4064547 C73.2061096,17.4691366 73.4188196,18.2817758 73.8451078,18.8461085 C74.2705279,19.4104412 74.8522248,19.6934758 75.5910665,19.6934758 C75.8463186,19.6934758 76.0659742,19.6717707 76.2509017,19.6274923 C76.4349609,19.584082 76.5955788,19.528517 76.7336232,19.4616652 C76.8707995,19.3939453 76.9897434,19.320148 77.0904551,19.239405 C77.192035,19.158662 77.2866693,19.0848646 77.3769625,19.0180129 C77.468124,18.950293 77.5592854,18.8947279 77.6495786,18.8513177 C77.7454325,18.8064281 77.8502205,18.7838675 77.9560548,18.7853342 C78.1713694,18.7853342 78.3380646,18.8669454 78.4596132,19.0284314 L79.2548883,20.0355482 C78.7234354,20.6621234 78.0383339,21.1398995 77.2667006,21.4220703 C76.9081322,21.5531692 76.5434865,21.6443306 76.175368,21.6946865 C75.8116973,21.7446882 75.4450497,21.7699242 75.0779578,21.7702202 C74.4406959,21.7702202 73.8364258,21.650408 73.2660157,21.4116519 C72.6976764,21.1748066 72.1864776,20.8193059 71.766627,20.3689386 C71.3377342,19.9113951 70.9965299,19.3505351 70.7447507,18.6846225 C70.4929715,18.0195781 70.3679501,17.2607676 70.3679501,16.4064547 C70.3679501,15.6476442 70.478212,14.9417942 70.6996041,14.2897729 C70.9209962,13.6386197 71.2465727,13.0734187 71.6763338,12.5967747 C72.1191821,12.1094766 72.6636336,11.7253672 73.2712249,11.4715821 C73.9050139,11.1998341 74.6386465,11.0635261 75.4703861,11.0635261 C76.2621883,11.0635261 76.9567517,11.1911521 77.5540762,11.4472723 C78.1505325,11.7025244 78.6879509,12.0723794 79.1637268,12.5559691 L78.4396444,13.5439854 Z M86.7223125,17.2737907 C86.0451133,17.3076506 85.4807805,17.3658203 85.0319189,17.4500361 C84.5821891,17.5342519 84.224489,17.6436456 83.9596868,17.7782173 C83.6948845,17.9127889 83.5064841,18.0647247 83.3962222,18.2366291 C83.2872022,18.4026581 83.2295244,18.5971318 83.230376,18.7957527 C83.230376,19.1994676 83.3423936,19.4851067 83.5672584,19.6526702 C83.7921233,19.8211018 84.1055451,19.9044494 84.5083918,19.9044494 C84.9711446,19.9044494 85.372255,19.8228382 85.7108546,19.6578794 C86.0494543,19.4929206 86.3863175,19.2359321 86.7223125,18.8869141 L86.7223125,17.2737907 Z M81.0659622,12.6670992 C81.6545748,12.1290651 82.3414203,11.7095883 83.0888779,11.4316446 C83.8268515,11.1598968 84.6255994,11.0235886 85.4851215,11.0235886 C86.1015465,11.0235886 86.6537243,11.1243004 87.1399188,11.3257238 C87.6261131,11.5271471 88.0393783,11.8075771 88.3779779,12.1678818 C88.7165776,12.5273183 88.9770388,12.955343 89.1576253,13.452824 C89.3399481,13.950305 89.4293732,14.494669 89.4293732,15.0859161 L89.4293732,21.6191527 L88.1617951,21.6191527 C87.8995974,21.6191527 87.6999104,21.5818199 87.5627342,21.5080226 C87.4255579,21.4342252 87.3126914,21.2796849 87.2258709,21.0444015 L87.0044789,20.3784889 C86.7422812,20.6076948 86.4896338,20.8091182 86.243932,20.9836272 C85.9990984,21.1581362 85.746451,21.3048627 85.4842533,21.4220703 C85.2149852,21.5423303 84.9330844,21.632026 84.6438317,21.6894772 C84.3451694,21.7502515 84.011779,21.7797704 83.6427923,21.7797704 C83.1861168,21.7797704 82.770247,21.7189962 82.3943146,21.5983158 C82.0370581,21.487854 81.7065618,21.3045734 81.4236623,21.0600292 C81.1473592,20.8151181 80.931857,20.5092537 80.7942142,20.166647 C80.6466196,19.8106834 80.5728222,19.4008909 80.5728222,18.93727 C80.5728222,18.5543919 80.670061,18.1706456 80.865407,17.7877675 C81.0598848,17.4048895 81.3932752,17.0567396 81.8664465,16.7441861 C82.3396178,16.4316326 82.9690657,16.173776 83.7591316,15.9680116 C84.5465928,15.7631154 85.5346091,15.646776 86.7223125,15.6207299 L86.7223125,15.0859161 C86.7223125,14.4347629 86.5851363,13.9555142 86.3099155,13.6490382 C86.0346948,13.3442985 85.6387937,13.1906264 85.1222121,13.1906264 C84.7402023,13.1906264 84.4207032,13.235773 84.1663194,13.3269344 C83.9110673,13.4172276 83.688807,13.5153347 83.4969339,13.6195192 L82.9586474,13.9112358 C82.778487,14.0052069 82.5774901,14.0520962 82.3743459,14.0475439 C82.2001029,14.0537869 82.0286454,14.0025326 81.8864151,13.9016855 C81.7571883,13.8063464 81.6462947,13.6883934 81.5591022,13.5535357 L81.0659622,12.6670992 Z M94.8547812,12.9388472 C95.1829624,12.3476001 95.5623676,11.879638 95.9921287,11.5375655 C96.4210216,11.1946249 96.92458,11.0235886 97.5019358,11.0235886 C97.970766,11.0235886 98.3527759,11.1347188 98.6479653,11.3561109 L98.4673789,13.4128866 C98.4343871,13.5474583 98.3822949,13.639488 98.3111021,13.6907119 C98.2257549,13.744943 98.1255547,13.7710557 98.0245947,13.7653775 C97.9178057,13.7653775 97.7632653,13.750618 97.5618419,13.7202309 C97.3750973,13.6913235 97.1864744,13.6762336 96.9975092,13.6750843 C96.7431253,13.6750843 96.516524,13.7115489 96.3185735,13.7853462 C96.1252433,13.8569178 95.9464201,13.9628 95.7907054,14.0978998 C95.6284699,14.2419574 95.4878244,14.4086266 95.3730991,14.5927762 C95.2489459,14.7872538 95.1326066,15.0095141 95.0258174,15.2578205 L95.0258174,21.6182845 L92.247564,21.6182845 L92.247564,11.2258802 L93.8884699,11.2258802 C94.1697681,11.2258802 94.3642458,11.2762361 94.4719031,11.3769478 C94.5795604,11.4776594 94.6559624,11.6521686 94.7037137,11.9013431 L94.8547812,12.9397153 L94.8547812,12.9388472 Z M104.285215,16.0339951 C104.855625,16.0339951 105.276705,15.8890049 105.548452,15.599893 C105.8202,15.3116492 105.956508,14.9383214 105.956508,14.481646 C105.956508,14.0041337 105.8202,13.6290695 105.548452,13.3573215 C105.276705,13.0847055 104.855625,12.9492656 104.285215,12.9492656 C103.714805,12.9492656 103.295462,13.0847055 103.026319,13.3573215 C102.758912,13.6290695 102.624341,14.0041337 102.624341,14.481646 C102.624341,14.9313757 102.760649,15.3029672 103.032397,15.595552 C103.304145,15.8881368 103.720882,16.0339951 104.285215,16.0339951 L104.285215,16.0339951 Z M106.912401,22.0419681 C106.918249,21.8770439 106.856097,21.7169573 106.740496,21.599184 C106.610277,21.4752533 106.453928,21.3820965 106.282953,21.3265678 C106.062449,21.2527645 105.834464,21.203557 105.603149,21.1798413 C105.325486,21.1483046 105.046964,21.1248531 104.767936,21.1095169 C104.472748,21.0921528 104.167139,21.0773933 103.851981,21.0643702 C103.542752,21.051299 103.234066,21.0275539 102.926476,20.9931774 C102.692061,21.1346947 102.498451,21.30139 102.347384,21.4923949 C102.092302,21.8090319 102.049013,22.2466962 102.237121,22.6071691 C102.314392,22.7478181 102.442886,22.8684985 102.624341,22.9700784 C102.805795,23.07079 103.043683,23.1489285 103.338872,23.2062299 C103.634062,23.2635314 104.003049,23.2930504 104.445833,23.2930504 C104.902508,23.2930504 105.287991,23.261795 105.603149,23.2018889 C105.919175,23.1411146 106.17356,23.0551624 106.368905,22.9440323 C106.563383,22.8337703 106.702296,22.7009352 106.785643,22.5463948 C106.870076,22.3920703 106.913707,22.2187432 106.912401,22.0428364 L106.912401,22.0419681 Z M109.669818,11.5679527 L109.669818,12.5863562 C109.676919,12.7265865 109.628226,12.8639266 109.534378,12.968366 C109.443216,13.0638685 109.293885,13.1333249 109.086384,13.1810761 L108.240754,13.3521123 C108.356743,13.693097 108.41456,14.05116 108.411789,14.4113214 C108.419384,14.8950533 108.310707,15.3735362 108.094895,15.8065256 C107.884843,16.2185484 107.587709,16.5799677 107.224086,16.8657348 C106.833365,17.1696789 106.389767,17.3986895 105.915703,17.5411976 C105.387478,17.7029107 104.837619,17.7828424 104.285215,17.7782173 C103.916229,17.7782173 103.570683,17.7478302 103.24858,17.6870558 C102.966413,17.861565 102.825764,18.0534381 102.825764,18.2618071 C102.825764,18.4562848 102.921267,18.5978021 103.112272,18.6854907 C103.303276,18.7723111 103.555055,18.8348218 103.867609,18.8721546 C104.180162,18.9086191 104.535258,18.9320607 104.934632,18.941611 C105.333138,18.9520293 105.739457,18.9737345 106.151854,19.0075944 C106.564252,19.0414544 106.97057,19.0996241 107.369945,19.1847081 C107.769318,19.2680557 108.125282,19.4061002 108.436967,19.5971051 C108.748653,19.78811 109.000433,20.0424938 109.192306,20.3585201 C109.38331,20.6745465 109.478813,21.0808661 109.478813,21.5783471 C109.478813,22.0419681 109.364209,22.4925661 109.135872,22.9292728 C108.89188,23.3848826 108.553933,23.7834953 108.144383,24.0987438 C107.712017,24.4416845 107.180676,24.7169053 106.549491,24.9252743 C105.919175,25.1336433 105.20117,25.2378278 104.396345,25.2378278 C103.597597,25.2378278 102.903902,25.162294 102.317864,25.0112265 C101.73009,24.8601589 101.243896,24.6578673 100.858413,24.4060881 C100.472062,24.1543089 100.185555,23.8634605 99.9980229,23.5344111 C99.8146579,23.2224503 99.7172938,22.8674458 99.7158565,22.5055892 C99.7158565,22.0419681 99.8565056,21.6486716 100.138672,21.3265678 C100.41997,21.0035959 100.808926,20.744871 101.306407,20.5503934 C101.052987,20.410529 100.83706,20.2115781 100.676959,19.9704329 C100.518945,19.7316768 100.440807,19.4208596 100.440807,19.0379816 C100.440807,18.7289009 100.552805,18.4024561 100.77767,18.0603837 C101.001667,17.717443 101.349817,17.4318039 101.819515,17.2025979 C101.309537,16.9389287 100.876,16.5484464 100.560619,16.0687233 C100.252407,15.595552 100.098735,15.0425059 100.098735,14.4104532 C100.098735,13.8930035 100.203787,13.4259097 100.415629,13.0091716 C100.625887,12.5933013 100.926719,12.2298695 101.295988,11.9456215 C101.693626,11.6421604 102.143996,11.4149153 102.624341,11.2753679 C103.163511,11.1166441 103.72319,11.0385289 104.285215,11.0435574 C105.170783,11.0435574 105.952168,11.2180664 106.630234,11.5679527 L109.66895,11.5679527 L109.669818,11.5679527 Z" id="Shape" fill="#2A2C37"></path><g id="Clipped" transform="translate(111.022939, 11.049225)" fill="#2A2C37"><path d="M5.2287348,8.63383237 C6.02053702,8.63383237 6.60744306,8.35947984 6.99032111,7.81164299 C7.37233095,7.26467435 7.56333588,6.44943061 7.56333588,5.36764818 C7.56333588,4.29194319 7.37233095,3.48017227 6.99032111,2.93233542 C6.60831126,2.38536677 6.02053702,2.11101425 5.2287348,2.11101425 C4.41696388,2.11101425 3.81963938,2.38536677 3.43762954,2.93233542 C3.05561969,3.48017227 2.86374657,4.29194319 2.86374657,5.36764818 C2.86374657,6.44943061 3.05475149,7.26467435 3.43676133,7.81164299 C3.81963938,8.35947984 4.41696388,8.63383237 5.2287348,8.63383237 M5.2287348,0.0143011151 C6.00751396,0.0143011151 6.71510038,0.138454317 7.35236226,0.387628923 C7.96825479,0.622378208 8.52748056,0.984839353 8.99326819,1.45117906 C9.44907539,1.91132728 9.8006981,2.47045078 10.0498727,3.12941777 C10.2981791,3.78838476 10.4223323,4.53069934 10.4223323,5.35722974 C10.4223323,6.18376013 10.2981791,6.92867933 10.0490045,7.59025093 C9.8203967,8.22142642 9.46057414,8.79696497 8.99326819,9.27890809 C8.52861898,9.74770149 7.96915945,10.1117942 7.35236226,10.3467992 C6.71510038,10.5959739 6.00664576,10.7201271 5.2287348,10.7201271 C4.44387821,10.7201271 3.73108256,10.5959739 3.09034787,10.3467992 C2.4714932,10.1128385 1.91012273,9.74865826 1.4442327,9.27890809 C0.976248662,8.79651675 0.614798181,8.22121299 0.383287176,7.59025093 C0.13150796,6.92867933 0.00561835728,6.18376013 0.00561835728,5.35722974 C0.00561835728,4.53069934 0.13150796,3.78838476 0.383287176,3.12941777 C0.614976563,2.50161794 0.976495812,1.92975484 1.4442327,1.45117906 C1.91127015,0.983893326 2.47240306,0.62134701 3.09034787,0.387628923 C3.73021436,0.138454317 4.44387821,0.0143011151 5.2287348,0.0143011151" id="Shape"></path></g><g id="Clipped" transform="translate(16.165867, 17.558321)" fill="#CACACA"><polygon id="Path" points="0.06694646 0.133944585 0.06694646 11.9154755 10.2770278 6.04554696"></polygon></g><g id="Clipped" transform="translate(0.000000, 7.356922)" fill="#000000"><polygon id="Path" points="14.9131435 9.55135468 0 0.146098624 0 12.7176954 14.9131435 22.0543633"></polygon></g><polygon id="Path" fill="#8F8F8F" points="26.4949874 9.4547437 11.4568226 0 0.606874736 6.32313116 15.5903428 15.7726656"></polygon></g></g></g></g></g></svg> 